<?xml version="1.0" encoding="utf-8" standalone="no"?>
<!DOCTYPE svg PUBLIC "-//W3C//DTD SVG 1.1//EN"
  "http://www.w3.org/Graphics/SVG/1.1/DTD/svg11.dtd">
<!-- Created with matplotlib (https://matplotlib.org/) -->
<svg height="481.897825pt" version="1.1" viewBox="0 0 556.315 481.897825" width="556.315pt" xmlns="http://www.w3.org/2000/svg" xmlns:xlink="http://www.w3.org/1999/xlink">
 <defs>
  <style type="text/css">
*{stroke-linecap:butt;stroke-linejoin:round;}
  </style>
 </defs>
 <g id="figure_1">
  <g id="patch_1">
   <path d="M 0 481.897825 
L 556.315 481.897825 
L 556.315 0 
L 0 0 
z
" style="fill:#ffffff;"/>
  </g>
  <g id="axes_1">
   <g id="patch_2">
    <path d="M 45.675 381.350325 
L 543.115 381.350325 
L 543.115 43.686325 
L 45.675 43.686325 
z
" style="fill:none;"/>
   </g>
   <g id="matplotlib.axis_1">
    <g id="xtick_1">
     <g id="text_1">
      <!-- Total -->
      <defs>
       <path d="M 28.421875 0 
L 20.125 0 
L 20.125 59.328125 
L 1.03125 59.328125 
L 1.03125 66.65625 
L 47.5625 66.65625 
L 47.5625 59.328125 
L 28.421875 59.328125 
z
" id="FranklinGothic-Book-84"/>
       <path d="M 25.34375 -1.3125 
Q 15.1875 -1.3125 9.5 6.203125 
Q 3.8125 13.71875 3.8125 24.859375 
Q 3.8125 36.625 10.203125 43.65625 
Q 16.609375 50.6875 26.125 50.6875 
Q 36.328125 50.6875 42.203125 43.28125 
Q 48.09375 35.890625 48.09375 24.8125 
Q 48.09375 13.28125 41.75 5.984375 
Q 35.40625 -1.3125 25.34375 -1.3125 
z
M 25.921875 4.984375 
Q 31.78125 4.984375 35.734375 9.8125 
Q 39.703125 14.65625 39.703125 24.859375 
Q 39.703125 35.109375 35.546875 39.71875 
Q 31.390625 44.34375 25.828125 44.34375 
Q 20.125 44.34375 16.15625 39.671875 
Q 12.203125 35.015625 12.203125 24.90625 
Q 12.203125 14.203125 16.15625 9.59375 
Q 20.125 4.984375 25.921875 4.984375 
z
" id="FranklinGothic-Book-111"/>
       <path d="M 30.03125 5.28125 
L 30.03125 -0.78125 
Q 25.984375 -1.3125 23 -1.3125 
Q 8.6875 -1.3125 8.6875 13.625 
L 8.6875 43.3125 
L -0.046875 43.3125 
L -0.046875 49.3125 
L 8.6875 49.3125 
L 9.03125 61.71875 
L 16.15625 62.40625 
L 16.15625 49.3125 
L 27.203125 49.3125 
L 27.203125 43.3125 
L 16.15625 43.3125 
L 16.15625 12.359375 
Q 16.15625 4.734375 24.078125 4.734375 
Q 26.703125 4.734375 30.03125 5.28125 
z
" id="FranklinGothic-Book-116"/>
       <path d="M 46.296875 0 
L 38.671875 0 
Q 38.234375 2.34375 37.796875 8.890625 
Q 32.71875 -1.3125 20.515625 -1.3125 
Q 12.203125 -1.3125 7.765625 3.078125 
Q 3.328125 7.46875 3.328125 13.625 
Q 3.328125 21.09375 9.671875 25.90625 
Q 16.015625 30.71875 31.25 30.71875 
Q 33.296875 30.71875 37.796875 30.515625 
Q 37.796875 36.375 36.890625 38.984375 
Q 35.984375 41.609375 33.046875 43.171875 
Q 30.125 44.734375 25.34375 44.734375 
Q 13.671875 44.734375 11.765625 35.84375 
L 4.6875 37.0625 
Q 7.28125 50.6875 26.46875 50.6875 
Q 36.671875 50.6875 40.9375 46.171875 
Q 45.21875 41.65625 45.21875 30.515625 
L 45.21875 9.578125 
Q 45.21875 4.34375 46.296875 0 
z
M 37.796875 24.65625 
Q 33.109375 24.953125 30.671875 24.953125 
Q 21.578125 24.953125 16.546875 21.96875 
Q 11.53125 19 11.53125 13.28125 
Q 11.53125 9.671875 14.234375 7.125 
Q 16.9375 4.59375 22.078125 4.59375 
Q 29 4.59375 33.46875 9.625 
Q 37.9375 14.65625 37.9375 21.4375 
Q 37.9375 22.796875 37.796875 24.65625 
z
" id="FranklinGothic-Book-97"/>
       <path d="M 15.328125 0 
L 7.671875 0 
L 7.671875 66.65625 
L 15.328125 66.65625 
z
" id="FranklinGothic-Book-108"/>
      </defs>
      <g style="fill:#696969;" transform="translate(97.409141 423.975325)rotate(-90)scale(0.16 -0.16)">
       <use xlink:href="#FranklinGothic-Book-84"/>
       <use x="48.441406" xlink:href="#FranklinGothic-Book-111"/>
       <use x="100.394531" xlink:href="#FranklinGothic-Book-116"/>
       <use x="131.15625" xlink:href="#FranklinGothic-Book-97"/>
       <use x="184.037109" xlink:href="#FranklinGothic-Book-108"/>
      </g>
     </g>
    </g>
    <g id="xtick_2">
     <g id="text_2">
      <!-- Source code -->
      <defs>
       <path d="M 1.03125 17.71875 
L 8.546875 19.4375 
Q 13.09375 5.8125 28.21875 5.8125 
Q 36.140625 5.8125 40.140625 9.15625 
Q 44.140625 12.5 44.140625 18.109375 
Q 44.140625 22.359375 41.078125 24.953125 
Q 38.03125 27.546875 34.03125 28.515625 
L 20.703125 31.84375 
Q 15.53125 33.15625 12.234375 35.03125 
Q 8.9375 36.921875 6.640625 40.828125 
Q 4.34375 44.734375 4.34375 49.75 
Q 4.34375 58.109375 10.640625 63.0625 
Q 16.9375 68.015625 26.8125 68.015625 
Q 44.96875 68.015625 50.6875 51.5625 
L 43.109375 49.3125 
Q 41.796875 55.171875 36.90625 58.171875 
Q 32.03125 61.1875 26.515625 61.1875 
Q 21.046875 61.1875 16.765625 58.296875 
Q 12.5 55.421875 12.5 50.140625 
Q 12.5 42.78125 23.34375 40.1875 
L 35.796875 37.203125 
Q 52.875 33.109375 52.875 18.796875 
Q 52.875 10.15625 46.453125 4.421875 
Q 40.046875 -1.3125 28.375 -1.3125 
Q 7.671875 -1.3125 1.03125 17.71875 
z
" id="FranklinGothic-Book-83"/>
       <path d="M 46.484375 0 
L 39.59375 0 
L 39.59375 9.421875 
Q 34.328125 -1.3125 23.875 -1.3125 
Q 16.3125 -1.3125 11.984375 3.65625 
Q 7.671875 8.640625 7.671875 17.828125 
L 7.671875 49.3125 
L 15.328125 49.3125 
L 15.328125 17.828125 
Q 15.328125 10.5 18.375 7.734375 
Q 21.4375 4.984375 25.09375 4.984375 
Q 28.8125 4.984375 31.8125 7.078125 
Q 34.8125 9.1875 36.8125 13.0625 
Q 38.8125 16.9375 38.8125 21.53125 
L 38.8125 49.3125 
L 46.484375 49.3125 
z
" id="FranklinGothic-Book-117"/>
       <path d="M 15.328125 0 
L 7.671875 0 
L 7.671875 49.3125 
L 14.40625 49.3125 
L 14.40625 37.796875 
Q 17.96875 45.953125 21.546875 48.359375 
Q 25.140625 50.78125 28.90625 50.78125 
Q 30.078125 50.78125 31.9375 50.59375 
L 31.9375 43.265625 
L 30.375 43.265625 
Q 24.03125 43.265625 19.828125 38.53125 
Q 15.625 33.796875 15.328125 26.078125 
z
" id="FranklinGothic-Book-114"/>
       <path d="M 36.8125 17.28125 
L 43.75 16.0625 
Q 42.28125 7.90625 37.25 3.296875 
Q 32.234375 -1.3125 24.703125 -1.3125 
Q 14.5 -1.3125 9.15625 6.203125 
Q 3.8125 13.71875 3.8125 24.5625 
Q 3.8125 35.796875 9.453125 43.234375 
Q 15.09375 50.6875 24.8125 50.6875 
Q 32.859375 50.6875 37.71875 45.875 
Q 42.578125 41.0625 43.75 33.453125 
L 36.8125 32.125 
Q 34.859375 44.34375 25 44.34375 
Q 18.65625 44.34375 15.234375 38.9375 
Q 11.8125 33.546875 11.8125 24.953125 
Q 11.8125 15.484375 15.203125 10.234375 
Q 18.609375 4.984375 24.75 4.984375 
Q 34.28125 4.984375 36.8125 17.28125 
z
" id="FranklinGothic-Book-99"/>
       <path d="M 40.234375 14.703125 
L 47.359375 13.234375 
Q 45.40625 6.9375 39.734375 2.8125 
Q 34.078125 -1.3125 26.421875 -1.3125 
Q 16.3125 -1.3125 10.0625 5.78125 
Q 3.8125 12.890625 3.8125 24.421875 
Q 3.8125 36.1875 10.296875 43.4375 
Q 16.796875 50.6875 26.609375 50.6875 
Q 36.28125 50.6875 42.15625 44 
Q 48.046875 37.3125 48.1875 23.96875 
L 12.359375 23.96875 
Q 12.359375 12.796875 17.046875 8.890625 
Q 21.734375 4.984375 26.953125 4.984375 
Q 36.375 4.984375 40.234375 14.703125 
z
M 39.796875 29.6875 
Q 39.703125 33.84375 38.421875 37.0625 
Q 37.15625 40.28125 34.125 42.546875 
Q 31.109375 44.828125 26.859375 44.828125 
Q 21.140625 44.828125 17.15625 40.71875 
Q 13.1875 36.625 12.703125 29.6875 
z
" id="FranklinGothic-Book-101"/>
       <path id="FranklinGothic-Book-32"/>
       <path d="M 46.1875 66.65625 
L 46.1875 0 
L 39.203125 0 
L 39.203125 8.453125 
Q 34.03125 -1.3125 23.640625 -1.3125 
Q 14.984375 -1.3125 9.421875 5.9375 
Q 3.859375 13.1875 3.859375 24.265625 
Q 3.859375 35.59375 9.375 43.140625 
Q 14.890625 50.6875 24.03125 50.6875 
Q 32.90625 50.6875 38.53125 42.578125 
L 38.53125 66.65625 
z
M 38.53125 30.28125 
Q 38.53125 36.765625 34.5625 40.671875 
Q 30.609375 44.578125 25.34375 44.578125 
Q 19.625 44.578125 15.9375 39.5 
Q 12.25 34.421875 12.25 25.25 
Q 12.25 15.328125 15.640625 10.15625 
Q 19.046875 4.984375 24.953125 4.984375 
Q 30.328125 4.984375 34.421875 9.46875 
Q 38.53125 13.96875 38.53125 20.015625 
z
" id="FranklinGothic-Book-100"/>
      </defs>
      <g style="fill:#696969;" transform="translate(197.902071 474.697825)rotate(-90)scale(0.16 -0.16)">
       <use xlink:href="#FranklinGothic-Book-83"/>
       <use x="56.933594" xlink:href="#FranklinGothic-Book-111"/>
       <use x="108.886719" xlink:href="#FranklinGothic-Book-117"/>
       <use x="163.037109" xlink:href="#FranklinGothic-Book-114"/>
       <use x="195.980469" xlink:href="#FranklinGothic-Book-99"/>
       <use x="242.5625" xlink:href="#FranklinGothic-Book-101"/>
       <use x="294.613281" xlink:href="#FranklinGothic-Book-32"/>
       <use x="319.613281" xlink:href="#FranklinGothic-Book-99"/>
       <use x="366.195312" xlink:href="#FranklinGothic-Book-111"/>
       <use x="418.148438" xlink:href="#FranklinGothic-Book-100"/>
       <use x="472.005859" xlink:href="#FranklinGothic-Book-101"/>
      </g>
     </g>
    </g>
    <g id="xtick_3">
     <g id="text_3">
      <!-- Input data -->
      <defs>
       <path d="M 16.703125 0 
L 8.34375 0 
L 8.34375 66.65625 
L 16.703125 66.65625 
z
" id="FranklinGothic-Book-73"/>
       <path d="M 46.53125 0 
L 39.359375 0 
L 39.359375 31.6875 
Q 39.359375 38.53125 36.375 41.3125 
Q 33.40625 44.09375 29.15625 44.09375 
Q 23.296875 44.09375 19.3125 39.40625 
Q 15.328125 34.71875 15.328125 27.046875 
L 15.328125 0 
L 7.671875 0 
L 7.671875 49.3125 
L 14.796875 49.3125 
L 14.796875 40.234375 
Q 20.796875 50.6875 30.375 50.6875 
Q 35.890625 50.6875 39.765625 47.828125 
Q 43.65625 44.96875 45.09375 41.40625 
Q 46.53125 37.84375 46.53125 28.515625 
z
" id="FranklinGothic-Book-110"/>
       <path d="M 15.328125 -16.65625 
L 7.671875 -16.65625 
L 7.671875 49.3125 
L 14.546875 49.3125 
L 14.546875 39.75 
Q 19.78125 50.6875 30.125 50.6875 
Q 38.875 50.6875 44.234375 43.375 
Q 49.609375 36.078125 49.609375 24.90625 
Q 49.609375 12.84375 44.09375 5.765625 
Q 38.578125 -1.3125 29.9375 -1.3125 
Q 20.65625 -1.3125 15.328125 7.515625 
z
M 15.328125 31.78125 
L 15.328125 17.921875 
Q 16.0625 12.3125 20.0625 8.640625 
Q 24.078125 4.984375 28.421875 4.984375 
Q 33.453125 4.984375 37.328125 9.375 
Q 41.21875 13.765625 41.21875 24.5625 
Q 41.21875 33.890625 37.703125 38.9375 
Q 34.1875 44 28.375 44 
Q 23.78125 44 20.140625 40.421875 
Q 16.5 36.859375 15.328125 31.78125 
z
" id="FranklinGothic-Book-112"/>
      </defs>
      <g style="fill:#696969;" transform="translate(298.395 460.115325)rotate(-90)scale(0.16 -0.16)">
       <use xlink:href="#FranklinGothic-Book-73"/>
       <use x="25" xlink:href="#FranklinGothic-Book-110"/>
       <use x="79.183594" xlink:href="#FranklinGothic-Book-112"/>
       <use x="132.601562" xlink:href="#FranklinGothic-Book-117"/>
       <use x="186.751953" xlink:href="#FranklinGothic-Book-116"/>
       <use x="217.513672" xlink:href="#FranklinGothic-Book-32"/>
       <use x="242.513672" xlink:href="#FranklinGothic-Book-100"/>
       <use x="296.371094" xlink:href="#FranklinGothic-Book-97"/>
       <use x="349.251953" xlink:href="#FranklinGothic-Book-116"/>
       <use x="380.013672" xlink:href="#FranklinGothic-Book-97"/>
      </g>
     </g>
    </g>
    <g id="xtick_4">
     <g id="text_4">
      <!-- Result data -->
      <defs>
       <path d="M 56.296875 0 
L 47.5625 0 
L 35.25 28.859375 
L 16.15625 28.859375 
L 16.15625 0 
L 8.34375 0 
L 8.34375 66.65625 
L 34.625 66.65625 
Q 45.3125 66.65625 50.453125 60.8125 
Q 55.609375 54.984375 55.609375 48.046875 
Q 55.609375 42.71875 52.734375 37.828125 
Q 49.859375 32.953125 43.21875 30.859375 
z
M 16.15625 35.640625 
L 33.59375 35.640625 
Q 40.484375 35.640625 43.875 39.28125 
Q 47.265625 42.921875 47.265625 48.1875 
Q 47.265625 53.46875 43.671875 56.390625 
Q 40.09375 59.328125 34.625 59.328125 
L 16.15625 59.328125 
z
" id="FranklinGothic-Book-82"/>
       <path d="M 1.03125 12.796875 
L 8.34375 14.3125 
Q 10.796875 4.984375 23.78125 4.984375 
Q 28.5625 4.984375 31.875 7.125 
Q 35.203125 9.28125 35.203125 13.1875 
Q 35.203125 19 26.765625 20.5625 
L 16.359375 22.515625 
Q 10.25 23.6875 6.640625 27.09375 
Q 3.03125 30.515625 3.03125 36.140625 
Q 3.03125 42.328125 7.953125 46.5 
Q 12.890625 50.6875 21.234375 50.6875 
Q 37.3125 50.6875 41.0625 38.140625 
L 34.03125 36.625 
Q 31 44.34375 21.578125 44.34375 
Q 16.890625 44.34375 13.890625 42.40625 
Q 10.890625 40.484375 10.890625 37.015625 
Q 10.890625 31.546875 18.5625 30.125 
L 28.171875 28.421875 
Q 43.265625 25.6875 43.265625 13.8125 
Q 43.265625 7.03125 37.640625 2.859375 
Q 32.03125 -1.3125 22.703125 -1.3125 
Q 5.171875 -1.3125 1.03125 12.796875 
z
" id="FranklinGothic-Book-115"/>
      </defs>
      <g style="fill:#696969;" transform="translate(398.887929 468.130325)rotate(-90)scale(0.16 -0.16)">
       <use xlink:href="#FranklinGothic-Book-82"/>
       <use x="61.263672" xlink:href="#FranklinGothic-Book-101"/>
       <use x="113.314453" xlink:href="#FranklinGothic-Book-115"/>
       <use x="159.701172" xlink:href="#FranklinGothic-Book-117"/>
       <use x="213.851562" xlink:href="#FranklinGothic-Book-108"/>
       <use x="236.849609" xlink:href="#FranklinGothic-Book-116"/>
       <use x="267.611328" xlink:href="#FranklinGothic-Book-32"/>
       <use x="292.611328" xlink:href="#FranklinGothic-Book-100"/>
       <use x="346.46875" xlink:href="#FranklinGothic-Book-97"/>
       <use x="399.349609" xlink:href="#FranklinGothic-Book-116"/>
       <use x="430.111328" xlink:href="#FranklinGothic-Book-97"/>
      </g>
     </g>
    </g>
    <g id="xtick_5">
     <g id="text_5">
      <!-- Executable -->
      <defs>
       <path d="M 51.46875 7.328125 
L 51.46875 0 
L 8.34375 0 
L 8.34375 66.65625 
L 50.53125 66.65625 
L 50.53125 59.328125 
L 16.703125 59.328125 
L 16.703125 38.140625 
L 43.5625 38.140625 
L 43.5625 31.34375 
L 16.703125 31.34375 
L 16.703125 7.328125 
z
" id="FranklinGothic-Book-69"/>
       <path d="M 42.046875 0 
L 33.203125 0 
L 20.65625 20.015625 
L 7.8125 0 
L 0.34375 0 
L 16.9375 25.59375 
L 1.953125 49.3125 
L 10.796875 49.3125 
L 21.34375 32.46875 
L 32.078125 49.3125 
L 39.453125 49.3125 
L 25.09375 27.25 
z
" id="FranklinGothic-Book-120"/>
       <path d="M 11.375 0 
L 7.671875 0 
L 7.671875 66.65625 
L 15.328125 66.65625 
L 15.328125 41.109375 
Q 20.609375 50.6875 29.890625 50.6875 
Q 38.375 50.6875 44.109375 44 
Q 49.859375 37.3125 49.859375 24.5625 
Q 49.859375 13.578125 44.21875 6.125 
Q 38.578125 -1.3125 29.546875 -1.3125 
Q 19.484375 -1.3125 14.109375 8.15625 
z
M 15.328125 19.34375 
Q 15.875 11.765625 20 8.34375 
Q 24.125 4.9375 28.71875 4.9375 
Q 34.578125 4.9375 38.15625 10.015625 
Q 41.75 15.09375 41.75 23.921875 
Q 41.75 33.453125 38.28125 38.890625 
Q 34.8125 44.34375 28.65625 44.34375 
Q 23.828125 44.34375 19.9375 40.453125 
Q 16.0625 36.578125 15.328125 30.421875 
z
" id="FranklinGothic-Book-98"/>
      </defs>
      <g style="fill:#696969;" transform="translate(499.380859 464.825325)rotate(-90)scale(0.16 -0.16)">
       <use xlink:href="#FranklinGothic-Book-69"/>
       <use x="54.785156" xlink:href="#FranklinGothic-Book-120"/>
       <use x="97.152344" xlink:href="#FranklinGothic-Book-101"/>
       <use x="149.203125" xlink:href="#FranklinGothic-Book-99"/>
       <use x="195.785156" xlink:href="#FranklinGothic-Book-117"/>
       <use x="249.935547" xlink:href="#FranklinGothic-Book-116"/>
       <use x="280.697266" xlink:href="#FranklinGothic-Book-97"/>
       <use x="333.578125" xlink:href="#FranklinGothic-Book-98"/>
       <use x="387.289062" xlink:href="#FranklinGothic-Book-108"/>
       <use x="410.287109" xlink:href="#FranklinGothic-Book-101"/>
      </g>
     </g>
    </g>
   </g>
   <g id="matplotlib.axis_2">
    <g id="ytick_1">
     <g id="line2d_1">
      <path clip-path="url(#p14d0bebee9)" d="M 45.675 381.350325 
L 543.115 381.350325 
" style="fill:none;stroke:#eeeeee;stroke-linecap:round;"/>
     </g>
     <g id="text_6">
      <!-- 0 -->
      <defs>
       <path d="M 29.390625 -1.3125 
Q 17.875 -1.3125 10.984375 8.671875 
Q 4.109375 18.65625 4.109375 33.453125 
Q 4.109375 48 10.640625 58 
Q 17.1875 68.015625 29.15625 68.015625 
Q 41.65625 68.015625 48.125 57.5625 
Q 54.59375 47.125 54.59375 33.0625 
Q 54.59375 19.28125 47.953125 8.984375 
Q 41.3125 -1.3125 29.390625 -1.3125 
z
M 29.4375 5.21875 
Q 37.890625 5.21875 41.9375 12.859375 
Q 46 20.515625 46 32.078125 
Q 46 44.734375 41.84375 53.125 
Q 37.703125 61.53125 29.046875 61.53125 
Q 20.703125 61.53125 16.625 53.859375 
Q 12.546875 46.1875 12.546875 33.6875 
Q 12.546875 20.703125 16.84375 12.953125 
Q 21.140625 5.21875 29.4375 5.21875 
z
" id="FranklinGothic-Book-48"/>
      </defs>
      <g style="fill:#696969;" transform="translate(26.7925 386.682825)scale(0.16 -0.16)">
       <use xlink:href="#FranklinGothic-Book-48"/>
      </g>
     </g>
    </g>
    <g id="ytick_2">
     <g id="line2d_2">
      <path clip-path="url(#p14d0bebee9)" d="M 45.675 252.71642 
L 543.115 252.71642 
" style="fill:none;stroke:#eeeeee;stroke-linecap:round;"/>
     </g>
     <g id="text_7">
      <!-- 2 -->
      <defs>
       <path d="M 52.484375 6.9375 
L 52.484375 0 
L 5.171875 0 
L 5.171875 6.9375 
Q 33.203125 27.9375 38.59375 34.59375 
Q 44 41.265625 44 47.796875 
Q 44 53.90625 39.453125 57.65625 
Q 34.90625 61.421875 29 61.421875 
Q 22.90625 61.421875 18.21875 57.296875 
Q 13.53125 53.171875 12.9375 46.09375 
L 5.171875 48.4375 
Q 10.0625 68.015625 29.109375 68.015625 
Q 39.40625 68.015625 45.84375 62.15625 
Q 52.296875 56.296875 52.296875 47.859375 
Q 52.296875 42.046875 49.234375 36.671875 
Q 46.1875 31.296875 37.6875 23.828125 
Q 29.203125 16.359375 15.71875 6.9375 
z
" id="FranklinGothic-Book-50"/>
      </defs>
      <g style="fill:#696969;" transform="translate(26.7925 258.04892)scale(0.16 -0.16)">
       <use xlink:href="#FranklinGothic-Book-50"/>
      </g>
     </g>
    </g>
    <g id="ytick_3">
     <g id="line2d_3">
      <path clip-path="url(#p14d0bebee9)" d="M 45.675 124.082515 
L 543.115 124.082515 
" style="fill:none;stroke:#eeeeee;stroke-linecap:round;"/>
     </g>
     <g id="text_8">
      <!-- 4 -->
      <defs>
       <path d="M 44.09375 0 
L 36.03125 0 
L 36.03125 15.875 
L 3.078125 15.875 
L 3.078125 21.484375 
L 33.640625 68.0625 
L 44.09375 68.0625 
L 44.09375 22.46875 
L 54.890625 22.46875 
L 54.890625 15.875 
L 44.09375 15.875 
z
M 36.03125 22.46875 
L 36.03125 54 
Q 36.03125 57.421875 36.1875 61.375 
Q 34.078125 57.515625 32.5625 55.125 
L 11.765625 22.46875 
z
" id="FranklinGothic-Book-52"/>
      </defs>
      <g style="fill:#696969;" transform="translate(26.7925 129.415015)scale(0.16 -0.16)">
       <use xlink:href="#FranklinGothic-Book-52"/>
      </g>
     </g>
    </g>
    <g id="text_9">
     <!-- Number of studies suggesting -->
     <defs>
      <path d="M 57.421875 0 
L 49.3125 0 
L 14.84375 58.109375 
L 14.9375 53.71875 
Q 15.09375 51.21875 15.09375 49.515625 
L 15.09375 0 
L 8.34375 0 
L 8.34375 66.65625 
L 18.796875 66.65625 
L 51.03125 12.3125 
L 50.921875 16.9375 
Q 50.828125 19.671875 50.828125 21.78125 
L 50.828125 66.65625 
L 57.421875 66.65625 
z
" id="FranklinGothic-Book-78"/>
      <path d="M 73.734375 0 
L 66.265625 0 
L 66.265625 30.671875 
Q 66.265625 35.40625 65.59375 37.765625 
Q 64.9375 40.140625 62.390625 42.109375 
Q 59.859375 44.09375 56.6875 44.09375 
Q 52.296875 44.09375 48.21875 40.0625 
Q 44.140625 36.03125 44.140625 27.78125 
L 44.140625 0 
L 36.71875 0 
L 36.71875 32.46875 
Q 36.71875 38.96875 33.609375 41.65625 
Q 30.515625 44.34375 27.09375 44.34375 
Q 22.21875 44.34375 18.59375 40.140625 
Q 14.984375 35.9375 14.984375 29.5 
L 14.984375 0 
L 7.671875 0 
L 7.671875 49.3125 
L 14.265625 49.3125 
L 14.265625 39.84375 
Q 19.78125 50.6875 29.4375 50.6875 
Q 34.765625 50.6875 38.46875 47.21875 
Q 42.1875 43.75 43.265625 38.875 
Q 48.34375 50.6875 58.84375 50.6875 
Q 63.875 50.6875 67.65625 47.796875 
Q 71.4375 44.921875 72.578125 41.1875 
Q 73.734375 37.453125 73.734375 30.671875 
z
" id="FranklinGothic-Book-109"/>
      <path d="M 28.125 49.3125 
L 28.125 43.3125 
L 16.40625 43.3125 
L 16.40625 0 
L 8.734375 0 
L 8.734375 43.3125 
L 0.34375 43.3125 
L 0.34375 49.3125 
L 8.734375 49.3125 
Q 8.9375 61.1875 13.296875 64.59375 
Q 17.671875 68.015625 23.96875 68.015625 
Q 27.046875 68.015625 31 67.328125 
L 31 61.234375 
Q 28.515625 61.859375 26.265625 61.859375 
Q 21.234375 61.859375 18.8125 59.640625 
Q 16.40625 57.421875 16.40625 51.3125 
L 16.40625 49.3125 
z
" id="FranklinGothic-Book-102"/>
      <path d="M 15.578125 66.65625 
L 15.578125 58.15625 
L 7.328125 58.15625 
L 7.328125 66.65625 
z
M 15.328125 49.3125 
L 15.328125 0 
L 7.671875 0 
L 7.671875 49.3125 
z
" id="FranklinGothic-Book-105"/>
      <path d="M 47.953125 57.03125 
L 47.953125 50.921875 
Q 42.671875 50.921875 40.890625 49.703125 
Q 39.109375 48.484375 38.53125 45.3125 
Q 43.265625 39.84375 43.265625 33.40625 
Q 43.265625 26.65625 38.109375 21.828125 
Q 32.953125 17 24.265625 17 
Q 22.3125 17 20.90625 17.28125 
Q 18.21875 17.828125 17.53125 17.828125 
Q 16.21875 17.828125 14.359375 16.53125 
Q 12.5 15.234375 12.5 13.1875 
Q 12.5 10.25 15.1875 9.375 
Q 17.875 8.5 27.828125 8.25 
Q 36.28125 8.015625 40.3125 7.109375 
Q 44.34375 6.203125 47.125 3.09375 
Q 49.90625 0 49.90625 -4.5 
Q 49.90625 -18.609375 25.09375 -18.609375 
Q 13.328125 -18.609375 7.9375 -15.0625 
Q 2.546875 -11.53125 2.546875 -5.609375 
Q 2.546875 1.5625 10.0625 4.25 
Q 5.21875 7.421875 5.21875 12.203125 
Q 5.21875 17.921875 12.0625 20.953125 
Q 5.671875 26.125 5.671875 33.984375 
Q 5.671875 41.3125 11.140625 46 
Q 16.609375 50.6875 24.46875 50.6875 
Q 30.03125 50.6875 34.578125 48.578125 
Q 35.296875 53.421875 37.953125 55.265625 
Q 40.625 57.125 46.046875 57.125 
Q 46.578125 57.125 47.953125 57.03125 
z
M 24.515625 22.859375 
Q 29.390625 22.859375 32.46875 25.859375 
Q 35.546875 28.859375 35.546875 33.640625 
Q 35.546875 38.53125 32.34375 41.625 
Q 29.15625 44.734375 24.609375 44.734375 
Q 20.265625 44.734375 16.890625 41.828125 
Q 13.53125 38.921875 13.53125 33.546875 
Q 13.53125 28.765625 16.546875 25.8125 
Q 19.578125 22.859375 24.515625 22.859375 
z
M 15.328125 2 
Q 9.96875 -0.34375 9.96875 -4.78125 
Q 9.96875 -8.546875 14.375 -10.625 
Q 18.796875 -12.703125 25.640625 -12.703125 
Q 31.984375 -12.703125 37.25 -10.90625 
Q 42.53125 -9.125 42.53125 -4.890625 
Q 42.53125 -2.59375 40.96875 -1.125 
Q 39.40625 0.34375 36.6875 0.734375 
Q 33.984375 1.125 27.25 1.3125 
Q 19.1875 1.515625 15.328125 2 
z
" id="FranklinGothic-Book-103"/>
     </defs>
     <g style="fill:#696969;" transform="translate(19.442813 325.717231)rotate(-90)scale(0.18 -0.18)">
      <use xlink:href="#FranklinGothic-Book-78"/>
      <use x="65.722656" xlink:href="#FranklinGothic-Book-117"/>
      <use x="119.873047" xlink:href="#FranklinGothic-Book-109"/>
      <use x="201.269531" xlink:href="#FranklinGothic-Book-98"/>
      <use x="254.980469" xlink:href="#FranklinGothic-Book-101"/>
      <use x="307.03125" xlink:href="#FranklinGothic-Book-114"/>
      <use x="339.990234" xlink:href="#FranklinGothic-Book-32"/>
      <use x="364.990234" xlink:href="#FranklinGothic-Book-111"/>
      <use x="416.943359" xlink:href="#FranklinGothic-Book-102"/>
      <use x="446.923828" xlink:href="#FranklinGothic-Book-32"/>
      <use x="471.923828" xlink:href="#FranklinGothic-Book-115"/>
      <use x="518.310547" xlink:href="#FranklinGothic-Book-116"/>
      <use x="549.072266" xlink:href="#FranklinGothic-Book-117"/>
      <use x="603.222656" xlink:href="#FranklinGothic-Book-100"/>
      <use x="657.080078" xlink:href="#FranklinGothic-Book-105"/>
      <use x="680.029297" xlink:href="#FranklinGothic-Book-101"/>
      <use x="732.080078" xlink:href="#FranklinGothic-Book-115"/>
      <use x="778.466797" xlink:href="#FranklinGothic-Book-32"/>
      <use x="803.466797" xlink:href="#FranklinGothic-Book-115"/>
      <use x="849.853516" xlink:href="#FranklinGothic-Book-117"/>
      <use x="904.003906" xlink:href="#FranklinGothic-Book-103"/>
      <use x="953.125" xlink:href="#FranklinGothic-Book-103"/>
      <use x="1002.246094" xlink:href="#FranklinGothic-Book-101"/>
      <use x="1054.296875" xlink:href="#FranklinGothic-Book-115"/>
      <use x="1100.683594" xlink:href="#FranklinGothic-Book-116"/>
      <use x="1131.445312" xlink:href="#FranklinGothic-Book-105"/>
      <use x="1154.394531" xlink:href="#FranklinGothic-Book-110"/>
      <use x="1208.59375" xlink:href="#FranklinGothic-Book-103"/>
     </g>
    </g>
   </g>
   <g id="patch_3">
    <path clip-path="url(#p14d0bebee9)" d="M 68.285909 381.350325 
L 118.532374 381.350325 
L 118.532374 59.765563 
L 68.285909 59.765563 
z
" style="fill:#2563eb;stroke:#ffffff;stroke-linejoin:miter;"/>
   </g>
   <g id="patch_4">
    <path clip-path="url(#p14d0bebee9)" d="M 168.778838 381.350325 
L 219.025303 381.350325 
L 219.025303 59.765563 
L 168.778838 59.765563 
z
" style="fill:#2563eb;stroke:#ffffff;stroke-linejoin:miter;"/>
   </g>
   <g id="patch_5">
    <path clip-path="url(#p14d0bebee9)" d="M 269.271768 381.350325 
L 319.518232 381.350325 
L 319.518232 317.033373 
L 269.271768 317.033373 
z
" style="fill:#2563eb;stroke:#ffffff;stroke-linejoin:miter;"/>
   </g>
   <g id="patch_6">
    <path clip-path="url(#p14d0bebee9)" d="M 369.764697 381.350325 
L 420.011162 381.350325 
L 420.011162 317.033373 
L 369.764697 317.033373 
z
" style="fill:#2563eb;stroke:#ffffff;stroke-linejoin:miter;"/>
   </g>
   <g id="patch_7">
    <path clip-path="url(#p14d0bebee9)" d="M 470.257626 381.350325 
L 520.504091 381.350325 
L 520.504091 317.033373 
L 470.257626 317.033373 
z
" style="fill:#2563eb;stroke:#ffffff;stroke-linejoin:miter;"/>
   </g>
   <g id="patch_8">
    <path d="M 45.675 381.350325 
L 543.115 381.350325 
" style="fill:none;stroke:#d3d3d3;stroke-linecap:square;stroke-linejoin:miter;stroke-width:1.25;"/>
   </g>
   <g id="text_10">
    <!-- 5 -->
    <defs>
     <path d="M 48.875 66.65625 
L 48.1875 59.46875 
L 15.4375 59.46875 
L 14.015625 37.84375 
Q 21.4375 45.125 30.328125 45.125 
Q 39.703125 45.125 46.515625 38.625 
Q 53.328125 32.125 53.328125 22.015625 
Q 53.328125 11.765625 45.921875 5.21875 
Q 38.53125 -1.3125 27.828125 -1.3125 
Q 19.4375 -1.3125 12.890625 3.078125 
Q 6.34375 7.46875 4.296875 14.453125 
L 11.421875 16.890625 
Q 15.828125 5.28125 27.9375 5.28125 
Q 35.890625 5.28125 40.578125 9.984375 
Q 45.265625 14.703125 45.265625 22.015625 
Q 45.265625 29.6875 40.625 33.984375 
Q 35.984375 38.28125 29.5 38.28125 
Q 20.015625 38.28125 13.8125 29.203125 
L 7.234375 30.609375 
L 9.375 66.65625 
z
" id="FranklinGothic-Book-53"/>
    </defs>
    <g style="fill:#696969;" transform="translate(88.717891 53.333868)scale(0.16 -0.16)">
     <use xlink:href="#FranklinGothic-Book-53"/>
    </g>
   </g>
   <g id="text_11">
    <!-- 5 -->
    <g style="fill:#696969;" transform="translate(189.210821 53.333868)scale(0.16 -0.16)">
     <use xlink:href="#FranklinGothic-Book-53"/>
    </g>
   </g>
   <g id="text_12">
    <!-- 1 -->
    <defs>
     <path d="M 55.859375 6.203125 
L 55.859375 0 
L 9.1875 0 
L 9.1875 6.203125 
L 29.203125 6.203125 
L 29.203125 57.671875 
Q 20.359375 48.4375 10.84375 43.265625 
L 10.84375 51.65625 
Q 23.96875 58.546875 31.203125 68.015625 
L 37.15625 68.015625 
L 37.15625 6.203125 
z
" id="FranklinGothic-Book-49"/>
    </defs>
    <g style="fill:#696969;" transform="translate(289.70375 310.601677)scale(0.16 -0.16)">
     <use xlink:href="#FranklinGothic-Book-49"/>
    </g>
   </g>
   <g id="text_13">
    <!-- 1 -->
    <g style="fill:#696969;" transform="translate(390.196679 310.601677)scale(0.16 -0.16)">
     <use xlink:href="#FranklinGothic-Book-49"/>
    </g>
   </g>
   <g id="text_14">
    <!-- 1 -->
    <g style="fill:#696969;" transform="translate(490.689609 310.601677)scale(0.16 -0.16)">
     <use xlink:href="#FranklinGothic-Book-49"/>
    </g>
   </g>
   <g id="text_15">
    <!-- Files suggested to be shared for a research software -->
    <defs>
     <path d="M 16.703125 0 
L 8.34375 0 
L 8.34375 66.65625 
L 49.171875 66.65625 
L 49.171875 59.328125 
L 16.703125 59.328125 
L 16.703125 38.28125 
L 43.609375 38.28125 
L 43.609375 31.546875 
L 16.703125 31.546875 
z
" id="FranklinGothic-Book-70"/>
     <path d="M 46.34375 0 
L 38.671875 0 
L 38.671875 29.9375 
Q 38.671875 35.203125 38.015625 37.84375 
Q 37.359375 40.484375 34.890625 42.40625 
Q 32.421875 44.34375 29.203125 44.34375 
Q 23.296875 44.34375 19.3125 39.5 
Q 15.328125 34.671875 15.328125 26.5625 
L 15.328125 0 
L 7.671875 0 
L 7.671875 66.65625 
L 15.328125 66.65625 
L 15.328125 40.234375 
Q 20.5625 50.6875 30.28125 50.6875 
Q 34.625 50.6875 38.015625 48.96875 
Q 41.40625 47.265625 43.203125 44.484375 
Q 45.015625 41.703125 45.671875 38.984375 
Q 46.34375 36.28125 46.34375 29.9375 
z
" id="FranklinGothic-Book-104"/>
     <path d="M 64.5 49.3125 
L 50.296875 0 
L 44.09375 0 
L 33.0625 36.625 
L 22.953125 0 
L 16.65625 0 
L 1.859375 49.3125 
L 9.578125 49.3125 
L 20.265625 12.546875 
L 30.515625 49.3125 
L 36.140625 49.3125 
L 47.21875 12.40625 
L 58.296875 49.3125 
z
" id="FranklinGothic-Book-119"/>
    </defs>
    <g style="fill:#333333;" transform="translate(73.334062 20.803125)scale(0.2 -0.2)">
     <use xlink:href="#FranklinGothic-Book-70"/>
     <use x="50.78125" xlink:href="#FranklinGothic-Book-105"/>
     <use x="73.730469" xlink:href="#FranklinGothic-Book-108"/>
     <use x="96.728516" xlink:href="#FranklinGothic-Book-101"/>
     <use x="148.779297" xlink:href="#FranklinGothic-Book-115"/>
     <use x="195.166016" xlink:href="#FranklinGothic-Book-32"/>
     <use x="220.166016" xlink:href="#FranklinGothic-Book-115"/>
     <use x="266.552734" xlink:href="#FranklinGothic-Book-117"/>
     <use x="320.703125" xlink:href="#FranklinGothic-Book-103"/>
     <use x="369.824219" xlink:href="#FranklinGothic-Book-103"/>
     <use x="418.945312" xlink:href="#FranklinGothic-Book-101"/>
     <use x="470.996094" xlink:href="#FranklinGothic-Book-115"/>
     <use x="517.382812" xlink:href="#FranklinGothic-Book-116"/>
     <use x="548.128906" xlink:href="#FranklinGothic-Book-101"/>
     <use x="600.179688" xlink:href="#FranklinGothic-Book-100"/>
     <use x="654.037109" xlink:href="#FranklinGothic-Book-32"/>
     <use x="679.037109" xlink:href="#FranklinGothic-Book-116"/>
     <use x="709.783203" xlink:href="#FranklinGothic-Book-111"/>
     <use x="761.736328" xlink:href="#FranklinGothic-Book-32"/>
     <use x="786.736328" xlink:href="#FranklinGothic-Book-98"/>
     <use x="840.447266" xlink:href="#FranklinGothic-Book-101"/>
     <use x="892.498047" xlink:href="#FranklinGothic-Book-32"/>
     <use x="917.498047" xlink:href="#FranklinGothic-Book-115"/>
     <use x="963.884766" xlink:href="#FranklinGothic-Book-104"/>
     <use x="1017.888672" xlink:href="#FranklinGothic-Book-97"/>
     <use x="1070.769531" xlink:href="#FranklinGothic-Book-114"/>
     <use x="1103.728516" xlink:href="#FranklinGothic-Book-101"/>
     <use x="1155.779297" xlink:href="#FranklinGothic-Book-100"/>
     <use x="1209.636719" xlink:href="#FranklinGothic-Book-32"/>
     <use x="1234.636719" xlink:href="#FranklinGothic-Book-102"/>
     <use x="1264.585938" xlink:href="#FranklinGothic-Book-111"/>
     <use x="1316.539062" xlink:href="#FranklinGothic-Book-114"/>
     <use x="1349.498047" xlink:href="#FranklinGothic-Book-32"/>
     <use x="1374.498047" xlink:href="#FranklinGothic-Book-97"/>
     <use x="1427.378906" xlink:href="#FranklinGothic-Book-32"/>
     <use x="1452.378906" xlink:href="#FranklinGothic-Book-114"/>
     <use x="1485.337891" xlink:href="#FranklinGothic-Book-101"/>
     <use x="1537.388672" xlink:href="#FranklinGothic-Book-115"/>
     <use x="1583.775391" xlink:href="#FranklinGothic-Book-101"/>
     <use x="1635.826172" xlink:href="#FranklinGothic-Book-97"/>
     <use x="1688.707031" xlink:href="#FranklinGothic-Book-114"/>
     <use x="1721.650391" xlink:href="#FranklinGothic-Book-99"/>
     <use x="1768.232422" xlink:href="#FranklinGothic-Book-104"/>
     <use x="1822.236328" xlink:href="#FranklinGothic-Book-32"/>
     <use x="1847.236328" xlink:href="#FranklinGothic-Book-115"/>
     <use x="1893.623047" xlink:href="#FranklinGothic-Book-111"/>
     <use x="1945.576172" xlink:href="#FranklinGothic-Book-102"/>
     <use x="1975.587891" xlink:href="#FranklinGothic-Book-116"/>
     <use x="2006.349609" xlink:href="#FranklinGothic-Book-119"/>
     <use x="2072.740234" xlink:href="#FranklinGothic-Book-97"/>
     <use x="2125.621094" xlink:href="#FranklinGothic-Book-114"/>
     <use x="2158.580078" xlink:href="#FranklinGothic-Book-101"/>
    </g>
   </g>
  </g>
 </g>
 <defs>
  <clipPath id="p14d0bebee9">
   <rect height="337.664" width="497.44" x="45.675" y="43.686325"/>
  </clipPath>
 </defs>
</svg>
