<?xml version="1.0" encoding="utf-8" standalone="no"?>
<!DOCTYPE svg PUBLIC "-//W3C//DTD SVG 1.1//EN"
  "http://www.w3.org/Graphics/SVG/1.1/DTD/svg11.dtd">
<!-- Created with matplotlib (https://matplotlib.org/) -->
<svg height="481.525675pt" version="1.1" viewBox="0 0 557.20375 481.525675" width="557.20375pt" xmlns="http://www.w3.org/2000/svg" xmlns:xlink="http://www.w3.org/1999/xlink">
 <defs>
  <style type="text/css">
*{stroke-linecap:butt;stroke-linejoin:round;}
  </style>
 </defs>
 <g id="figure_1">
  <g id="patch_1">
   <path d="M 0 481.525675 
L 557.20375 481.525675 
L 557.20375 0 
L 0 0 
z
" style="fill:#ffffff;"/>
  </g>
  <g id="axes_1">
   <g id="patch_2">
    <path d="M 55.32375 385.138175 
L 544.00375 385.138175 
L 544.00375 43.932175 
L 55.32375 43.932175 
z
" style="fill:none;"/>
   </g>
   <g id="matplotlib.axis_1">
    <g id="xtick_1">
     <g id="text_1">
      <!-- Total -->
      <defs>
       <path d="M 48 59.578125 
Q 48 58.640625 47.890625 57.953125 
Q 47.796875 57.28125 47.578125 56.859375 
Q 47.359375 56.453125 47.046875 56.25 
Q 46.734375 56.0625 46.34375 56.0625 
L 28.5625 56.0625 
L 28.5625 1.265625 
Q 28.5625 0.875 28.359375 0.578125 
Q 28.171875 0.296875 27.6875 0.125 
Q 27.203125 -0.046875 26.390625 -0.171875 
Q 25.59375 -0.296875 24.359375 -0.296875 
Q 23.1875 -0.296875 22.359375 -0.171875 
Q 21.53125 -0.046875 21.046875 0.125 
Q 20.5625 0.296875 20.359375 0.578125 
Q 20.171875 0.875 20.171875 1.265625 
L 20.171875 56.0625 
L 2.390625 56.0625 
Q 2 56.0625 1.6875 56.25 
Q 1.375 56.453125 1.171875 56.859375 
Q 0.984375 57.28125 0.859375 57.953125 
Q 0.734375 58.640625 0.734375 59.578125 
Q 0.734375 60.5 0.859375 61.203125 
Q 0.984375 61.921875 1.171875 62.359375 
Q 1.375 62.796875 1.6875 62.984375 
Q 2 63.1875 2.390625 63.1875 
L 46.34375 63.1875 
Q 46.734375 63.1875 47.046875 62.984375 
Q 47.359375 62.796875 47.578125 62.359375 
Q 47.796875 61.921875 47.890625 61.203125 
Q 48 60.5 48 59.578125 
z
" id="Calibri-84"/>
       <path d="M 48.34375 23.6875 
Q 48.34375 18.3125 46.921875 13.796875 
Q 45.515625 9.28125 42.703125 6 
Q 39.890625 2.734375 35.671875 0.90625 
Q 31.453125 -0.921875 25.875 -0.921875 
Q 20.453125 -0.921875 16.421875 0.6875 
Q 12.40625 2.296875 9.71875 5.375 
Q 7.03125 8.453125 5.703125 12.84375 
Q 4.390625 17.234375 4.390625 22.796875 
Q 4.390625 28.171875 5.78125 32.6875 
Q 7.171875 37.203125 9.984375 40.46875 
Q 12.796875 43.75 16.984375 45.546875 
Q 21.1875 47.359375 26.8125 47.359375 
Q 32.234375 47.359375 36.25 45.75 
Q 40.28125 44.140625 42.96875 41.0625 
Q 45.65625 37.984375 47 33.59375 
Q 48.34375 29.203125 48.34375 23.6875 
z
M 39.84375 23.140625 
Q 39.84375 26.703125 39.1875 29.875 
Q 38.53125 33.0625 37.015625 35.453125 
Q 35.5 37.84375 32.90625 39.234375 
Q 30.328125 40.625 26.46875 40.625 
Q 22.90625 40.625 20.34375 39.359375 
Q 17.78125 38.09375 16.109375 35.765625 
Q 14.453125 33.453125 13.640625 30.265625 
Q 12.84375 27.09375 12.84375 23.34375 
Q 12.84375 19.734375 13.5 16.546875 
Q 14.15625 13.375 15.6875 11 
Q 17.234375 8.640625 19.8125 7.25 
Q 22.40625 5.859375 26.265625 5.859375 
Q 29.78125 5.859375 32.375 7.125 
Q 34.96875 8.40625 36.625 10.6875 
Q 38.28125 12.984375 39.0625 16.15625 
Q 39.84375 19.34375 39.84375 23.140625 
z
" id="Calibri-111"/>
       <path d="M 30.328125 4.4375 
Q 30.328125 3.03125 30.125 2.203125 
Q 29.9375 1.375 29.546875 0.984375 
Q 29.15625 0.59375 28.375 0.25 
Q 27.59375 -0.09375 26.59375 -0.3125 
Q 25.59375 -0.53125 24.46875 -0.671875 
Q 23.34375 -0.828125 22.21875 -0.828125 
Q 18.796875 -0.828125 16.359375 0.078125 
Q 13.921875 0.984375 12.359375 2.8125 
Q 10.796875 4.640625 10.078125 7.4375 
Q 9.375 10.25 9.375 14.0625 
L 9.375 39.75 
L 3.21875 39.75 
Q 2.484375 39.75 2.046875 40.53125 
Q 1.609375 41.3125 1.609375 43.0625 
Q 1.609375 44 1.734375 44.625 
Q 1.859375 45.265625 2.046875 45.671875 
Q 2.25 46.09375 2.5625 46.265625 
Q 2.875 46.4375 3.265625 46.4375 
L 9.375 46.4375 
L 9.375 56.890625 
Q 9.375 57.234375 9.546875 57.515625 
Q 9.71875 57.8125 10.171875 58.03125 
Q 10.640625 58.25 11.421875 58.34375 
Q 12.203125 58.453125 13.375 58.453125 
Q 14.59375 58.453125 15.375 58.34375 
Q 16.15625 58.25 16.59375 58.03125 
Q 17.046875 57.8125 17.234375 57.515625 
Q 17.4375 57.234375 17.4375 56.890625 
L 17.4375 46.4375 
L 28.71875 46.4375 
Q 29.109375 46.4375 29.390625 46.265625 
Q 29.6875 46.09375 29.90625 45.671875 
Q 30.125 45.265625 30.21875 44.625 
Q 30.328125 44 30.328125 43.0625 
Q 30.328125 41.3125 29.875 40.53125 
Q 29.4375 39.75 28.71875 39.75 
L 17.4375 39.75 
L 17.4375 15.234375 
Q 17.4375 10.6875 18.78125 8.375 
Q 20.125 6.0625 23.578125 6.0625 
Q 24.703125 6.0625 25.578125 6.28125 
Q 26.46875 6.5 27.140625 6.734375 
Q 27.828125 6.984375 28.3125 7.203125 
Q 28.8125 7.421875 29.203125 7.421875 
Q 29.4375 7.421875 29.65625 7.296875 
Q 29.890625 7.171875 30 6.828125 
Q 30.125 6.5 30.21875 5.90625 
Q 30.328125 5.328125 30.328125 4.4375 
z
" id="Calibri-116"/>
       <path d="M 40.578125 1.171875 
Q 40.578125 0.59375 40.1875 0.296875 
Q 39.796875 0 39.109375 -0.140625 
Q 38.421875 -0.296875 37.109375 -0.296875 
Q 35.84375 -0.296875 35.078125 -0.140625 
Q 34.328125 0 33.984375 0.296875 
Q 33.640625 0.59375 33.640625 1.171875 
L 33.640625 5.5625 
Q 30.765625 2.484375 27.21875 0.78125 
Q 23.6875 -0.921875 19.734375 -0.921875 
Q 16.265625 -0.921875 13.453125 -0.015625 
Q 10.640625 0.875 8.65625 2.578125 
Q 6.6875 4.296875 5.59375 6.78125 
Q 4.5 9.28125 4.5 12.453125 
Q 4.5 16.15625 6 18.890625 
Q 7.515625 21.625 10.34375 23.4375 
Q 13.1875 25.25 17.28125 26.140625 
Q 21.390625 27.046875 26.515625 27.046875 
L 32.5625 27.046875 
L 32.5625 30.46875 
Q 32.5625 33.015625 32.03125 34.96875 
Q 31.5 36.921875 30.296875 38.203125 
Q 29.109375 39.5 27.203125 40.15625 
Q 25.296875 40.828125 22.515625 40.828125 
Q 19.53125 40.828125 17.15625 40.109375 
Q 14.796875 39.40625 13.015625 38.546875 
Q 11.234375 37.703125 10.03125 36.984375 
Q 8.84375 36.28125 8.25 36.28125 
Q 7.859375 36.28125 7.5625 36.46875 
Q 7.28125 36.671875 7.0625 37.0625 
Q 6.84375 37.453125 6.734375 38.0625 
Q 6.640625 38.671875 6.640625 39.40625 
Q 6.640625 40.625 6.8125 41.328125 
Q 6.984375 42.046875 7.640625 42.671875 
Q 8.296875 43.3125 9.90625 44.15625 
Q 11.53125 45.015625 13.625 45.71875 
Q 15.71875 46.4375 18.203125 46.890625 
Q 20.703125 47.359375 23.25 47.359375 
Q 27.984375 47.359375 31.296875 46.28125 
Q 34.625 45.21875 36.671875 43.140625 
Q 38.71875 41.0625 39.640625 37.984375 
Q 40.578125 34.90625 40.578125 30.8125 
z
M 32.5625 21.234375 
L 25.6875 21.234375 
Q 22.359375 21.234375 19.921875 20.671875 
Q 17.484375 20.125 15.875 19.015625 
Q 14.265625 17.921875 13.5 16.375 
Q 12.75 14.84375 12.75 12.84375 
Q 12.75 9.421875 14.921875 7.390625 
Q 17.09375 5.375 21 5.375 
Q 24.171875 5.375 26.875 6.984375 
Q 29.59375 8.59375 32.5625 11.921875 
z
" id="Calibri-97"/>
       <path d="M 15.53125 1.21875 
Q 15.53125 0.828125 15.328125 0.5625 
Q 15.140625 0.296875 14.703125 0.09375 
Q 14.265625 -0.09375 13.484375 -0.1875 
Q 12.703125 -0.296875 11.46875 -0.296875 
Q 10.296875 -0.296875 9.515625 -0.1875 
Q 8.734375 -0.09375 8.265625 0.09375 
Q 7.8125 0.296875 7.640625 0.5625 
Q 7.46875 0.828125 7.46875 1.21875 
L 7.46875 66.453125 
Q 7.46875 66.84375 7.640625 67.140625 
Q 7.8125 67.4375 8.265625 67.625 
Q 8.734375 67.828125 9.515625 67.921875 
Q 10.296875 68.015625 11.46875 68.015625 
Q 12.703125 68.015625 13.484375 67.921875 
Q 14.265625 67.828125 14.703125 67.625 
Q 15.140625 67.4375 15.328125 67.140625 
Q 15.53125 66.84375 15.53125 66.453125 
z
" id="Calibri-108"/>
      </defs>
      <g style="fill:#696969;" transform="translate(98.641941 427.570675)rotate(-90)scale(0.16 -0.16)">
       <use xlink:href="#Calibri-84"/>
       <use x="48.730469" xlink:href="#Calibri-111"/>
       <use x="101.464844" xlink:href="#Calibri-116"/>
       <use x="134.960938" xlink:href="#Calibri-97"/>
       <use x="182.861328" xlink:href="#Calibri-108"/>
      </g>
     </g>
    </g>
    <g id="xtick_2">
     <g id="text_2">
      <!-- Source code -->
      <defs>
       <path d="M 42.328125 17.71875 
Q 42.328125 13.28125 40.6875 9.8125 
Q 39.0625 6.34375 36.15625 3.921875 
Q 33.25 1.515625 29.3125 0.296875 
Q 25.390625 -0.921875 20.84375 -0.921875 
Q 17.671875 -0.921875 14.953125 -0.390625 
Q 12.25 0.140625 10.125 0.921875 
Q 8.015625 1.703125 6.5625 2.53125 
Q 5.125 3.375 4.5625 3.953125 
Q 4 4.546875 3.734375 5.4375 
Q 3.46875 6.34375 3.46875 7.859375 
Q 3.46875 8.9375 3.5625 9.640625 
Q 3.65625 10.359375 3.84375 10.796875 
Q 4.046875 11.234375 4.34375 11.40625 
Q 4.640625 11.578125 5.03125 11.578125 
Q 5.71875 11.578125 6.953125 10.734375 
Q 8.203125 9.90625 10.15625 8.921875 
Q 12.109375 7.953125 14.859375 7.09375 
Q 17.625 6.25 21.234375 6.25 
Q 23.96875 6.25 26.234375 6.984375 
Q 28.515625 7.71875 30.140625 9.0625 
Q 31.78125 10.40625 32.65625 12.359375 
Q 33.546875 14.3125 33.546875 16.796875 
Q 33.546875 19.484375 32.328125 21.390625 
Q 31.109375 23.296875 29.09375 24.734375 
Q 27.09375 26.171875 24.53125 27.359375 
Q 21.96875 28.5625 19.28125 29.8125 
Q 16.609375 31.0625 14.0625 32.5625 
Q 11.53125 34.078125 9.515625 36.125 
Q 7.515625 38.1875 6.265625 40.9375 
Q 5.03125 43.703125 5.03125 47.5625 
Q 5.03125 51.515625 6.46875 54.609375 
Q 7.90625 57.71875 10.46875 59.8125 
Q 13.03125 61.921875 16.578125 63.015625 
Q 20.125 64.109375 24.21875 64.109375 
Q 26.3125 64.109375 28.4375 63.734375 
Q 30.5625 63.375 32.4375 62.765625 
Q 34.328125 62.15625 35.78125 61.390625 
Q 37.25 60.640625 37.71875 60.171875 
Q 38.1875 59.71875 38.328125 59.453125 
Q 38.484375 59.1875 38.578125 58.765625 
Q 38.671875 58.34375 38.71875 57.75 
Q 38.765625 57.171875 38.765625 56.25 
Q 38.765625 55.375 38.6875 54.6875 
Q 38.625 54 38.46875 53.53125 
Q 38.328125 53.078125 38.0625 52.859375 
Q 37.796875 52.640625 37.453125 52.640625 
Q 36.921875 52.640625 35.765625 53.3125 
Q 34.625 54 32.953125 54.859375 
Q 31.296875 55.71875 29.03125 56.421875 
Q 26.765625 57.125 23.921875 57.125 
Q 21.296875 57.125 19.34375 56.421875 
Q 17.390625 55.71875 16.109375 54.546875 
Q 14.84375 53.375 14.203125 51.75 
Q 13.578125 50.140625 13.578125 48.34375 
Q 13.578125 45.703125 14.796875 43.796875 
Q 16.015625 41.890625 18.03125 40.421875 
Q 20.0625 38.96875 22.65625 37.75 
Q 25.25 36.53125 27.921875 35.28125 
Q 30.609375 34.03125 33.203125 32.546875 
Q 35.796875 31.0625 37.8125 29.03125 
Q 39.84375 27 41.078125 24.234375 
Q 42.328125 21.484375 42.328125 17.71875 
z
" id="Calibri-83"/>
       <path d="M 45.125 1.21875 
Q 45.125 0.828125 44.953125 0.5625 
Q 44.78125 0.296875 44.328125 0.09375 
Q 43.890625 -0.09375 43.1875 -0.1875 
Q 42.484375 -0.296875 41.453125 -0.296875 
Q 40.328125 -0.296875 39.625 -0.1875 
Q 38.921875 -0.09375 38.5 0.09375 
Q 38.09375 0.296875 37.9375 0.5625 
Q 37.796875 0.828125 37.796875 1.21875 
L 37.796875 7.03125 
Q 34.03125 2.875 30.359375 0.96875 
Q 26.703125 -0.921875 22.953125 -0.921875 
Q 18.5625 -0.921875 15.546875 0.53125 
Q 12.546875 2 10.6875 4.515625 
Q 8.84375 7.03125 8.03125 10.375 
Q 7.234375 13.71875 7.234375 18.5 
L 7.234375 45.171875 
Q 7.234375 45.5625 7.390625 45.828125 
Q 7.5625 46.09375 8.046875 46.3125 
Q 8.546875 46.53125 9.328125 46.609375 
Q 10.109375 46.6875 11.28125 46.6875 
Q 12.453125 46.6875 13.234375 46.609375 
Q 14.015625 46.53125 14.46875 46.3125 
Q 14.9375 46.09375 15.125 45.828125 
Q 15.328125 45.5625 15.328125 45.171875 
L 15.328125 19.578125 
Q 15.328125 15.71875 15.890625 13.390625 
Q 16.453125 11.078125 17.59375 9.4375 
Q 18.75 7.8125 20.5 6.90625 
Q 22.265625 6 24.609375 6 
Q 27.640625 6 30.640625 8.140625 
Q 33.640625 10.296875 37.015625 14.453125 
L 37.015625 45.171875 
Q 37.015625 45.5625 37.1875 45.828125 
Q 37.359375 46.09375 37.84375 46.3125 
Q 38.328125 46.53125 39.078125 46.609375 
Q 39.84375 46.6875 41.0625 46.6875 
Q 42.234375 46.6875 43.015625 46.609375 
Q 43.796875 46.53125 44.234375 46.3125 
Q 44.671875 46.09375 44.890625 45.828125 
Q 45.125 45.5625 45.125 45.171875 
z
" id="Calibri-117"/>
       <path d="M 33.15625 42.28125 
Q 33.15625 41.21875 33.109375 40.484375 
Q 33.0625 39.75 32.90625 39.328125 
Q 32.765625 38.921875 32.546875 38.703125 
Q 32.328125 38.484375 31.9375 38.484375 
Q 31.546875 38.484375 30.984375 38.703125 
Q 30.421875 38.921875 29.703125 39.140625 
Q 29 39.359375 28.125 39.546875 
Q 27.25 39.75 26.21875 39.75 
Q 25 39.75 23.828125 39.25 
Q 22.65625 38.765625 21.359375 37.640625 
Q 20.0625 36.53125 18.640625 34.671875 
Q 17.234375 32.8125 15.53125 30.125 
L 15.53125 1.21875 
Q 15.53125 0.828125 15.328125 0.5625 
Q 15.140625 0.296875 14.703125 0.09375 
Q 14.265625 -0.09375 13.484375 -0.1875 
Q 12.703125 -0.296875 11.46875 -0.296875 
Q 10.296875 -0.296875 9.515625 -0.1875 
Q 8.734375 -0.09375 8.265625 0.09375 
Q 7.8125 0.296875 7.640625 0.5625 
Q 7.46875 0.828125 7.46875 1.21875 
L 7.46875 45.171875 
Q 7.46875 45.5625 7.609375 45.828125 
Q 7.765625 46.09375 8.203125 46.3125 
Q 8.640625 46.53125 9.328125 46.609375 
Q 10.015625 46.6875 11.140625 46.6875 
Q 12.203125 46.6875 12.90625 46.609375 
Q 13.625 46.53125 14.015625 46.3125 
Q 14.40625 46.09375 14.578125 45.828125 
Q 14.75 45.5625 14.75 45.171875 
L 14.75 38.765625 
Q 16.546875 41.40625 18.140625 43.0625 
Q 19.734375 44.734375 21.140625 45.671875 
Q 22.5625 46.625 23.953125 46.984375 
Q 25.34375 47.359375 26.765625 47.359375 
Q 27.390625 47.359375 28.1875 47.28125 
Q 29 47.21875 29.875 47.015625 
Q 30.765625 46.828125 31.46875 46.578125 
Q 32.171875 46.34375 32.46875 46.09375 
Q 32.765625 45.84375 32.859375 45.625 
Q 32.953125 45.40625 33.03125 45.0625 
Q 33.109375 44.734375 33.125 44.0625 
Q 33.15625 43.40625 33.15625 42.28125 
z
" id="Calibri-114"/>
       <path d="M 39.0625 7.90625 
Q 39.0625 7.078125 39.015625 6.46875 
Q 38.96875 5.859375 38.84375 5.4375 
Q 38.71875 5.03125 38.546875 4.703125 
Q 38.375 4.390625 37.765625 3.78125 
Q 37.15625 3.171875 35.6875 2.265625 
Q 34.234375 1.375 32.390625 0.65625 
Q 30.5625 -0.046875 28.40625 -0.484375 
Q 26.265625 -0.921875 23.96875 -0.921875 
Q 19.234375 -0.921875 15.578125 0.640625 
Q 11.921875 2.203125 9.453125 5.203125 
Q 6.984375 8.203125 5.6875 12.5625 
Q 4.390625 16.9375 4.390625 22.65625 
Q 4.390625 29.15625 5.96875 33.8125 
Q 7.5625 38.484375 10.328125 41.453125 
Q 13.09375 44.4375 16.828125 45.875 
Q 20.5625 47.3125 24.90625 47.3125 
Q 27 47.3125 28.96875 46.921875 
Q 30.953125 46.53125 32.609375 45.890625 
Q 34.28125 45.265625 35.5625 44.4375 
Q 36.859375 43.609375 37.4375 43.015625 
Q 38.03125 42.4375 38.25 42.09375 
Q 38.484375 41.75 38.625 41.28125 
Q 38.765625 40.828125 38.8125 40.234375 
Q 38.875 39.65625 38.875 38.765625 
Q 38.875 36.859375 38.421875 36.109375 
Q 37.984375 35.359375 37.359375 35.359375 
Q 36.625 35.359375 35.671875 36.15625 
Q 34.71875 36.96875 33.25 37.9375 
Q 31.78125 38.921875 29.703125 39.71875 
Q 27.640625 40.53125 24.8125 40.53125 
Q 19 40.53125 15.890625 36.0625 
Q 12.796875 31.59375 12.796875 23.09375 
Q 12.796875 18.84375 13.59375 15.640625 
Q 14.40625 12.453125 15.96875 10.296875 
Q 17.53125 8.15625 19.796875 7.109375 
Q 22.078125 6.0625 25 6.0625 
Q 27.78125 6.0625 29.875 6.9375 
Q 31.984375 7.8125 33.515625 8.859375 
Q 35.0625 9.90625 36.109375 10.765625 
Q 37.15625 11.625 37.75 11.625 
Q 38.09375 11.625 38.328125 11.421875 
Q 38.578125 11.234375 38.75 10.765625 
Q 38.921875 10.296875 38.984375 9.59375 
Q 39.0625 8.890625 39.0625 7.90625 
z
" id="Calibri-99"/>
       <path d="M 44.96875 25.09375 
Q 44.96875 23.1875 44.015625 22.375 
Q 43.0625 21.578125 41.84375 21.578125 
L 13.03125 21.578125 
Q 13.03125 17.921875 13.765625 14.984375 
Q 14.5 12.0625 16.203125 9.953125 
Q 17.921875 7.859375 20.65625 6.734375 
Q 23.390625 5.609375 27.34375 5.609375 
Q 30.46875 5.609375 32.90625 6.125 
Q 35.359375 6.640625 37.140625 7.265625 
Q 38.921875 7.90625 40.0625 8.421875 
Q 41.21875 8.9375 41.796875 8.9375 
Q 42.140625 8.9375 42.40625 8.765625 
Q 42.671875 8.59375 42.8125 8.25 
Q 42.96875 7.90625 43.03125 7.296875 
Q 43.109375 6.6875 43.109375 5.8125 
Q 43.109375 5.171875 43.0625 4.703125 
Q 43.015625 4.25 42.9375 3.875 
Q 42.875 3.515625 42.703125 3.21875 
Q 42.53125 2.9375 42.265625 2.65625 
Q 42 2.390625 40.671875 1.78125 
Q 39.359375 1.171875 37.25 0.578125 
Q 35.15625 0 32.390625 -0.453125 
Q 29.640625 -0.921875 26.515625 -0.921875 
Q 21.09375 -0.921875 17.015625 0.578125 
Q 12.9375 2.09375 10.15625 5.078125 
Q 7.375 8.0625 5.953125 12.546875 
Q 4.546875 17.046875 4.546875 23 
Q 4.546875 28.65625 6 33.171875 
Q 7.46875 37.703125 10.21875 40.84375 
Q 12.984375 44 16.890625 45.671875 
Q 20.796875 47.359375 25.640625 47.359375 
Q 30.8125 47.359375 34.453125 45.703125 
Q 38.09375 44.046875 40.4375 41.234375 
Q 42.78125 38.421875 43.875 34.640625 
Q 44.96875 30.859375 44.96875 26.5625 
z
M 36.859375 27.484375 
Q 37.015625 33.84375 34.0625 37.453125 
Q 31.109375 41.0625 25.296875 41.0625 
Q 22.3125 41.0625 20.0625 39.9375 
Q 17.828125 38.8125 16.3125 36.953125 
Q 14.796875 35.109375 13.96875 32.640625 
Q 13.140625 30.171875 13.03125 27.484375 
z
" id="Calibri-101"/>
       <path id="Calibri-32"/>
       <path d="M 45.125 1.21875 
Q 45.125 0.828125 44.953125 0.53125 
Q 44.78125 0.25 44.359375 0.078125 
Q 43.953125 -0.09375 43.265625 -0.1875 
Q 42.578125 -0.296875 41.609375 -0.296875 
Q 40.578125 -0.296875 39.890625 -0.1875 
Q 39.203125 -0.09375 38.765625 0.078125 
Q 38.328125 0.25 38.125 0.53125 
Q 37.9375 0.828125 37.9375 1.21875 
L 37.9375 7.03125 
Q 34.46875 3.265625 30.734375 1.171875 
Q 27 -0.921875 22.5625 -0.921875 
Q 17.71875 -0.921875 14.296875 0.953125 
Q 10.890625 2.828125 8.765625 6.03125 
Q 6.640625 9.234375 5.65625 13.546875 
Q 4.6875 17.875 4.6875 22.65625 
Q 4.6875 28.328125 5.90625 32.890625 
Q 7.125 37.453125 9.515625 40.671875 
Q 11.921875 43.890625 15.453125 45.625 
Q 19 47.359375 23.640625 47.359375 
Q 27.484375 47.359375 30.6875 45.671875 
Q 33.890625 44 37.015625 40.71875 
L 37.015625 66.265625 
Q 37.015625 66.609375 37.1875 66.921875 
Q 37.359375 67.234375 37.84375 67.40625 
Q 38.328125 67.578125 39.078125 67.703125 
Q 39.84375 67.828125 41.015625 67.828125 
Q 42.234375 67.828125 43.015625 67.703125 
Q 43.796875 67.578125 44.234375 67.40625 
Q 44.671875 67.234375 44.890625 66.921875 
Q 45.125 66.609375 45.125 66.265625 
z
M 37.015625 32.125 
Q 33.734375 36.1875 30.6875 38.3125 
Q 27.640625 40.4375 24.3125 40.4375 
Q 21.234375 40.4375 19.078125 38.96875 
Q 16.9375 37.5 15.59375 35.109375 
Q 14.265625 32.71875 13.640625 29.6875 
Q 13.03125 26.65625 13.03125 23.53125 
Q 13.03125 20.21875 13.546875 17.046875 
Q 14.0625 13.875 15.328125 11.40625 
Q 16.609375 8.9375 18.703125 7.4375 
Q 20.796875 5.953125 23.96875 5.953125 
Q 25.59375 5.953125 27.078125 6.390625 
Q 28.5625 6.84375 30.125 7.859375 
Q 31.6875 8.890625 33.390625 10.515625 
Q 35.109375 12.15625 37.015625 14.546875 
z
" id="Calibri-100"/>
      </defs>
      <g style="fill:#696969;" transform="translate(166.988794 474.325675)rotate(-90)scale(0.16 -0.16)">
       <use xlink:href="#Calibri-83"/>
       <use x="45.947266" xlink:href="#Calibri-111"/>
       <use x="98.681641" xlink:href="#Calibri-117"/>
       <use x="151.220703" xlink:href="#Calibri-114"/>
       <use x="186.083984" xlink:href="#Calibri-99"/>
       <use x="228.369141" xlink:href="#Calibri-101"/>
       <use x="278.125" xlink:href="#Calibri-32"/>
       <use x="300.732422" xlink:href="#Calibri-99"/>
       <use x="343.017578" xlink:href="#Calibri-111"/>
       <use x="395.751953" xlink:href="#Calibri-100"/>
       <use x="448.291016" xlink:href="#Calibri-101"/>
      </g>
     </g>
    </g>
    <g id="xtick_3">
     <g id="text_3">
      <!-- Input data -->
      <defs>
       <path d="M 16.796875 1.265625 
Q 16.796875 0.875 16.59375 0.578125 
Q 16.40625 0.296875 15.921875 0.125 
Q 15.4375 -0.046875 14.625 -0.171875 
Q 13.8125 -0.296875 12.59375 -0.296875 
Q 11.421875 -0.296875 10.59375 -0.171875 
Q 9.765625 -0.046875 9.28125 0.125 
Q 8.796875 0.296875 8.59375 0.578125 
Q 8.40625 0.875 8.40625 1.265625 
L 8.40625 61.921875 
Q 8.40625 62.3125 8.625 62.59375 
Q 8.84375 62.890625 9.34375 63.0625 
Q 9.859375 63.234375 10.65625 63.359375 
Q 11.46875 63.484375 12.59375 63.484375 
Q 13.8125 63.484375 14.625 63.359375 
Q 15.4375 63.234375 15.921875 63.0625 
Q 16.40625 62.890625 16.59375 62.59375 
Q 16.796875 62.3125 16.796875 61.921875 
z
" id="Calibri-73"/>
       <path d="M 45.3125 1.21875 
Q 45.3125 0.828125 45.109375 0.5625 
Q 44.921875 0.296875 44.484375 0.09375 
Q 44.046875 -0.09375 43.265625 -0.1875 
Q 42.484375 -0.296875 41.3125 -0.296875 
Q 40.09375 -0.296875 39.3125 -0.1875 
Q 38.53125 -0.09375 38.078125 0.09375 
Q 37.640625 0.296875 37.4375 0.5625 
Q 37.25 0.828125 37.25 1.21875 
L 37.25 26.953125 
Q 37.25 30.71875 36.65625 33 
Q 36.078125 35.296875 34.953125 36.953125 
Q 33.84375 38.625 32.0625 39.5 
Q 30.28125 40.375 27.9375 40.375 
Q 24.90625 40.375 21.875 38.21875 
Q 18.84375 36.078125 15.53125 31.9375 
L 15.53125 1.21875 
Q 15.53125 0.828125 15.328125 0.5625 
Q 15.140625 0.296875 14.703125 0.09375 
Q 14.265625 -0.09375 13.484375 -0.1875 
Q 12.703125 -0.296875 11.46875 -0.296875 
Q 10.296875 -0.296875 9.515625 -0.1875 
Q 8.734375 -0.09375 8.265625 0.09375 
Q 7.8125 0.296875 7.640625 0.5625 
Q 7.46875 0.828125 7.46875 1.21875 
L 7.46875 45.171875 
Q 7.46875 45.5625 7.609375 45.828125 
Q 7.765625 46.09375 8.203125 46.3125 
Q 8.640625 46.53125 9.328125 46.609375 
Q 10.015625 46.6875 11.140625 46.6875 
Q 12.203125 46.6875 12.90625 46.609375 
Q 13.625 46.53125 14.015625 46.3125 
Q 14.40625 46.09375 14.578125 45.828125 
Q 14.75 45.5625 14.75 45.171875 
L 14.75 39.359375 
Q 18.453125 43.5 22.140625 45.421875 
Q 25.828125 47.359375 29.59375 47.359375 
Q 33.984375 47.359375 36.984375 45.875 
Q 39.984375 44.390625 41.84375 41.890625 
Q 43.703125 39.40625 44.5 36.0625 
Q 45.3125 32.71875 45.3125 28.03125 
z
" id="Calibri-110"/>
       <path d="M 47.90625 23.875 
Q 47.90625 18.109375 46.65625 13.515625 
Q 45.40625 8.9375 42.984375 5.734375 
Q 40.578125 2.546875 37.015625 0.8125 
Q 33.453125 -0.921875 28.859375 -0.921875 
Q 26.90625 -0.921875 25.234375 -0.53125 
Q 23.578125 -0.140625 21.984375 0.6875 
Q 20.40625 1.515625 18.84375 2.78125 
Q 17.28125 4.046875 15.53125 5.765625 
L 15.53125 -16.21875 
Q 15.53125 -16.609375 15.328125 -16.890625 
Q 15.140625 -17.1875 14.703125 -17.375 
Q 14.265625 -17.578125 13.484375 -17.671875 
Q 12.703125 -17.78125 11.46875 -17.78125 
Q 10.296875 -17.78125 9.515625 -17.671875 
Q 8.734375 -17.578125 8.265625 -17.375 
Q 7.8125 -17.1875 7.640625 -16.890625 
Q 7.46875 -16.609375 7.46875 -16.21875 
L 7.46875 45.171875 
Q 7.46875 45.609375 7.609375 45.875 
Q 7.765625 46.140625 8.203125 46.328125 
Q 8.640625 46.53125 9.328125 46.609375 
Q 10.015625 46.6875 10.984375 46.6875 
Q 12.015625 46.6875 12.671875 46.609375 
Q 13.328125 46.53125 13.765625 46.328125 
Q 14.203125 46.140625 14.375 45.875 
Q 14.546875 45.609375 14.546875 45.171875 
L 14.546875 39.265625 
Q 16.546875 41.3125 18.40625 42.828125 
Q 20.265625 44.34375 22.140625 45.34375 
Q 24.03125 46.34375 26 46.84375 
Q 27.984375 47.359375 30.171875 47.359375 
Q 34.96875 47.359375 38.328125 45.5 
Q 41.703125 43.65625 43.828125 40.421875 
Q 45.953125 37.203125 46.921875 32.921875 
Q 47.90625 28.65625 47.90625 23.875 
z
M 39.40625 22.953125 
Q 39.40625 26.3125 38.890625 29.46875 
Q 38.375 32.625 37.125 35.0625 
Q 35.890625 37.5 33.78125 38.96875 
Q 31.6875 40.4375 28.5625 40.4375 
Q 27 40.4375 25.484375 39.96875 
Q 23.96875 39.5 22.40625 38.5 
Q 20.84375 37.5 19.140625 35.859375 
Q 17.4375 34.234375 15.53125 31.84375 
L 15.53125 14.359375 
Q 18.84375 10.296875 21.828125 8.140625 
Q 24.8125 6 28.078125 6 
Q 31.109375 6 33.28125 7.46875 
Q 35.453125 8.9375 36.796875 11.375 
Q 38.140625 13.8125 38.765625 16.84375 
Q 39.40625 19.875 39.40625 22.953125 
z
" id="Calibri-112"/>
      </defs>
      <g style="fill:#696969;" transform="translate(235.335647 461.968175)rotate(-90)scale(0.16 -0.16)">
       <use xlink:href="#Calibri-73"/>
       <use x="25.195312" xlink:href="#Calibri-110"/>
       <use x="77.734375" xlink:href="#Calibri-112"/>
       <use x="130.273438" xlink:href="#Calibri-117"/>
       <use x="182.8125" xlink:href="#Calibri-116"/>
       <use x="216.308594" xlink:href="#Calibri-32"/>
       <use x="238.916016" xlink:href="#Calibri-100"/>
       <use x="291.455078" xlink:href="#Calibri-97"/>
       <use x="339.355469" xlink:href="#Calibri-116"/>
       <use x="372.851562" xlink:href="#Calibri-97"/>
      </g>
     </g>
    </g>
    <g id="xtick_4">
     <g id="text_4">
      <!-- Output data -->
      <defs>
       <path d="M 61.328125 32.328125 
Q 61.328125 24.65625 59.515625 18.5 
Q 57.71875 12.359375 54.125 8.03125 
Q 50.53125 3.71875 45.109375 1.390625 
Q 39.703125 -0.921875 32.46875 -0.921875 
Q 25.34375 -0.921875 20.140625 1.203125 
Q 14.9375 3.328125 11.546875 7.375 
Q 8.15625 11.421875 6.484375 17.421875 
Q 4.828125 23.4375 4.828125 31.25 
Q 4.828125 38.71875 6.640625 44.8125 
Q 8.453125 50.921875 12.0625 55.1875 
Q 15.671875 59.46875 21.09375 61.78125 
Q 26.515625 64.109375 33.734375 64.109375 
Q 40.71875 64.109375 45.890625 62 
Q 51.078125 59.90625 54.515625 55.875 
Q 57.953125 51.859375 59.640625 45.921875 
Q 61.328125 39.984375 61.328125 32.328125 
z
M 52.484375 31.734375 
Q 52.484375 37.109375 51.53125 41.71875 
Q 50.59375 46.34375 48.359375 49.734375 
Q 46.140625 53.125 42.421875 55.03125 
Q 38.71875 56.9375 33.25 56.9375 
Q 27.78125 56.9375 24.0625 54.875 
Q 20.359375 52.828125 18.03125 49.40625 
Q 15.71875 46 14.71875 41.421875 
Q 13.71875 36.859375 13.71875 31.84375 
Q 13.71875 26.265625 14.640625 21.578125 
Q 15.578125 16.890625 17.765625 13.5 
Q 19.96875 10.109375 23.65625 8.21875 
Q 27.34375 6.34375 32.90625 6.34375 
Q 38.421875 6.34375 42.1875 8.390625 
Q 45.953125 10.453125 48.234375 13.9375 
Q 50.53125 17.4375 51.5 22.015625 
Q 52.484375 26.609375 52.484375 31.734375 
z
" id="Calibri-79"/>
      </defs>
      <g style="fill:#696969;" transform="translate(303.6825 473.890675)rotate(-90)scale(0.16 -0.16)">
       <use xlink:href="#Calibri-79"/>
       <use x="66.210938" xlink:href="#Calibri-117"/>
       <use x="118.75" xlink:href="#Calibri-116"/>
       <use x="152.246094" xlink:href="#Calibri-112"/>
       <use x="204.785156" xlink:href="#Calibri-117"/>
       <use x="257.324219" xlink:href="#Calibri-116"/>
       <use x="290.820312" xlink:href="#Calibri-32"/>
       <use x="313.427734" xlink:href="#Calibri-100"/>
       <use x="365.966797" xlink:href="#Calibri-97"/>
       <use x="413.867188" xlink:href="#Calibri-116"/>
       <use x="447.363281" xlink:href="#Calibri-97"/>
      </g>
     </g>
    </g>
    <g id="xtick_5">
     <g id="text_5">
      <!-- Executable -->
      <defs>
       <path d="M 43.5625 3.46875 
Q 43.5625 2.59375 43.453125 1.921875 
Q 43.359375 1.265625 43.109375 0.828125 
Q 42.875 0.390625 42.546875 0.1875 
Q 42.234375 0 41.84375 0 
L 11.53125 0 
Q 10.40625 0 9.40625 0.75 
Q 8.40625 1.515625 8.40625 3.421875 
L 8.40625 59.765625 
Q 8.40625 61.671875 9.40625 62.421875 
Q 10.40625 63.1875 11.53125 63.1875 
L 41.5 63.1875 
Q 41.890625 63.1875 42.203125 62.984375 
Q 42.53125 62.796875 42.71875 62.359375 
Q 42.921875 61.921875 43.046875 61.25 
Q 43.171875 60.59375 43.171875 59.625 
Q 43.171875 58.734375 43.046875 58.078125 
Q 42.921875 57.421875 42.71875 57 
Q 42.53125 56.59375 42.203125 56.390625 
Q 41.890625 56.203125 41.5 56.203125 
L 16.796875 56.203125 
L 16.796875 36.375 
L 37.984375 36.375 
Q 38.375 36.375 38.6875 36.15625 
Q 39.015625 35.9375 39.234375 35.546875 
Q 39.453125 35.15625 39.546875 34.46875 
Q 39.65625 33.796875 39.65625 32.859375 
Q 39.65625 31.984375 39.546875 31.34375 
Q 39.453125 30.71875 39.234375 30.328125 
Q 39.015625 29.9375 38.6875 29.765625 
Q 38.375 29.59375 37.984375 29.59375 
L 16.796875 29.59375 
L 16.796875 6.984375 
L 41.84375 6.984375 
Q 42.234375 6.984375 42.546875 6.78125 
Q 42.875 6.59375 43.109375 6.171875 
Q 43.359375 5.765625 43.453125 5.09375 
Q 43.5625 4.4375 43.5625 3.46875 
z
" id="Calibri-69"/>
       <path d="M 40.765625 2.15625 
Q 41.15625 1.46875 41.15625 1 
Q 41.15625 0.53125 40.6875 0.234375 
Q 40.234375 -0.046875 39.28125 -0.171875 
Q 38.328125 -0.296875 36.8125 -0.296875 
Q 35.359375 -0.296875 34.5 -0.21875 
Q 33.640625 -0.140625 33.125 0.03125 
Q 32.625 0.203125 32.34375 0.46875 
Q 32.078125 0.734375 31.890625 1.078125 
L 21.34375 18.5 
L 10.84375 1.078125 
Q 10.640625 0.734375 10.375 0.46875 
Q 10.109375 0.203125 9.59375 0.03125 
Q 9.078125 -0.140625 8.25 -0.21875 
Q 7.421875 -0.296875 6.0625 -0.296875 
Q 4.640625 -0.296875 3.734375 -0.171875 
Q 2.828125 -0.046875 2.40625 0.234375 
Q 2 0.53125 2.015625 1 
Q 2.046875 1.46875 2.484375 2.15625 
L 16.15625 23.578125 
L 3.21875 44.234375 
Q 2.828125 44.921875 2.796875 45.375 
Q 2.78125 45.84375 3.25 46.15625 
Q 3.71875 46.484375 4.65625 46.578125 
Q 5.609375 46.6875 7.171875 46.6875 
Q 8.59375 46.6875 9.4375 46.609375 
Q 10.296875 46.53125 10.78125 46.375 
Q 11.28125 46.234375 11.515625 45.984375 
Q 11.765625 45.75 11.96875 45.40625 
L 21.96875 29.046875 
L 32.125 45.40625 
Q 32.328125 45.703125 32.5625 45.9375 
Q 32.8125 46.1875 33.21875 46.359375 
Q 33.640625 46.53125 34.390625 46.609375 
Q 35.15625 46.6875 36.46875 46.6875 
Q 37.890625 46.6875 38.796875 46.578125 
Q 39.703125 46.484375 40.140625 46.21875 
Q 40.578125 45.953125 40.53125 45.453125 
Q 40.484375 44.96875 40.046875 44.234375 
L 27.203125 23.828125 
z
" id="Calibri-120"/>
       <path d="M 47.90625 23.78125 
Q 47.90625 18.0625 46.65625 13.5 
Q 45.40625 8.9375 42.984375 5.703125 
Q 40.578125 2.484375 37.0625 0.78125 
Q 33.546875 -0.921875 29 -0.921875 
Q 26.90625 -0.921875 25.125 -0.5 
Q 23.34375 -0.09375 21.625 0.828125 
Q 19.921875 1.765625 18.203125 3.171875 
Q 16.5 4.59375 14.59375 6.59375 
L 14.59375 1.21875 
Q 14.59375 0.828125 14.390625 0.53125 
Q 14.203125 0.25 13.765625 0.078125 
Q 13.328125 -0.09375 12.671875 -0.1875 
Q 12.015625 -0.296875 10.984375 -0.296875 
Q 10.015625 -0.296875 9.328125 -0.1875 
Q 8.640625 -0.09375 8.203125 0.078125 
Q 7.765625 0.25 7.609375 0.53125 
Q 7.46875 0.828125 7.46875 1.21875 
L 7.46875 66.453125 
Q 7.46875 66.84375 7.640625 67.140625 
Q 7.8125 67.4375 8.265625 67.625 
Q 8.734375 67.828125 9.515625 67.921875 
Q 10.296875 68.015625 11.46875 68.015625 
Q 12.703125 68.015625 13.484375 67.921875 
Q 14.265625 67.828125 14.703125 67.625 
Q 15.140625 67.4375 15.328125 67.140625 
Q 15.53125 66.84375 15.53125 66.453125 
L 15.53125 40.140625 
Q 17.484375 42.140625 19.3125 43.5 
Q 21.140625 44.875 22.890625 45.71875 
Q 24.65625 46.578125 26.40625 46.96875 
Q 28.171875 47.359375 30.125 47.359375 
Q 34.90625 47.359375 38.296875 45.453125 
Q 41.703125 43.5625 43.828125 40.359375 
Q 45.953125 37.15625 46.921875 32.859375 
Q 47.90625 28.5625 47.90625 23.78125 
z
M 39.40625 22.859375 
Q 39.40625 26.21875 38.890625 29.390625 
Q 38.375 32.5625 37.109375 35 
Q 35.84375 37.453125 33.734375 38.9375 
Q 31.640625 40.4375 28.515625 40.4375 
Q 26.953125 40.4375 25.4375 39.984375 
Q 23.921875 39.546875 22.359375 38.515625 
Q 20.796875 37.5 19.109375 35.890625 
Q 17.4375 34.28125 15.53125 31.84375 
L 15.53125 14.3125 
Q 18.84375 10.25 21.875 8.125 
Q 24.90625 6 28.171875 6 
Q 31.203125 6 33.34375 7.46875 
Q 35.5 8.9375 36.84375 11.34375 
Q 38.1875 13.765625 38.796875 16.765625 
Q 39.40625 19.78125 39.40625 22.859375 
z
" id="Calibri-98"/>
      </defs>
      <g style="fill:#696969;" transform="translate(372.029353 465.578175)rotate(-90)scale(0.16 -0.16)">
       <use xlink:href="#Calibri-69"/>
       <use x="48.828125" xlink:href="#Calibri-120"/>
       <use x="92.138672" xlink:href="#Calibri-101"/>
       <use x="141.894531" xlink:href="#Calibri-99"/>
       <use x="184.179688" xlink:href="#Calibri-117"/>
       <use x="236.71875" xlink:href="#Calibri-116"/>
       <use x="270.214844" xlink:href="#Calibri-97"/>
       <use x="318.115234" xlink:href="#Calibri-98"/>
       <use x="370.654297" xlink:href="#Calibri-108"/>
       <use x="393.603516" xlink:href="#Calibri-101"/>
      </g>
     </g>
    </g>
    <g id="xtick_6">
     <g id="text_6">
      <!-- Binaries -->
      <defs>
       <path d="M 50.046875 18.109375 
Q 50.046875 15.140625 49.28125 12.625 
Q 48.53125 10.109375 47.15625 8.109375 
Q 45.796875 6.109375 43.859375 4.59375 
Q 41.9375 3.078125 39.515625 2.046875 
Q 37.109375 1.03125 34.34375 0.515625 
Q 31.59375 0 28.03125 0 
L 11.53125 0 
Q 10.40625 0 9.40625 0.75 
Q 8.40625 1.515625 8.40625 3.421875 
L 8.40625 59.765625 
Q 8.40625 61.671875 9.40625 62.421875 
Q 10.40625 63.1875 11.53125 63.1875 
L 25.875 63.1875 
Q 31.546875 63.1875 35.15625 62.109375 
Q 38.765625 61.03125 41.1875 58.984375 
Q 43.609375 56.9375 44.828125 53.953125 
Q 46.046875 50.984375 46.046875 47.21875 
Q 46.046875 44.96875 45.5 42.921875 
Q 44.96875 40.875 43.921875 39.140625 
Q 42.875 37.40625 41.28125 36.03125 
Q 39.703125 34.671875 37.640625 33.796875 
Q 40.234375 33.296875 42.484375 32 
Q 44.734375 30.71875 46.40625 28.703125 
Q 48.09375 26.703125 49.0625 24.015625 
Q 50.046875 21.34375 50.046875 18.109375 
z
M 37.40625 46.390625 
Q 37.40625 48.6875 36.765625 50.53125 
Q 36.140625 52.390625 34.765625 53.6875 
Q 33.40625 54.984375 31.203125 55.65625 
Q 29 56.34375 25.390625 56.34375 
L 16.703125 56.34375 
L 16.703125 35.890625 
L 26.265625 35.890625 
Q 29.546875 35.890625 31.546875 36.734375 
Q 33.546875 37.59375 34.859375 39.03125 
Q 36.1875 40.484375 36.796875 42.40625 
Q 37.40625 44.34375 37.40625 46.390625 
z
M 41.21875 17.625 
Q 41.21875 20.453125 40.3125 22.59375 
Q 39.40625 24.75 37.671875 26.21875 
Q 35.9375 27.6875 33.328125 28.4375 
Q 30.71875 29.203125 26.765625 29.203125 
L 16.703125 29.203125 
L 16.703125 6.9375 
L 28.90625 6.9375 
Q 31.78125 6.9375 33.921875 7.609375 
Q 36.078125 8.296875 37.71875 9.640625 
Q 39.359375 10.984375 40.28125 12.984375 
Q 41.21875 14.984375 41.21875 17.625 
z
" id="Calibri-66"/>
       <path d="M 15.53125 1.21875 
Q 15.53125 0.828125 15.328125 0.5625 
Q 15.140625 0.296875 14.703125 0.09375 
Q 14.265625 -0.09375 13.484375 -0.1875 
Q 12.703125 -0.296875 11.46875 -0.296875 
Q 10.296875 -0.296875 9.515625 -0.1875 
Q 8.734375 -0.09375 8.265625 0.09375 
Q 7.8125 0.296875 7.640625 0.5625 
Q 7.46875 0.828125 7.46875 1.21875 
L 7.46875 45.171875 
Q 7.46875 45.515625 7.640625 45.796875 
Q 7.8125 46.09375 8.265625 46.28125 
Q 8.734375 46.484375 9.515625 46.578125 
Q 10.296875 46.6875 11.46875 46.6875 
Q 12.703125 46.6875 13.484375 46.578125 
Q 14.265625 46.484375 14.703125 46.28125 
Q 15.140625 46.09375 15.328125 45.796875 
Q 15.53125 45.515625 15.53125 45.171875 
z
M 16.453125 60.015625 
Q 16.453125 57.171875 15.375 56.140625 
Q 14.3125 55.125 11.421875 55.125 
Q 8.59375 55.125 7.546875 56.125 
Q 6.5 57.125 6.5 59.90625 
Q 6.5 62.75 7.5625 63.765625 
Q 8.640625 64.796875 11.53125 64.796875 
Q 14.359375 64.796875 15.40625 63.796875 
Q 16.453125 62.796875 16.453125 60.015625 
z
" id="Calibri-105"/>
       <path d="M 35.0625 13.1875 
Q 35.0625 9.8125 33.8125 7.171875 
Q 32.5625 4.546875 30.265625 2.734375 
Q 27.984375 0.921875 24.796875 0 
Q 21.625 -0.921875 17.828125 -0.921875 
Q 15.484375 -0.921875 13.359375 -0.5625 
Q 11.234375 -0.203125 9.546875 0.359375 
Q 7.859375 0.921875 6.6875 1.53125 
Q 5.515625 2.15625 4.96875 2.640625 
Q 4.4375 3.125 4.1875 4 
Q 3.953125 4.890625 3.953125 6.390625 
Q 3.953125 7.328125 4.046875 7.953125 
Q 4.15625 8.59375 4.296875 8.984375 
Q 4.4375 9.375 4.703125 9.546875 
Q 4.984375 9.71875 5.328125 9.71875 
Q 5.859375 9.71875 6.90625 9.0625 
Q 7.953125 8.40625 9.484375 7.625 
Q 11.03125 6.84375 13.125 6.171875 
Q 15.234375 5.515625 17.96875 5.515625 
Q 20.015625 5.515625 21.671875 5.953125 
Q 23.34375 6.390625 24.5625 7.25 
Q 25.78125 8.109375 26.4375 9.421875 
Q 27.09375 10.75 27.09375 12.546875 
Q 27.09375 14.40625 26.140625 15.671875 
Q 25.203125 16.9375 23.640625 17.90625 
Q 22.078125 18.890625 20.125 19.640625 
Q 18.171875 20.40625 16.09375 21.234375 
Q 14.015625 22.078125 12.03125 23.125 
Q 10.0625 24.171875 8.5 25.6875 
Q 6.9375 27.203125 5.984375 29.296875 
Q 5.03125 31.390625 5.03125 34.328125 
Q 5.03125 36.921875 6.03125 39.28125 
Q 7.03125 41.65625 9.03125 43.4375 
Q 11.03125 45.21875 14.03125 46.28125 
Q 17.046875 47.359375 21.046875 47.359375 
Q 22.796875 47.359375 24.546875 47.0625 
Q 26.3125 46.78125 27.734375 46.34375 
Q 29.15625 45.90625 30.15625 45.390625 
Q 31.15625 44.875 31.65625 44.484375 
Q 32.171875 44.09375 32.34375 43.796875 
Q 32.515625 43.5 32.59375 43.140625 
Q 32.671875 42.78125 32.734375 42.234375 
Q 32.8125 41.703125 32.8125 40.921875 
Q 32.8125 40.09375 32.734375 39.484375 
Q 32.671875 38.875 32.5 38.484375 
Q 32.328125 38.09375 32.078125 37.921875 
Q 31.84375 37.75 31.546875 37.75 
Q 31.109375 37.75 30.265625 38.28125 
Q 29.4375 38.8125 28.125 39.421875 
Q 26.8125 40.046875 25.03125 40.578125 
Q 23.25 41.109375 20.953125 41.109375 
Q 18.890625 41.109375 17.328125 40.640625 
Q 15.765625 40.1875 14.765625 39.328125 
Q 13.765625 38.484375 13.25 37.3125 
Q 12.75 36.140625 12.75 34.765625 
Q 12.75 32.859375 13.71875 31.5625 
Q 14.703125 30.28125 16.265625 29.296875 
Q 17.828125 28.328125 19.828125 27.546875 
Q 21.828125 26.765625 23.90625 25.921875 
Q 25.984375 25.09375 28 24.0625 
Q 30.03125 23.046875 31.59375 21.578125 
Q 33.15625 20.125 34.109375 18.0625 
Q 35.0625 16.015625 35.0625 13.1875 
z
" id="Calibri-115"/>
      </defs>
      <g style="fill:#696969;" transform="translate(440.376206 446.553175)rotate(-90)scale(0.16 -0.16)">
       <use xlink:href="#Calibri-66"/>
       <use x="54.394531" xlink:href="#Calibri-105"/>
       <use x="77.34375" xlink:href="#Calibri-110"/>
       <use x="129.882812" xlink:href="#Calibri-97"/>
       <use x="177.783203" xlink:href="#Calibri-114"/>
       <use x="212.646484" xlink:href="#Calibri-105"/>
       <use x="235.595703" xlink:href="#Calibri-101"/>
       <use x="285.351562" xlink:href="#Calibri-115"/>
      </g>
     </g>
    </g>
    <g id="xtick_7">
     <g id="text_7">
      <!-- Containers -->
      <defs>
       <path d="M 50.59375 8.9375 
Q 50.59375 8.15625 50.53125 7.5625 
Q 50.484375 6.984375 50.359375 6.546875 
Q 50.25 6.109375 50.046875 5.765625 
Q 49.859375 5.421875 49.359375 4.921875 
Q 48.875 4.4375 47.3125 3.4375 
Q 45.75 2.4375 43.421875 1.484375 
Q 41.109375 0.53125 38.109375 -0.125 
Q 35.109375 -0.78125 31.546875 -0.78125 
Q 25.390625 -0.78125 20.4375 1.265625 
Q 15.484375 3.328125 11.984375 7.328125 
Q 8.5 11.328125 6.609375 17.203125 
Q 4.734375 23.09375 4.734375 30.765625 
Q 4.734375 38.625 6.765625 44.765625 
Q 8.796875 50.921875 12.453125 55.1875 
Q 16.109375 59.46875 21.203125 61.71875 
Q 26.3125 63.96875 32.515625 63.96875 
Q 35.25 63.96875 37.84375 63.453125 
Q 40.4375 62.9375 42.625 62.15625 
Q 44.828125 61.375 46.53125 60.34375 
Q 48.25 59.328125 48.90625 58.671875 
Q 49.5625 58.015625 49.75 57.671875 
Q 49.953125 57.328125 50.078125 56.859375 
Q 50.203125 56.390625 50.265625 55.75 
Q 50.34375 55.125 50.34375 54.25 
Q 50.34375 53.265625 50.234375 52.578125 
Q 50.140625 51.90625 49.9375 51.4375 
Q 49.75 50.984375 49.484375 50.75 
Q 49.21875 50.53125 48.828125 50.53125 
Q 48.140625 50.53125 46.921875 51.484375 
Q 45.703125 52.4375 43.765625 53.578125 
Q 41.84375 54.734375 39.078125 55.6875 
Q 36.328125 56.640625 32.46875 56.640625 
Q 28.265625 56.640625 24.828125 54.953125 
Q 21.390625 53.265625 18.9375 50 
Q 16.5 46.734375 15.15625 42.015625 
Q 13.8125 37.3125 13.8125 31.25 
Q 13.8125 25.25 15.109375 20.625 
Q 16.40625 16.015625 18.8125 12.90625 
Q 21.234375 9.8125 24.75 8.21875 
Q 28.265625 6.640625 32.71875 6.640625 
Q 36.46875 6.640625 39.28125 7.5625 
Q 42.09375 8.5 44.0625 9.640625 
Q 46.046875 10.796875 47.3125 11.71875 
Q 48.578125 12.640625 49.3125 12.640625 
Q 49.65625 12.640625 49.890625 12.5 
Q 50.140625 12.359375 50.28125 11.9375 
Q 50.4375 11.53125 50.515625 10.796875 
Q 50.59375 10.0625 50.59375 8.9375 
z
" id="Calibri-67"/>
      </defs>
      <g style="fill:#696969;" transform="translate(508.723059 464.915675)rotate(-90)scale(0.16 -0.16)">
       <use xlink:href="#Calibri-67"/>
       <use x="53.320312" xlink:href="#Calibri-111"/>
       <use x="106.054688" xlink:href="#Calibri-110"/>
       <use x="158.59375" xlink:href="#Calibri-116"/>
       <use x="192.089844" xlink:href="#Calibri-97"/>
       <use x="239.990234" xlink:href="#Calibri-105"/>
       <use x="262.939453" xlink:href="#Calibri-110"/>
       <use x="315.478516" xlink:href="#Calibri-101"/>
       <use x="365.234375" xlink:href="#Calibri-114"/>
       <use x="400.097656" xlink:href="#Calibri-115"/>
      </g>
     </g>
    </g>
   </g>
   <g id="matplotlib.axis_2">
    <g id="ytick_1">
     <g id="line2d_1">
      <path clip-path="url(#p51efee1bc5)" d="M 55.32375 385.138175 
L 544.00375 385.138175 
" style="fill:none;stroke:#eeeeee;stroke-linecap:round;"/>
     </g>
     <g id="text_8">
      <!-- 0 -->
      <defs>
       <path d="M 47.21875 31.734375 
Q 47.21875 24.46875 46.0625 18.453125 
Q 44.921875 12.453125 42.25 8.125 
Q 39.59375 3.8125 35.296875 1.4375 
Q 31 -0.921875 24.703125 -0.921875 
Q 18.75 -0.921875 14.671875 1.203125 
Q 10.59375 3.328125 8.09375 7.453125 
Q 5.609375 11.578125 4.5625 17.609375 
Q 3.515625 23.640625 3.515625 31.453125 
Q 3.515625 38.671875 4.6875 44.703125 
Q 5.859375 50.734375 8.5 55.046875 
Q 11.140625 59.375 15.4375 61.734375 
Q 19.734375 64.109375 25.984375 64.109375 
Q 31.984375 64.109375 36.0625 61.984375 
Q 40.140625 59.859375 42.625 55.734375 
Q 45.125 51.609375 46.171875 45.578125 
Q 47.21875 39.546875 47.21875 31.734375 
z
M 38.625 31.15625 
Q 38.625 35.890625 38.28125 39.640625 
Q 37.9375 43.40625 37.28125 46.28125 
Q 36.625 49.171875 35.5625 51.25 
Q 34.515625 53.328125 33.046875 54.65625 
Q 31.59375 56 29.703125 56.609375 
Q 27.828125 57.234375 25.484375 57.234375 
Q 21.34375 57.234375 18.75 55.28125 
Q 16.15625 53.328125 14.671875 49.90625 
Q 13.1875 46.484375 12.640625 41.890625 
Q 12.109375 37.3125 12.109375 32.03125 
Q 12.109375 24.953125 12.84375 20 
Q 13.578125 15.046875 15.15625 11.921875 
Q 16.75 8.796875 19.21875 7.375 
Q 21.6875 5.953125 25.203125 5.953125 
Q 27.9375 5.953125 30 6.828125 
Q 32.078125 7.71875 33.5625 9.34375 
Q 35.0625 10.984375 36.03125 13.28125 
Q 37.015625 15.578125 37.59375 18.359375 
Q 38.1875 21.140625 38.40625 24.390625 
Q 38.625 27.640625 38.625 31.15625 
z
" id="Calibri-48"/>
      </defs>
      <g style="fill:#696969;" transform="translate(37.71375 390.579425)scale(0.16 -0.16)">
       <use xlink:href="#Calibri-48"/>
      </g>
     </g>
    </g>
    <g id="ytick_2">
     <g id="line2d_2">
      <path clip-path="url(#p51efee1bc5)" d="M 55.32375 312.925265 
L 544.00375 312.925265 
" style="fill:none;stroke:#eeeeee;stroke-linecap:round;"/>
     </g>
     <g id="text_9">
      <!-- 2 -->
      <defs>
       <path d="M 45.125 3.609375 
Q 45.125 2.734375 45 2.046875 
Q 44.875 1.375 44.65625 0.90625 
Q 44.4375 0.4375 44.0625 0.21875 
Q 43.703125 0 43.265625 0 
L 8.34375 0 
Q 7.671875 0 7.15625 0.171875 
Q 6.640625 0.34375 6.265625 0.734375 
Q 5.90625 1.125 5.734375 1.859375 
Q 5.5625 2.59375 5.5625 3.65625 
Q 5.5625 4.640625 5.640625 5.375 
Q 5.71875 6.109375 5.953125 6.671875 
Q 6.203125 7.234375 6.5625 7.78125 
Q 6.9375 8.34375 7.515625 8.984375 
L 19.78125 21.96875 
Q 24.03125 26.46875 26.59375 30.03125 
Q 29.15625 33.59375 30.546875 36.515625 
Q 31.9375 39.453125 32.375 41.84375 
Q 32.8125 44.234375 32.8125 46.34375 
Q 32.8125 48.4375 32.125 50.3125 
Q 31.453125 52.203125 30.15625 53.609375 
Q 28.859375 55.03125 26.90625 55.859375 
Q 24.953125 56.6875 22.40625 56.6875 
Q 19.4375 56.6875 17.0625 55.859375 
Q 14.703125 55.03125 12.921875 54.046875 
Q 11.140625 53.078125 9.9375 52.25 
Q 8.734375 51.421875 8.15625 51.421875 
Q 7.8125 51.421875 7.546875 51.609375 
Q 7.28125 51.8125 7.109375 52.25 
Q 6.9375 52.6875 6.828125 53.421875 
Q 6.734375 54.15625 6.734375 55.171875 
Q 6.734375 55.90625 6.78125 56.4375 
Q 6.84375 56.984375 6.953125 57.375 
Q 7.078125 57.765625 7.265625 58.109375 
Q 7.46875 58.453125 8.046875 58.953125 
Q 8.640625 59.46875 10.078125 60.34375 
Q 11.53125 61.234375 13.703125 62.078125 
Q 15.875 62.9375 18.484375 63.515625 
Q 21.09375 64.109375 23.96875 64.109375 
Q 28.5625 64.109375 32 62.8125 
Q 35.453125 61.53125 37.71875 59.28125 
Q 39.984375 57.03125 41.109375 54.046875 
Q 42.234375 51.078125 42.234375 47.703125 
Q 42.234375 44.671875 41.6875 41.671875 
Q 41.15625 38.671875 39.421875 35.171875 
Q 37.703125 31.6875 34.421875 27.40625 
Q 31.15625 23.140625 25.734375 17.578125 
L 15.71875 7.125 
L 43.21875 7.125 
Q 43.609375 7.125 43.96875 6.90625 
Q 44.34375 6.6875 44.609375 6.25 
Q 44.875 5.8125 45 5.15625 
Q 45.125 4.5 45.125 3.609375 
z
" id="Calibri-50"/>
      </defs>
      <g style="fill:#696969;" transform="translate(37.71375 318.366515)scale(0.16 -0.16)">
       <use xlink:href="#Calibri-50"/>
      </g>
     </g>
    </g>
    <g id="ytick_3">
     <g id="line2d_3">
      <path clip-path="url(#p51efee1bc5)" d="M 55.32375 240.712355 
L 544.00375 240.712355 
" style="fill:none;stroke:#eeeeee;stroke-linecap:round;"/>
     </g>
     <g id="text_10">
      <!-- 4 -->
      <defs>
       <path d="M 47.796875 17.96875 
Q 47.796875 16.359375 47.3125 15.421875 
Q 46.828125 14.5 45.953125 14.5 
L 38.8125 14.5 
L 38.8125 1.21875 
Q 38.8125 0.828125 38.609375 0.5625 
Q 38.421875 0.296875 37.9375 0.09375 
Q 37.453125 -0.09375 36.671875 -0.1875 
Q 35.890625 -0.296875 34.671875 -0.296875 
Q 33.5 -0.296875 32.71875 -0.1875 
Q 31.9375 -0.09375 31.46875 0.09375 
Q 31 0.296875 30.828125 0.5625 
Q 30.671875 0.828125 30.671875 1.21875 
L 30.671875 14.5 
L 4.59375 14.5 
Q 4 14.5 3.609375 14.640625 
Q 3.21875 14.796875 2.90625 15.1875 
Q 2.59375 15.578125 2.46875 16.3125 
Q 2.34375 17.046875 2.34375 18.21875 
Q 2.34375 19.140625 2.390625 19.875 
Q 2.4375 20.609375 2.578125 21.21875 
Q 2.734375 21.828125 2.96875 22.390625 
Q 3.21875 22.953125 3.5625 23.578125 
L 26.3125 61.96875 
Q 26.5625 62.359375 27.015625 62.640625 
Q 27.484375 62.9375 28.21875 63.125 
Q 28.953125 63.328125 30.03125 63.40625 
Q 31.109375 63.484375 32.5625 63.484375 
Q 34.1875 63.484375 35.375 63.359375 
Q 36.578125 63.234375 37.296875 63.03125 
Q 38.03125 62.84375 38.421875 62.515625 
Q 38.8125 62.203125 38.8125 61.765625 
L 38.8125 21.4375 
L 45.953125 21.4375 
Q 46.78125 21.4375 47.28125 20.578125 
Q 47.796875 19.734375 47.796875 17.96875 
z
M 30.671875 56.109375 
L 30.5625 56.109375 
L 10.015625 21.4375 
L 30.671875 21.4375 
z
" id="Calibri-52"/>
      </defs>
      <g style="fill:#696969;" transform="translate(37.71375 246.153605)scale(0.16 -0.16)">
       <use xlink:href="#Calibri-52"/>
      </g>
     </g>
    </g>
    <g id="ytick_4">
     <g id="line2d_4">
      <path clip-path="url(#p51efee1bc5)" d="M 55.32375 168.499445 
L 544.00375 168.499445 
" style="fill:none;stroke:#eeeeee;stroke-linecap:round;"/>
     </g>
     <g id="text_11">
      <!-- 6 -->
      <defs>
       <path d="M 46.734375 20.453125 
Q 46.734375 16.3125 45.453125 12.421875 
Q 44.1875 8.546875 41.546875 5.59375 
Q 38.921875 2.640625 34.859375 0.859375 
Q 30.8125 -0.921875 25.296875 -0.921875 
Q 21.34375 -0.921875 18.3125 0.046875 
Q 15.28125 1.03125 13.03125 2.828125 
Q 10.796875 4.640625 9.296875 7.265625 
Q 7.8125 9.90625 6.90625 13.28125 
Q 6 16.65625 5.609375 20.65625 
Q 5.21875 24.65625 5.21875 29.25 
Q 5.21875 33.296875 5.65625 37.453125 
Q 6.109375 41.609375 7.21875 45.453125 
Q 8.34375 49.3125 10.265625 52.703125 
Q 12.203125 56.109375 15.109375 58.625 
Q 18.015625 61.140625 22.0625 62.59375 
Q 26.125 64.0625 31.5 64.0625 
Q 33.296875 64.0625 35.15625 63.84375 
Q 37.015625 63.625 38.578125 63.25 
Q 40.140625 62.890625 41.203125 62.453125 
Q 42.28125 62.015625 42.625 61.734375 
Q 42.96875 61.46875 43.140625 61.15625 
Q 43.3125 60.84375 43.40625 60.46875 
Q 43.5 60.109375 43.546875 59.640625 
Q 43.609375 59.1875 43.609375 58.5 
Q 43.609375 57.625 43.578125 56.984375 
Q 43.5625 56.34375 43.390625 55.953125 
Q 43.21875 55.5625 42.9375 55.359375 
Q 42.671875 55.171875 42.234375 55.171875 
Q 41.703125 55.171875 40.765625 55.515625 
Q 39.84375 55.859375 38.515625 56.265625 
Q 37.203125 56.6875 35.328125 57.03125 
Q 33.453125 57.375 30.953125 57.375 
Q 26.421875 57.375 23.140625 55.515625 
Q 19.875 53.65625 17.796875 50.53125 
Q 15.71875 47.40625 14.71875 43.28125 
Q 13.71875 39.15625 13.578125 34.671875 
Q 14.84375 35.40625 16.421875 36.125 
Q 18.015625 36.859375 19.890625 37.4375 
Q 21.78125 38.03125 23.875 38.390625 
Q 25.984375 38.765625 28.375 38.765625 
Q 33.5 38.765625 37.015625 37.375 
Q 40.53125 35.984375 42.703125 33.515625 
Q 44.875 31.0625 45.796875 27.703125 
Q 46.734375 24.359375 46.734375 20.453125 
z
M 38.234375 19.671875 
Q 38.234375 22.515625 37.671875 24.828125 
Q 37.109375 27.15625 35.78125 28.765625 
Q 34.46875 30.375 32.265625 31.25 
Q 30.078125 32.125 26.859375 32.125 
Q 25.046875 32.125 23.234375 31.8125 
Q 21.4375 31.5 19.75 30.9375 
Q 18.0625 30.375 16.515625 29.609375 
Q 14.984375 28.859375 13.71875 27.984375 
Q 13.71875 21.6875 14.515625 17.4375 
Q 15.328125 13.1875 16.859375 10.625 
Q 18.40625 8.0625 20.703125 6.953125 
Q 23 5.859375 26.078125 5.859375 
Q 29.203125 5.859375 31.5 7.03125 
Q 33.796875 8.203125 35.296875 10.171875 
Q 36.8125 12.15625 37.515625 14.625 
Q 38.234375 17.09375 38.234375 19.671875 
z
" id="Calibri-54"/>
      </defs>
      <g style="fill:#696969;" transform="translate(37.71375 173.940695)scale(0.16 -0.16)">
       <use xlink:href="#Calibri-54"/>
      </g>
     </g>
    </g>
    <g id="ytick_5">
     <g id="line2d_5">
      <path clip-path="url(#p51efee1bc5)" d="M 55.32375 96.286535 
L 544.00375 96.286535 
" style="fill:none;stroke:#eeeeee;stroke-linecap:round;"/>
     </g>
     <g id="text_12">
      <!-- 8 -->
      <defs>
       <path d="M 46.578125 16.21875 
Q 46.578125 12.109375 45.109375 8.90625 
Q 43.65625 5.71875 40.890625 3.515625 
Q 38.140625 1.3125 34.078125 0.1875 
Q 30.03125 -0.921875 24.8125 -0.921875 
Q 19.921875 -0.921875 16.0625 0.09375 
Q 12.203125 1.125 9.515625 3.125 
Q 6.84375 5.125 5.421875 8.046875 
Q 4 10.984375 4 14.75 
Q 4 17.71875 4.96875 20.203125 
Q 5.953125 22.703125 7.78125 24.796875 
Q 9.625 26.90625 12.296875 28.734375 
Q 14.984375 30.5625 18.359375 32.234375 
Q 15.4375 33.734375 13.1875 35.421875 
Q 10.9375 37.109375 9.375 39.078125 
Q 7.8125 41.0625 7 43.3125 
Q 6.203125 45.5625 6.203125 48.1875 
Q 6.203125 51.515625 7.390625 54.421875 
Q 8.59375 57.328125 11 59.46875 
Q 13.421875 61.625 17.15625 62.859375 
Q 20.90625 64.109375 25.875 64.109375 
Q 30.671875 64.109375 34.15625 62.953125 
Q 37.640625 61.8125 39.90625 59.828125 
Q 42.1875 57.859375 43.265625 55.171875 
Q 44.34375 52.484375 44.34375 49.421875 
Q 44.34375 46.921875 43.53125 44.625 
Q 42.71875 42.328125 41.15625 40.28125 
Q 39.59375 38.234375 37.328125 36.453125 
Q 35.0625 34.671875 32.125 33.109375 
Q 35.59375 31.390625 38.296875 29.578125 
Q 41.015625 27.78125 42.84375 25.703125 
Q 44.671875 23.640625 45.625 21.3125 
Q 46.578125 19 46.578125 16.21875 
z
M 36.03125 48.640625 
Q 36.03125 50.6875 35.328125 52.34375 
Q 34.625 54 33.25 55.171875 
Q 31.890625 56.34375 29.859375 56.953125 
Q 27.828125 57.5625 25.25 57.5625 
Q 19.96875 57.5625 17.25 55.171875 
Q 14.546875 52.78125 14.546875 48.640625 
Q 14.546875 46.734375 15.203125 45.09375 
Q 15.875 43.453125 17.265625 41.984375 
Q 18.65625 40.53125 20.78125 39.140625 
Q 22.90625 37.75 25.828125 36.234375 
Q 30.765625 38.765625 33.390625 41.84375 
Q 36.03125 44.921875 36.03125 48.640625 
z
M 38.09375 15.328125 
Q 38.09375 17.578125 37.25 19.40625 
Q 36.421875 21.234375 34.734375 22.828125 
Q 33.0625 24.421875 30.546875 25.90625 
Q 28.03125 27.390625 24.703125 29 
Q 21.625 27.484375 19.3125 25.96875 
Q 17 24.46875 15.5 22.84375 
Q 14.015625 21.234375 13.25 19.453125 
Q 12.5 17.671875 12.5 15.53125 
Q 12.5 10.796875 15.75 8.203125 
Q 19 5.609375 25.4375 5.609375 
Q 31.6875 5.609375 34.890625 8.21875 
Q 38.09375 10.84375 38.09375 15.328125 
z
" id="Calibri-56"/>
      </defs>
      <g style="fill:#696969;" transform="translate(37.71375 101.727785)scale(0.16 -0.16)">
       <use xlink:href="#Calibri-56"/>
      </g>
     </g>
    </g>
    <g id="text_13">
     <!-- Number of studies suggesting -->
     <defs>
      <path d="M 56.15625 3.46875 
Q 56.15625 2.484375 55.828125 1.796875 
Q 55.515625 1.125 55 0.6875 
Q 54.5 0.25 53.859375 0.046875 
Q 53.21875 -0.140625 52.59375 -0.140625 
L 49.90625 -0.140625 
Q 48.640625 -0.140625 47.6875 0.125 
Q 46.734375 0.390625 45.875 1.09375 
Q 45.015625 1.8125 44.15625 3.03125 
Q 43.3125 4.25 42.28125 6.15625 
L 22.359375 42.09375 
Q 20.796875 44.875 19.203125 47.921875 
Q 17.625 50.984375 16.265625 53.859375 
L 16.15625 53.859375 
Q 16.265625 50.34375 16.3125 46.671875 
Q 16.359375 43.015625 16.359375 39.40625 
L 16.359375 1.265625 
Q 16.359375 0.921875 16.15625 0.609375 
Q 15.96875 0.296875 15.5 0.125 
Q 15.046875 -0.046875 14.28125 -0.171875 
Q 13.53125 -0.296875 12.359375 -0.296875 
Q 11.1875 -0.296875 10.421875 -0.171875 
Q 9.671875 -0.046875 9.234375 0.125 
Q 8.796875 0.296875 8.59375 0.609375 
Q 8.40625 0.921875 8.40625 1.265625 
L 8.40625 59.578125 
Q 8.40625 61.53125 9.46875 62.359375 
Q 10.546875 63.1875 11.8125 63.1875 
L 15.828125 63.1875 
Q 17.234375 63.1875 18.1875 62.9375 
Q 19.140625 62.703125 19.890625 62.140625 
Q 20.65625 61.578125 21.359375 60.578125 
Q 22.078125 59.578125 22.90625 58.0625 
L 38.234375 30.328125 
Q 39.65625 27.78125 40.96875 25.359375 
Q 42.28125 22.953125 43.5 20.609375 
Q 44.734375 18.265625 45.921875 15.984375 
Q 47.125 13.71875 48.296875 11.421875 
L 48.34375 11.421875 
Q 48.25 15.28125 48.21875 19.453125 
Q 48.1875 23.640625 48.1875 27.484375 
L 48.1875 61.765625 
Q 48.1875 62.109375 48.375 62.40625 
Q 48.578125 62.703125 49.046875 62.921875 
Q 49.515625 63.140625 50.265625 63.234375 
Q 51.03125 63.328125 52.25 63.328125 
Q 53.328125 63.328125 54.109375 63.234375 
Q 54.890625 63.140625 55.328125 62.921875 
Q 55.765625 62.703125 55.953125 62.40625 
Q 56.15625 62.109375 56.15625 61.765625 
z
" id="Calibri-78"/>
      <path d="M 72.65625 1.21875 
Q 72.65625 0.828125 72.453125 0.5625 
Q 72.265625 0.296875 71.828125 0.09375 
Q 71.390625 -0.09375 70.609375 -0.1875 
Q 69.828125 -0.296875 68.65625 -0.296875 
Q 67.4375 -0.296875 66.65625 -0.1875 
Q 65.875 -0.09375 65.40625 0.09375 
Q 64.9375 0.296875 64.734375 0.5625 
Q 64.546875 0.828125 64.546875 1.21875 
L 64.546875 27.9375 
Q 64.546875 30.71875 64.0625 33 
Q 63.578125 35.296875 62.5 36.953125 
Q 61.421875 38.625 59.765625 39.5 
Q 58.109375 40.375 55.859375 40.375 
Q 53.078125 40.375 50.265625 38.21875 
Q 47.46875 36.078125 44.09375 31.9375 
L 44.09375 1.21875 
Q 44.09375 0.828125 43.890625 0.5625 
Q 43.703125 0.296875 43.234375 0.09375 
Q 42.78125 -0.09375 42 -0.1875 
Q 41.21875 -0.296875 40.046875 -0.296875 
Q 38.921875 -0.296875 38.109375 -0.1875 
Q 37.3125 -0.09375 36.84375 0.09375 
Q 36.375 0.296875 36.203125 0.5625 
Q 36.03125 0.828125 36.03125 1.21875 
L 36.03125 27.9375 
Q 36.03125 30.71875 35.5 33 
Q 34.96875 35.296875 33.890625 36.953125 
Q 32.8125 38.625 31.171875 39.5 
Q 29.546875 40.375 27.296875 40.375 
Q 24.515625 40.375 21.671875 38.21875 
Q 18.84375 36.078125 15.53125 31.9375 
L 15.53125 1.21875 
Q 15.53125 0.828125 15.328125 0.5625 
Q 15.140625 0.296875 14.703125 0.09375 
Q 14.265625 -0.09375 13.484375 -0.1875 
Q 12.703125 -0.296875 11.46875 -0.296875 
Q 10.296875 -0.296875 9.515625 -0.1875 
Q 8.734375 -0.09375 8.265625 0.09375 
Q 7.8125 0.296875 7.640625 0.5625 
Q 7.46875 0.828125 7.46875 1.21875 
L 7.46875 45.171875 
Q 7.46875 45.5625 7.609375 45.828125 
Q 7.765625 46.09375 8.203125 46.3125 
Q 8.640625 46.53125 9.328125 46.609375 
Q 10.015625 46.6875 11.140625 46.6875 
Q 12.203125 46.6875 12.90625 46.609375 
Q 13.625 46.53125 14.015625 46.3125 
Q 14.40625 46.09375 14.578125 45.828125 
Q 14.75 45.5625 14.75 45.171875 
L 14.75 39.359375 
Q 18.453125 43.5 21.9375 45.421875 
Q 25.4375 47.359375 29 47.359375 
Q 31.734375 47.359375 33.90625 46.71875 
Q 36.078125 46.09375 37.734375 44.9375 
Q 39.40625 43.796875 40.578125 42.203125 
Q 41.75 40.625 42.53125 38.671875 
Q 44.734375 41.0625 46.703125 42.71875 
Q 48.6875 44.390625 50.515625 45.40625 
Q 52.34375 46.4375 54.078125 46.890625 
Q 55.8125 47.359375 57.5625 47.359375 
Q 61.8125 47.359375 64.6875 45.875 
Q 67.578125 44.390625 69.359375 41.890625 
Q 71.140625 39.40625 71.890625 36.0625 
Q 72.65625 32.71875 72.65625 29 
z
" id="Calibri-109"/>
      <path d="M 31.546875 63.234375 
Q 31.546875 62.3125 31.4375 61.75 
Q 31.34375 61.1875 31.21875 60.84375 
Q 31.109375 60.5 30.90625 60.375 
Q 30.71875 60.25 30.421875 60.25 
Q 30.078125 60.25 29.5625 60.46875 
Q 29.046875 60.6875 28.3125 60.953125 
Q 27.59375 61.234375 26.59375 61.453125 
Q 25.59375 61.671875 24.265625 61.671875 
Q 22.46875 61.671875 21.1875 61.078125 
Q 19.921875 60.5 19.140625 59.25 
Q 18.359375 58.015625 18.015625 56.03125 
Q 17.671875 54.046875 17.671875 51.21875 
L 17.671875 46.4375 
L 27.484375 46.4375 
Q 27.875 46.4375 28.140625 46.265625 
Q 28.421875 46.09375 28.640625 45.671875 
Q 28.859375 45.265625 28.984375 44.625 
Q 29.109375 44 29.109375 43.0625 
Q 29.109375 41.3125 28.65625 40.53125 
Q 28.21875 39.75 27.484375 39.75 
L 17.671875 39.75 
L 17.671875 1.21875 
Q 17.671875 0.828125 17.46875 0.5625 
Q 17.28125 0.296875 16.8125 0.09375 
Q 16.359375 -0.09375 15.578125 -0.1875 
Q 14.796875 -0.296875 13.625 -0.296875 
Q 12.453125 -0.296875 11.671875 -0.1875 
Q 10.890625 -0.09375 10.421875 0.09375 
Q 9.96875 0.296875 9.765625 0.5625 
Q 9.578125 0.828125 9.578125 1.21875 
L 9.578125 39.75 
L 3.375 39.75 
Q 2.59375 39.75 2.203125 40.53125 
Q 1.8125 41.3125 1.8125 43.0625 
Q 1.8125 44 1.90625 44.625 
Q 2 45.265625 2.1875 45.671875 
Q 2.390625 46.09375 2.6875 46.265625 
Q 2.984375 46.4375 3.375 46.4375 
L 9.578125 46.4375 
L 9.578125 50.984375 
Q 9.578125 55.5625 10.421875 58.859375 
Q 11.28125 62.15625 13.03125 64.25 
Q 14.796875 66.359375 17.453125 67.359375 
Q 20.125 68.359375 23.734375 68.359375 
Q 25.4375 68.359375 27.046875 68.03125 
Q 28.65625 67.71875 29.53125 67.359375 
Q 30.421875 67 30.703125 66.703125 
Q 31 66.40625 31.1875 65.9375 
Q 31.390625 65.484375 31.46875 64.8125 
Q 31.546875 64.15625 31.546875 63.234375 
z
" id="Calibri-102"/>
      <path d="M 44.1875 43.171875 
Q 44.1875 41.453125 43.71875 40.6875 
Q 43.265625 39.9375 42.53125 39.9375 
L 36.234375 39.9375 
Q 37.9375 38.1875 38.625 36.0625 
Q 39.3125 33.9375 39.3125 31.640625 
Q 39.3125 27.828125 38.078125 24.890625 
Q 36.859375 21.96875 34.59375 19.9375 
Q 32.328125 17.921875 29.203125 16.84375 
Q 26.078125 15.765625 22.265625 15.765625 
Q 19.578125 15.765625 17.15625 16.46875 
Q 14.75 17.1875 13.421875 18.265625 
Q 12.546875 17.390625 11.984375 16.265625 
Q 11.421875 15.140625 11.421875 13.671875 
Q 11.421875 11.96875 13 10.84375 
Q 14.59375 9.71875 17.234375 9.625 
L 28.71875 9.125 
Q 31.984375 9.03125 34.71875 8.21875 
Q 37.453125 7.421875 39.453125 5.921875 
Q 41.453125 4.4375 42.578125 2.265625 
Q 43.703125 0.09375 43.703125 -2.78125 
Q 43.703125 -5.8125 42.421875 -8.546875 
Q 41.15625 -11.28125 38.546875 -13.359375 
Q 35.9375 -15.4375 31.875 -16.625 
Q 27.828125 -17.828125 22.3125 -17.828125 
Q 17 -17.828125 13.25 -16.921875 
Q 9.515625 -16.015625 7.125 -14.453125 
Q 4.734375 -12.890625 3.65625 -10.71875 
Q 2.59375 -8.546875 2.59375 -6 
Q 2.59375 -4.390625 2.984375 -2.875 
Q 3.375 -1.375 4.171875 0 
Q 4.984375 1.375 6.171875 2.609375 
Q 7.375 3.859375 8.9375 5.078125 
Q 6.546875 6.296875 5.390625 8.15625 
Q 4.25 10.015625 4.25 12.15625 
Q 4.25 15.140625 5.46875 17.484375 
Q 6.6875 19.828125 8.5 21.6875 
Q 6.984375 23.484375 6.09375 25.75 
Q 5.21875 28.03125 5.21875 31.25 
Q 5.21875 35.015625 6.484375 37.984375 
Q 7.765625 40.96875 10 43.015625 
Q 12.25 45.0625 15.40625 46.15625 
Q 18.5625 47.265625 22.265625 47.265625 
Q 24.265625 47.265625 26 47.046875 
Q 27.734375 46.828125 29.25 46.4375 
L 42.53125 46.4375 
Q 43.359375 46.4375 43.765625 45.625 
Q 44.1875 44.828125 44.1875 43.171875 
z
M 31.59375 31.59375 
Q 31.59375 36.078125 29.125 38.59375 
Q 26.65625 41.109375 22.125 41.109375 
Q 19.78125 41.109375 18.046875 40.328125 
Q 16.3125 39.546875 15.15625 38.171875 
Q 14.015625 36.8125 13.453125 35.03125 
Q 12.890625 33.25 12.890625 31.296875 
Q 12.890625 26.953125 15.359375 24.453125 
Q 17.828125 21.96875 22.265625 21.96875 
Q 24.65625 21.96875 26.40625 22.71875 
Q 28.171875 23.484375 29.3125 24.828125 
Q 30.46875 26.171875 31.03125 27.921875 
Q 31.59375 29.6875 31.59375 31.59375 
z
M 35.640625 -3.21875 
Q 35.640625 -0.390625 33.3125 1.140625 
Q 31 2.6875 27.046875 2.78125 
L 15.671875 3.171875 
Q 14.109375 1.953125 13.109375 0.84375 
Q 12.109375 -0.25 11.515625 -1.25 
Q 10.9375 -2.25 10.71875 -3.21875 
Q 10.5 -4.203125 10.5 -5.21875 
Q 10.5 -8.40625 13.71875 -10.03125 
Q 16.9375 -11.671875 22.703125 -11.671875 
Q 26.375 -11.671875 28.828125 -10.953125 
Q 31.296875 -10.25 32.8125 -9.078125 
Q 34.328125 -7.90625 34.984375 -6.390625 
Q 35.640625 -4.890625 35.640625 -3.21875 
z
" id="Calibri-103"/>
     </defs>
     <g style="fill:#333333;" transform="translate(19.504688 323.028769)rotate(-90)scale(0.18 -0.18)">
      <use xlink:href="#Calibri-78"/>
      <use x="64.550781" xlink:href="#Calibri-117"/>
      <use x="117.089844" xlink:href="#Calibri-109"/>
      <use x="196.972656" xlink:href="#Calibri-98"/>
      <use x="249.511719" xlink:href="#Calibri-101"/>
      <use x="299.267578" xlink:href="#Calibri-114"/>
      <use x="334.130859" xlink:href="#Calibri-32"/>
      <use x="356.738281" xlink:href="#Calibri-111"/>
      <use x="409.472656" xlink:href="#Calibri-102"/>
      <use x="439.990234" xlink:href="#Calibri-32"/>
      <use x="462.597656" xlink:href="#Calibri-115"/>
      <use x="501.708984" xlink:href="#Calibri-116"/>
      <use x="535.205078" xlink:href="#Calibri-117"/>
      <use x="587.744141" xlink:href="#Calibri-100"/>
      <use x="640.283203" xlink:href="#Calibri-105"/>
      <use x="663.232422" xlink:href="#Calibri-101"/>
      <use x="712.988281" xlink:href="#Calibri-115"/>
      <use x="752.099609" xlink:href="#Calibri-32"/>
      <use x="774.707031" xlink:href="#Calibri-115"/>
      <use x="813.818359" xlink:href="#Calibri-117"/>
      <use x="866.357422" xlink:href="#Calibri-103"/>
      <use x="913.427734" xlink:href="#Calibri-103"/>
      <use x="960.498047" xlink:href="#Calibri-101"/>
      <use x="1010.253906" xlink:href="#Calibri-115"/>
      <use x="1049.365234" xlink:href="#Calibri-116"/>
      <use x="1082.861328" xlink:href="#Calibri-105"/>
      <use x="1105.810547" xlink:href="#Calibri-110"/>
      <use x="1158.349609" xlink:href="#Calibri-103"/>
     </g>
    </g>
   </g>
   <g id="patch_3">
    <path clip-path="url(#p51efee1bc5)" d="M 77.536477 385.138175 
L 111.709904 385.138175 
L 111.709904 60.18008 
L 77.536477 60.18008 
z
" style="fill:#2563eb;stroke:#ffffff;stroke-linejoin:miter;"/>
   </g>
   <g id="patch_4">
    <path clip-path="url(#p51efee1bc5)" d="M 145.88333 385.138175 
L 180.056757 385.138175 
L 180.056757 96.286535 
L 145.88333 96.286535 
z
" style="fill:#2563eb;stroke:#ffffff;stroke-linejoin:miter;"/>
   </g>
   <g id="patch_5">
    <path clip-path="url(#p51efee1bc5)" d="M 214.230184 385.138175 
L 248.40361 385.138175 
L 248.40361 276.81881 
L 214.230184 276.81881 
z
" style="fill:#2563eb;stroke:#ffffff;stroke-linejoin:miter;"/>
   </g>
   <g id="patch_6">
    <path clip-path="url(#p51efee1bc5)" d="M 282.577037 385.138175 
L 316.750463 385.138175 
L 316.750463 276.81881 
L 282.577037 276.81881 
z
" style="fill:#2563eb;stroke:#ffffff;stroke-linejoin:miter;"/>
   </g>
   <g id="patch_7">
    <path clip-path="url(#p51efee1bc5)" d="M 350.92389 385.138175 
L 385.097316 385.138175 
L 385.097316 312.925265 
L 350.92389 312.925265 
z
" style="fill:#2563eb;stroke:#ffffff;stroke-linejoin:miter;"/>
   </g>
   <g id="patch_8">
    <path clip-path="url(#p51efee1bc5)" d="M 419.270743 385.138175 
L 453.44417 385.138175 
L 453.44417 349.03172 
L 419.270743 349.03172 
z
" style="fill:#2563eb;stroke:#ffffff;stroke-linejoin:miter;"/>
   </g>
   <g id="patch_9">
    <path clip-path="url(#p51efee1bc5)" d="M 487.617596 385.138175 
L 521.791023 385.138175 
L 521.791023 349.03172 
L 487.617596 349.03172 
z
" style="fill:#2563eb;stroke:#ffffff;stroke-linejoin:miter;"/>
   </g>
   <g id="patch_10">
    <path d="M 55.32375 385.138175 
L 544.00375 385.138175 
" style="fill:none;stroke:#d3d3d3;stroke-linecap:square;stroke-linejoin:miter;stroke-width:1.25;"/>
   </g>
   <g id="text_14">
    <!-- 9 -->
    <defs>
     <path d="M 45.609375 34.078125 
Q 45.609375 29.984375 45.109375 25.78125 
Q 44.625 21.578125 43.453125 17.6875 
Q 42.28125 13.8125 40.296875 10.421875 
Q 38.328125 7.03125 35.328125 4.484375 
Q 32.328125 1.953125 28.203125 0.515625 
Q 24.078125 -0.921875 18.609375 -0.921875 
Q 16.5 -0.921875 14.515625 -0.65625 
Q 12.546875 -0.390625 10.953125 0 
Q 9.375 0.390625 8.296875 0.828125 
Q 7.234375 1.265625 6.734375 1.703125 
Q 6.25 2.15625 6.03125 2.90625 
Q 5.8125 3.65625 5.8125 4.9375 
Q 5.8125 6 5.875 6.640625 
Q 5.953125 7.28125 6.09375 7.609375 
Q 6.25 7.953125 6.515625 8.078125 
Q 6.78125 8.203125 7.171875 8.203125 
Q 7.71875 8.203125 8.6875 7.828125 
Q 9.671875 7.46875 11.15625 7.03125 
Q 12.640625 6.59375 14.640625 6.21875 
Q 16.65625 5.859375 19.140625 5.859375 
Q 23.875 5.859375 27.265625 7.6875 
Q 30.671875 9.515625 32.8125 12.59375 
Q 34.96875 15.671875 36.03125 19.71875 
Q 37.109375 23.78125 37.203125 28.265625 
Q 34.625 26.765625 31 25.59375 
Q 27.390625 24.421875 22.703125 24.421875 
Q 17.4375 24.421875 13.84375 25.859375 
Q 10.25 27.296875 8.078125 29.78125 
Q 5.90625 32.28125 4.953125 35.6875 
Q 4 39.109375 4 43.171875 
Q 4 47.359375 5.21875 51.140625 
Q 6.453125 54.9375 9.03125 57.8125 
Q 11.625 60.6875 15.625 62.390625 
Q 19.625 64.109375 25.203125 64.109375 
Q 29.15625 64.109375 32.203125 63.109375 
Q 35.25 62.109375 37.5 60.21875 
Q 39.75 58.34375 41.3125 55.6875 
Q 42.875 53.03125 43.828125 49.65625 
Q 44.78125 46.296875 45.1875 42.359375 
Q 45.609375 38.421875 45.609375 34.078125 
z
M 37.0625 35.015625 
Q 37.0625 41.265625 36.234375 45.53125 
Q 35.40625 49.8125 33.78125 52.4375 
Q 32.171875 55.078125 29.828125 56.25 
Q 27.484375 57.421875 24.421875 57.421875 
Q 21.234375 57.421875 18.984375 56.265625 
Q 16.75 55.125 15.3125 53.1875 
Q 13.875 51.265625 13.1875 48.828125 
Q 12.5 46.390625 12.5 43.796875 
Q 12.5 40.921875 13.109375 38.53125 
Q 13.71875 36.140625 15.078125 34.46875 
Q 16.453125 32.8125 18.640625 31.90625 
Q 20.84375 31 24.078125 31 
Q 27.734375 31 31.15625 32.09375 
Q 34.578125 33.203125 37.0625 35.015625 
z
" id="Calibri-57"/>
    </defs>
    <g style="fill:#696969;" transform="translate(91.075066 56.569434)scale(0.14 -0.14)">
     <use xlink:href="#Calibri-57"/>
    </g>
   </g>
   <g id="text_15">
    <!-- 8 -->
    <g style="fill:#696969;" transform="translate(159.421919 92.675889)scale(0.14 -0.14)">
     <use xlink:href="#Calibri-56"/>
    </g>
   </g>
   <g id="text_16">
    <!-- 3 -->
    <defs>
     <path d="M 44.625 18.0625 
Q 44.625 13.71875 43.109375 10.21875 
Q 41.609375 6.734375 38.765625 4.25 
Q 35.9375 1.765625 31.78125 0.421875 
Q 27.640625 -0.921875 22.40625 -0.921875 
Q 19.234375 -0.921875 16.46875 -0.40625 
Q 13.71875 0.09375 11.5625 0.796875 
Q 9.421875 1.515625 8 2.265625 
Q 6.59375 3.03125 6.21875 3.375 
Q 5.859375 3.71875 5.65625 4.046875 
Q 5.46875 4.390625 5.3125 4.875 
Q 5.171875 5.375 5.09375 6.078125 
Q 5.03125 6.78125 5.03125 7.8125 
Q 5.03125 9.578125 5.375 10.25 
Q 5.71875 10.9375 6.34375 10.9375 
Q 6.78125 10.9375 8.078125 10.15625 
Q 9.375 9.375 11.390625 8.46875 
Q 13.421875 7.5625 16.125 6.78125 
Q 18.84375 6 22.171875 6 
Q 25.390625 6 27.828125 6.828125 
Q 30.28125 7.671875 31.9375 9.171875 
Q 33.59375 10.6875 34.421875 12.765625 
Q 35.25 14.84375 35.25 17.28125 
Q 35.25 19.96875 34.203125 22.109375 
Q 33.15625 24.265625 31.125 25.828125 
Q 29.109375 27.390625 26.140625 28.21875 
Q 23.1875 29.046875 19.4375 29.046875 
L 13.421875 29.046875 
Q 13.03125 29.046875 12.671875 29.21875 
Q 12.3125 29.390625 12.03125 29.78125 
Q 11.765625 30.171875 11.59375 30.8125 
Q 11.421875 31.453125 11.421875 32.46875 
Q 11.421875 33.40625 11.5625 34.015625 
Q 11.71875 34.625 11.984375 34.984375 
Q 12.25 35.359375 12.59375 35.515625 
Q 12.9375 35.6875 13.375 35.6875 
L 18.890625 35.6875 
Q 22.125 35.6875 24.6875 36.515625 
Q 27.25 37.359375 29.03125 38.921875 
Q 30.8125 40.484375 31.765625 42.65625 
Q 32.71875 44.828125 32.71875 47.515625 
Q 32.71875 49.46875 32.078125 51.25 
Q 31.453125 53.03125 30.171875 54.34375 
Q 28.90625 55.671875 26.921875 56.421875 
Q 24.953125 57.171875 22.359375 57.171875 
Q 19.53125 57.171875 17.15625 56.3125 
Q 14.796875 55.46875 12.9375 54.484375 
Q 11.078125 53.515625 9.859375 52.65625 
Q 8.640625 51.8125 8.15625 51.8125 
Q 7.8125 51.8125 7.546875 51.921875 
Q 7.28125 52.046875 7.109375 52.40625 
Q 6.9375 52.78125 6.859375 53.4375 
Q 6.78125 54.109375 6.78125 55.171875 
Q 6.78125 55.90625 6.828125 56.46875 
Q 6.890625 57.03125 7.03125 57.4375 
Q 7.171875 57.859375 7.359375 58.203125 
Q 7.5625 58.546875 8.03125 59 
Q 8.5 59.46875 9.90625 60.34375 
Q 11.328125 61.234375 13.40625 62.078125 
Q 15.484375 62.9375 18.1875 63.515625 
Q 20.90625 64.109375 24.03125 64.109375 
Q 28.421875 64.109375 31.734375 62.984375 
Q 35.0625 61.859375 37.28125 59.8125 
Q 39.5 57.765625 40.59375 54.90625 
Q 41.703125 52.046875 41.703125 48.578125 
Q 41.703125 45.609375 40.921875 43.046875 
Q 40.140625 40.484375 38.625 38.5 
Q 37.109375 36.53125 34.90625 35.125 
Q 32.71875 33.734375 29.828125 33.203125 
L 29.828125 33.109375 
Q 33.109375 32.765625 35.8125 31.46875 
Q 38.53125 30.171875 40.484375 28.21875 
Q 42.4375 26.265625 43.53125 23.65625 
Q 44.625 21.046875 44.625 18.0625 
z
" id="Calibri-51"/>
    </defs>
    <g style="fill:#696969;" transform="translate(227.768772 273.208164)scale(0.14 -0.14)">
     <use xlink:href="#Calibri-51"/>
    </g>
   </g>
   <g id="text_17">
    <!-- 3 -->
    <g style="fill:#696969;" transform="translate(296.115625 273.208164)scale(0.14 -0.14)">
     <use xlink:href="#Calibri-51"/>
    </g>
   </g>
   <g id="text_18">
    <!-- 2 -->
    <g style="fill:#696969;" transform="translate(364.462478 309.314619)scale(0.14 -0.14)">
     <use xlink:href="#Calibri-50"/>
    </g>
   </g>
   <g id="text_19">
    <!-- 1 -->
    <defs>
     <path d="M 45.265625 3.328125 
Q 45.265625 2.390625 45.109375 1.75 
Q 44.96875 1.125 44.71875 0.734375 
Q 44.484375 0.34375 44.15625 0.171875 
Q 43.84375 0 43.5 0 
L 10.5 0 
Q 10.15625 0 9.859375 0.171875 
Q 9.578125 0.34375 9.296875 0.734375 
Q 9.03125 1.125 8.875 1.75 
Q 8.734375 2.390625 8.734375 3.328125 
Q 8.734375 4.203125 8.875 4.828125 
Q 9.03125 5.46875 9.25 5.875 
Q 9.46875 6.296875 9.78125 6.515625 
Q 10.109375 6.734375 10.5 6.734375 
L 23.6875 6.734375 
L 23.6875 54.78125 
L 11.46875 47.515625 
Q 10.546875 47.015625 9.984375 46.921875 
Q 9.421875 46.828125 9.078125 47.140625 
Q 8.734375 47.46875 8.609375 48.1875 
Q 8.5 48.921875 8.5 50.046875 
Q 8.5 50.875 8.5625 51.453125 
Q 8.640625 52.046875 8.78125 52.4375 
Q 8.9375 52.828125 9.203125 53.125 
Q 9.46875 53.421875 9.90625 53.71875 
L 24.46875 63.03125 
Q 24.65625 63.1875 24.953125 63.28125 
Q 25.25 63.375 25.6875 63.46875 
Q 26.125 63.578125 26.703125 63.59375 
Q 27.296875 63.625 28.171875 63.625 
Q 29.34375 63.625 30.125 63.515625 
Q 30.90625 63.421875 31.34375 63.25 
Q 31.78125 63.09375 31.921875 62.8125 
Q 32.078125 62.546875 32.078125 62.25 
L 32.078125 6.734375 
L 43.5 6.734375 
Q 43.890625 6.734375 44.234375 6.515625 
Q 44.578125 6.296875 44.796875 5.875 
Q 45.015625 5.46875 45.140625 4.828125 
Q 45.265625 4.203125 45.265625 3.328125 
z
" id="Calibri-49"/>
    </defs>
    <g style="fill:#696969;" transform="translate(432.809331 345.421074)scale(0.14 -0.14)">
     <use xlink:href="#Calibri-49"/>
    </g>
   </g>
   <g id="text_20">
    <!-- 1 -->
    <g style="fill:#696969;" transform="translate(501.156184 345.421074)scale(0.14 -0.14)">
     <use xlink:href="#Calibri-49"/>
    </g>
   </g>
   <g id="text_21">
    <!-- Files suggested to be shared for a research software -->
    <defs>
     <path d="M 41.609375 59.578125 
Q 41.609375 58.640625 41.5 57.953125 
Q 41.40625 57.28125 41.15625 56.859375 
Q 40.921875 56.453125 40.59375 56.25 
Q 40.28125 56.0625 39.9375 56.0625 
L 16.796875 56.0625 
L 16.796875 34.578125 
L 38.671875 34.578125 
Q 39.015625 34.578125 39.328125 34.40625 
Q 39.65625 34.234375 39.890625 33.84375 
Q 40.140625 33.453125 40.234375 32.78125 
Q 40.328125 32.125 40.328125 31.109375 
Q 40.328125 30.171875 40.234375 29.515625 
Q 40.140625 28.859375 39.890625 28.4375 
Q 39.65625 28.03125 39.328125 27.8125 
Q 39.015625 27.59375 38.671875 27.59375 
L 16.796875 27.59375 
L 16.796875 1.265625 
Q 16.796875 0.921875 16.59375 0.609375 
Q 16.40625 0.296875 15.921875 0.125 
Q 15.4375 -0.046875 14.65625 -0.171875 
Q 13.875 -0.296875 12.59375 -0.296875 
Q 11.421875 -0.296875 10.59375 -0.171875 
Q 9.765625 -0.046875 9.28125 0.125 
Q 8.796875 0.296875 8.59375 0.609375 
Q 8.40625 0.921875 8.40625 1.265625 
L 8.40625 59.765625 
Q 8.40625 61.671875 9.40625 62.421875 
Q 10.40625 63.1875 11.53125 63.1875 
L 39.9375 63.1875 
Q 40.28125 63.1875 40.59375 62.984375 
Q 40.921875 62.796875 41.15625 62.359375 
Q 41.40625 61.921875 41.5 61.203125 
Q 41.609375 60.5 41.609375 59.578125 
z
" id="Calibri-70"/>
     <path d="M 45.3125 1.21875 
Q 45.3125 0.828125 45.109375 0.5625 
Q 44.921875 0.296875 44.484375 0.09375 
Q 44.046875 -0.09375 43.265625 -0.1875 
Q 42.484375 -0.296875 41.3125 -0.296875 
Q 40.09375 -0.296875 39.3125 -0.1875 
Q 38.53125 -0.09375 38.078125 0.09375 
Q 37.640625 0.296875 37.4375 0.5625 
Q 37.25 0.828125 37.25 1.21875 
L 37.25 26.953125 
Q 37.25 30.71875 36.65625 33 
Q 36.078125 35.296875 34.953125 36.953125 
Q 33.84375 38.625 32.0625 39.5 
Q 30.28125 40.375 27.9375 40.375 
Q 24.90625 40.375 21.875 38.21875 
Q 18.84375 36.078125 15.53125 31.9375 
L 15.53125 1.21875 
Q 15.53125 0.828125 15.328125 0.5625 
Q 15.140625 0.296875 14.703125 0.09375 
Q 14.265625 -0.09375 13.484375 -0.1875 
Q 12.703125 -0.296875 11.46875 -0.296875 
Q 10.296875 -0.296875 9.515625 -0.1875 
Q 8.734375 -0.09375 8.265625 0.09375 
Q 7.8125 0.296875 7.640625 0.5625 
Q 7.46875 0.828125 7.46875 1.21875 
L 7.46875 66.453125 
Q 7.46875 66.84375 7.640625 67.140625 
Q 7.8125 67.4375 8.265625 67.625 
Q 8.734375 67.828125 9.515625 67.921875 
Q 10.296875 68.015625 11.46875 68.015625 
Q 12.703125 68.015625 13.484375 67.921875 
Q 14.265625 67.828125 14.703125 67.625 
Q 15.140625 67.4375 15.328125 67.140625 
Q 15.53125 66.84375 15.53125 66.453125 
L 15.53125 40.140625 
Q 19 43.796875 22.515625 45.578125 
Q 26.03125 47.359375 29.59375 47.359375 
Q 33.984375 47.359375 36.984375 45.875 
Q 39.984375 44.390625 41.84375 41.890625 
Q 43.703125 39.40625 44.5 36.0625 
Q 45.3125 32.71875 45.3125 27.984375 
z
" id="Calibri-104"/>
     <path d="M 68.953125 45.265625 
Q 68.953125 44.921875 68.84375 44.4375 
Q 68.75 43.953125 68.5 43.21875 
L 55.5625 1.46875 
Q 55.421875 0.921875 55.09375 0.578125 
Q 54.78125 0.25 54.21875 0.046875 
Q 53.65625 -0.140625 52.671875 -0.21875 
Q 51.703125 -0.296875 50.25 -0.296875 
Q 48.734375 -0.296875 47.703125 -0.1875 
Q 46.6875 -0.09375 46.0625 0.09375 
Q 45.453125 0.296875 45.15625 0.640625 
Q 44.875 0.984375 44.734375 1.46875 
L 35.5 33.34375 
L 35.40625 33.796875 
L 35.296875 33.34375 
L 26.765625 1.46875 
Q 26.609375 0.921875 26.296875 0.578125 
Q 25.984375 0.25 25.34375 0.046875 
Q 24.703125 -0.140625 23.703125 -0.21875 
Q 22.703125 -0.296875 21.234375 -0.296875 
Q 19.734375 -0.296875 18.78125 -0.1875 
Q 17.828125 -0.09375 17.21875 0.09375 
Q 16.609375 0.296875 16.3125 0.640625 
Q 16.015625 0.984375 15.875 1.46875 
L 3.03125 43.21875 
Q 2.78125 43.953125 2.6875 44.4375 
Q 2.59375 44.921875 2.59375 45.265625 
Q 2.59375 45.703125 2.78125 45.96875 
Q 2.984375 46.234375 3.4375 46.40625 
Q 3.90625 46.578125 4.6875 46.625 
Q 5.46875 46.6875 6.59375 46.6875 
Q 7.953125 46.6875 8.78125 46.609375 
Q 9.625 46.53125 10.0625 46.359375 
Q 10.5 46.1875 10.6875 45.875 
Q 10.890625 45.5625 11.03125 45.125 
L 21.625 8.890625 
L 21.734375 8.453125 
L 21.828125 8.890625 
L 31.546875 45.125 
Q 31.640625 45.5625 31.859375 45.875 
Q 32.078125 46.1875 32.515625 46.359375 
Q 32.953125 46.53125 33.703125 46.609375 
Q 34.46875 46.6875 35.6875 46.6875 
Q 36.859375 46.6875 37.609375 46.609375 
Q 38.375 46.53125 38.8125 46.359375 
Q 39.265625 46.1875 39.453125 45.890625 
Q 39.65625 45.609375 39.75 45.21875 
L 50.25 8.890625 
L 50.34375 8.453125 
L 50.390625 8.890625 
L 60.84375 45.125 
Q 60.9375 45.5625 61.15625 45.875 
Q 61.375 46.1875 61.84375 46.359375 
Q 62.3125 46.53125 63.109375 46.609375 
Q 63.921875 46.6875 65.1875 46.6875 
Q 66.359375 46.6875 67.0625 46.625 
Q 67.78125 46.578125 68.1875 46.375 
Q 68.609375 46.1875 68.78125 45.9375 
Q 68.953125 45.703125 68.953125 45.265625 
z
" id="Calibri-119"/>
    </defs>
    <g style="fill:#333333;" transform="translate(88.23875 20.871875)scale(0.2 -0.2)">
     <use xlink:href="#Calibri-70"/>
     <use x="45.947266" xlink:href="#Calibri-105"/>
     <use x="68.896484" xlink:href="#Calibri-108"/>
     <use x="91.845703" xlink:href="#Calibri-101"/>
     <use x="141.601562" xlink:href="#Calibri-115"/>
     <use x="180.712891" xlink:href="#Calibri-32"/>
     <use x="203.320312" xlink:href="#Calibri-115"/>
     <use x="242.431641" xlink:href="#Calibri-117"/>
     <use x="294.970703" xlink:href="#Calibri-103"/>
     <use x="342.041016" xlink:href="#Calibri-103"/>
     <use x="389.111328" xlink:href="#Calibri-101"/>
     <use x="438.867188" xlink:href="#Calibri-115"/>
     <use x="477.978516" xlink:href="#Calibri-116"/>
     <use x="511.474609" xlink:href="#Calibri-101"/>
     <use x="561.230469" xlink:href="#Calibri-100"/>
     <use x="613.769531" xlink:href="#Calibri-32"/>
     <use x="636.376953" xlink:href="#Calibri-116"/>
     <use x="669.873047" xlink:href="#Calibri-111"/>
     <use x="722.607422" xlink:href="#Calibri-32"/>
     <use x="745.214844" xlink:href="#Calibri-98"/>
     <use x="797.753906" xlink:href="#Calibri-101"/>
     <use x="847.509766" xlink:href="#Calibri-32"/>
     <use x="870.117188" xlink:href="#Calibri-115"/>
     <use x="909.228516" xlink:href="#Calibri-104"/>
     <use x="961.767578" xlink:href="#Calibri-97"/>
     <use x="1009.667969" xlink:href="#Calibri-114"/>
     <use x="1044.53125" xlink:href="#Calibri-101"/>
     <use x="1094.287109" xlink:href="#Calibri-100"/>
     <use x="1146.826172" xlink:href="#Calibri-32"/>
     <use x="1169.433594" xlink:href="#Calibri-102"/>
     <use x="1199.951172" xlink:href="#Calibri-111"/>
     <use x="1252.685547" xlink:href="#Calibri-114"/>
     <use x="1287.548828" xlink:href="#Calibri-32"/>
     <use x="1310.15625" xlink:href="#Calibri-97"/>
     <use x="1358.056641" xlink:href="#Calibri-32"/>
     <use x="1380.664062" xlink:href="#Calibri-114"/>
     <use x="1415.527344" xlink:href="#Calibri-101"/>
     <use x="1465.283203" xlink:href="#Calibri-115"/>
     <use x="1504.394531" xlink:href="#Calibri-101"/>
     <use x="1554.150391" xlink:href="#Calibri-97"/>
     <use x="1602.050781" xlink:href="#Calibri-114"/>
     <use x="1636.914062" xlink:href="#Calibri-99"/>
     <use x="1679.199219" xlink:href="#Calibri-104"/>
     <use x="1731.738281" xlink:href="#Calibri-32"/>
     <use x="1754.345703" xlink:href="#Calibri-115"/>
     <use x="1793.457031" xlink:href="#Calibri-111"/>
     <use x="1846.191406" xlink:href="#Calibri-102"/>
     <use x="1876.708984" xlink:href="#Calibri-116"/>
     <use x="1910.205078" xlink:href="#Calibri-119"/>
     <use x="1981.689453" xlink:href="#Calibri-97"/>
     <use x="2029.589844" xlink:href="#Calibri-114"/>
     <use x="2064.453125" xlink:href="#Calibri-101"/>
    </g>
   </g>
  </g>
 </g>
 <defs>
  <clipPath id="p51efee1bc5">
   <rect height="341.206" width="488.68" x="55.32375" y="43.932175"/>
  </clipPath>
 </defs>
</svg>
