<?xml version="1.0" encoding="utf-8" standalone="no"?>
<!DOCTYPE svg PUBLIC "-//W3C//DTD SVG 1.1//EN"
  "http://www.w3.org/Graphics/SVG/1.1/DTD/svg11.dtd">
<!-- Created with matplotlib (https://matplotlib.org/) -->
<svg height="407.340788pt" version="1.1" viewBox="0 0 700.315 407.340788" width="700.315pt" xmlns="http://www.w3.org/2000/svg" xmlns:xlink="http://www.w3.org/1999/xlink">
 <defs>
  <style type="text/css">
*{stroke-linecap:butt;stroke-linejoin:round;}
  </style>
 </defs>
 <g id="figure_1">
  <g id="patch_1">
   <path d="M 0 407.340788 
L 700.315 407.340788 
L 700.315 0 
L 0 0 
z
" style="fill:#ffffff;"/>
  </g>
  <g id="axes_1">
   <g id="patch_2">
    <path d="M 45.675 263.108288 
L 687.115 263.108288 
L 687.115 39.351287 
L 45.675 39.351287 
z
" style="fill:none;"/>
   </g>
   <g id="matplotlib.axis_1">
    <g id="xtick_1">
     <g id="text_1">
      <!-- Total -->
      <defs>
       <path d="M 28.421875 0 
L 20.125 0 
L 20.125 59.328125 
L 1.03125 59.328125 
L 1.03125 66.65625 
L 47.5625 66.65625 
L 47.5625 59.328125 
L 28.421875 59.328125 
z
" id="FranklinGothic-Book-84"/>
       <path d="M 25.34375 -1.3125 
Q 15.1875 -1.3125 9.5 6.203125 
Q 3.8125 13.71875 3.8125 24.859375 
Q 3.8125 36.625 10.203125 43.65625 
Q 16.609375 50.6875 26.125 50.6875 
Q 36.328125 50.6875 42.203125 43.28125 
Q 48.09375 35.890625 48.09375 24.8125 
Q 48.09375 13.28125 41.75 5.984375 
Q 35.40625 -1.3125 25.34375 -1.3125 
z
M 25.921875 4.984375 
Q 31.78125 4.984375 35.734375 9.8125 
Q 39.703125 14.65625 39.703125 24.859375 
Q 39.703125 35.109375 35.546875 39.71875 
Q 31.390625 44.34375 25.828125 44.34375 
Q 20.125 44.34375 16.15625 39.671875 
Q 12.203125 35.015625 12.203125 24.90625 
Q 12.203125 14.203125 16.15625 9.59375 
Q 20.125 4.984375 25.921875 4.984375 
z
" id="FranklinGothic-Book-111"/>
       <path d="M 30.03125 5.28125 
L 30.03125 -0.78125 
Q 25.984375 -1.3125 23 -1.3125 
Q 8.6875 -1.3125 8.6875 13.625 
L 8.6875 43.3125 
L -0.046875 43.3125 
L -0.046875 49.3125 
L 8.6875 49.3125 
L 9.03125 61.71875 
L 16.15625 62.40625 
L 16.15625 49.3125 
L 27.203125 49.3125 
L 27.203125 43.3125 
L 16.15625 43.3125 
L 16.15625 12.359375 
Q 16.15625 4.734375 24.078125 4.734375 
Q 26.703125 4.734375 30.03125 5.28125 
z
" id="FranklinGothic-Book-116"/>
       <path d="M 46.296875 0 
L 38.671875 0 
Q 38.234375 2.34375 37.796875 8.890625 
Q 32.71875 -1.3125 20.515625 -1.3125 
Q 12.203125 -1.3125 7.765625 3.078125 
Q 3.328125 7.46875 3.328125 13.625 
Q 3.328125 21.09375 9.671875 25.90625 
Q 16.015625 30.71875 31.25 30.71875 
Q 33.296875 30.71875 37.796875 30.515625 
Q 37.796875 36.375 36.890625 38.984375 
Q 35.984375 41.609375 33.046875 43.171875 
Q 30.125 44.734375 25.34375 44.734375 
Q 13.671875 44.734375 11.765625 35.84375 
L 4.6875 37.0625 
Q 7.28125 50.6875 26.46875 50.6875 
Q 36.671875 50.6875 40.9375 46.171875 
Q 45.21875 41.65625 45.21875 30.515625 
L 45.21875 9.578125 
Q 45.21875 4.34375 46.296875 0 
z
M 37.796875 24.65625 
Q 33.109375 24.953125 30.671875 24.953125 
Q 21.578125 24.953125 16.546875 21.96875 
Q 11.53125 19 11.53125 13.28125 
Q 11.53125 9.671875 14.234375 7.125 
Q 16.9375 4.59375 22.078125 4.59375 
Q 29 4.59375 33.46875 9.625 
Q 37.9375 14.65625 37.9375 21.4375 
Q 37.9375 22.796875 37.796875 24.65625 
z
" id="FranklinGothic-Book-97"/>
       <path d="M 15.328125 0 
L 7.671875 0 
L 7.671875 66.65625 
L 15.328125 66.65625 
z
" id="FranklinGothic-Book-108"/>
      </defs>
      <g style="fill:#696969;" transform="translate(87.666625 305.733288)rotate(-90)scale(0.16 -0.16)">
       <use xlink:href="#FranklinGothic-Book-84"/>
       <use x="48.441406" xlink:href="#FranklinGothic-Book-111"/>
       <use x="100.394531" xlink:href="#FranklinGothic-Book-116"/>
       <use x="131.15625" xlink:href="#FranklinGothic-Book-97"/>
       <use x="184.037109" xlink:href="#FranklinGothic-Book-108"/>
      </g>
     </g>
    </g>
    <g id="xtick_2">
     <g id="text_2">
      <!-- Zenodo -->
      <defs>
       <path d="M 49.75 7.125 
L 49.75 0 
L 2.734375 0 
L 2.734375 7.125 
L 38.921875 59.421875 
L 4.390625 59.421875 
L 4.390625 66.21875 
L 48.6875 66.21875 
L 48.6875 60.640625 
L 12.0625 7.125 
z
" id="FranklinGothic-Book-90"/>
       <path d="M 40.234375 14.703125 
L 47.359375 13.234375 
Q 45.40625 6.9375 39.734375 2.8125 
Q 34.078125 -1.3125 26.421875 -1.3125 
Q 16.3125 -1.3125 10.0625 5.78125 
Q 3.8125 12.890625 3.8125 24.421875 
Q 3.8125 36.1875 10.296875 43.4375 
Q 16.796875 50.6875 26.609375 50.6875 
Q 36.28125 50.6875 42.15625 44 
Q 48.046875 37.3125 48.1875 23.96875 
L 12.359375 23.96875 
Q 12.359375 12.796875 17.046875 8.890625 
Q 21.734375 4.984375 26.953125 4.984375 
Q 36.375 4.984375 40.234375 14.703125 
z
M 39.796875 29.6875 
Q 39.703125 33.84375 38.421875 37.0625 
Q 37.15625 40.28125 34.125 42.546875 
Q 31.109375 44.828125 26.859375 44.828125 
Q 21.140625 44.828125 17.15625 40.71875 
Q 13.1875 36.625 12.703125 29.6875 
z
" id="FranklinGothic-Book-101"/>
       <path d="M 46.53125 0 
L 39.359375 0 
L 39.359375 31.6875 
Q 39.359375 38.53125 36.375 41.3125 
Q 33.40625 44.09375 29.15625 44.09375 
Q 23.296875 44.09375 19.3125 39.40625 
Q 15.328125 34.71875 15.328125 27.046875 
L 15.328125 0 
L 7.671875 0 
L 7.671875 49.3125 
L 14.796875 49.3125 
L 14.796875 40.234375 
Q 20.796875 50.6875 30.375 50.6875 
Q 35.890625 50.6875 39.765625 47.828125 
Q 43.65625 44.96875 45.09375 41.40625 
Q 46.53125 37.84375 46.53125 28.515625 
z
" id="FranklinGothic-Book-110"/>
       <path d="M 46.1875 66.65625 
L 46.1875 0 
L 39.203125 0 
L 39.203125 8.453125 
Q 34.03125 -1.3125 23.640625 -1.3125 
Q 14.984375 -1.3125 9.421875 5.9375 
Q 3.859375 13.1875 3.859375 24.265625 
Q 3.859375 35.59375 9.375 43.140625 
Q 14.890625 50.6875 24.03125 50.6875 
Q 32.90625 50.6875 38.53125 42.578125 
L 38.53125 66.65625 
z
M 38.53125 30.28125 
Q 38.53125 36.765625 34.5625 40.671875 
Q 30.609375 44.578125 25.34375 44.578125 
Q 19.625 44.578125 15.9375 39.5 
Q 12.25 34.421875 12.25 25.25 
Q 12.25 15.328125 15.640625 10.15625 
Q 19.046875 4.984375 24.953125 4.984375 
Q 30.328125 4.984375 34.421875 9.46875 
Q 38.53125 13.96875 38.53125 20.015625 
z
" id="FranklinGothic-Book-100"/>
      </defs>
      <g style="fill:#696969;" transform="translate(123.007672 323.178288)rotate(-90)scale(0.16 -0.16)">
       <use xlink:href="#FranklinGothic-Book-90"/>
       <use x="52.050781" xlink:href="#FranklinGothic-Book-101"/>
       <use x="104.101562" xlink:href="#FranklinGothic-Book-110"/>
       <use x="158.300781" xlink:href="#FranklinGothic-Book-111"/>
       <use x="210.253906" xlink:href="#FranklinGothic-Book-100"/>
       <use x="264.111328" xlink:href="#FranklinGothic-Book-111"/>
      </g>
     </g>
    </g>
    <g id="xtick_3">
     <g id="text_3">
      <!-- bio.tools -->
      <defs>
       <path d="M 11.375 0 
L 7.671875 0 
L 7.671875 66.65625 
L 15.328125 66.65625 
L 15.328125 41.109375 
Q 20.609375 50.6875 29.890625 50.6875 
Q 38.375 50.6875 44.109375 44 
Q 49.859375 37.3125 49.859375 24.5625 
Q 49.859375 13.578125 44.21875 6.125 
Q 38.578125 -1.3125 29.546875 -1.3125 
Q 19.484375 -1.3125 14.109375 8.15625 
z
M 15.328125 19.34375 
Q 15.875 11.765625 20 8.34375 
Q 24.125 4.9375 28.71875 4.9375 
Q 34.578125 4.9375 38.15625 10.015625 
Q 41.75 15.09375 41.75 23.921875 
Q 41.75 33.453125 38.28125 38.890625 
Q 34.8125 44.34375 28.65625 44.34375 
Q 23.828125 44.34375 19.9375 40.453125 
Q 16.0625 36.578125 15.328125 30.421875 
z
" id="FranklinGothic-Book-98"/>
       <path d="M 15.578125 66.65625 
L 15.578125 58.15625 
L 7.328125 58.15625 
L 7.328125 66.65625 
z
M 15.328125 49.3125 
L 15.328125 0 
L 7.671875 0 
L 7.671875 49.3125 
z
" id="FranklinGothic-Book-105"/>
       <path d="M 17.96875 10.9375 
L 17.96875 0 
L 7.078125 0 
L 7.078125 10.9375 
z
" id="FranklinGothic-Book-46"/>
       <path d="M 1.03125 12.796875 
L 8.34375 14.3125 
Q 10.796875 4.984375 23.78125 4.984375 
Q 28.5625 4.984375 31.875 7.125 
Q 35.203125 9.28125 35.203125 13.1875 
Q 35.203125 19 26.765625 20.5625 
L 16.359375 22.515625 
Q 10.25 23.6875 6.640625 27.09375 
Q 3.03125 30.515625 3.03125 36.140625 
Q 3.03125 42.328125 7.953125 46.5 
Q 12.890625 50.6875 21.234375 50.6875 
Q 37.3125 50.6875 41.0625 38.140625 
L 34.03125 36.625 
Q 31 44.34375 21.578125 44.34375 
Q 16.890625 44.34375 13.890625 42.40625 
Q 10.890625 40.484375 10.890625 37.015625 
Q 10.890625 31.546875 18.5625 30.125 
L 28.171875 28.421875 
Q 43.265625 25.6875 43.265625 13.8125 
Q 43.265625 7.03125 37.640625 2.859375 
Q 32.03125 -1.3125 22.703125 -1.3125 
Q 5.171875 -1.3125 1.03125 12.796875 
z
" id="FranklinGothic-Book-115"/>
      </defs>
      <g style="fill:#696969;" transform="translate(158.348719 329.835788)rotate(-90)scale(0.16 -0.16)">
       <use xlink:href="#FranklinGothic-Book-98"/>
       <use x="53.710938" xlink:href="#FranklinGothic-Book-105"/>
       <use x="76.660156" xlink:href="#FranklinGothic-Book-111"/>
       <use x="128.613281" xlink:href="#FranklinGothic-Book-46"/>
       <use x="153.613281" xlink:href="#FranklinGothic-Book-116"/>
       <use x="184.359375" xlink:href="#FranklinGothic-Book-111"/>
       <use x="236.3125" xlink:href="#FranklinGothic-Book-111"/>
       <use x="288.265625" xlink:href="#FranklinGothic-Book-108"/>
       <use x="311.263672" xlink:href="#FranklinGothic-Book-115"/>
      </g>
     </g>
    </g>
    <g id="xtick_4">
     <g id="text_4">
      <!-- Software Heritage -->
      <defs>
       <path d="M 1.03125 17.71875 
L 8.546875 19.4375 
Q 13.09375 5.8125 28.21875 5.8125 
Q 36.140625 5.8125 40.140625 9.15625 
Q 44.140625 12.5 44.140625 18.109375 
Q 44.140625 22.359375 41.078125 24.953125 
Q 38.03125 27.546875 34.03125 28.515625 
L 20.703125 31.84375 
Q 15.53125 33.15625 12.234375 35.03125 
Q 8.9375 36.921875 6.640625 40.828125 
Q 4.34375 44.734375 4.34375 49.75 
Q 4.34375 58.109375 10.640625 63.0625 
Q 16.9375 68.015625 26.8125 68.015625 
Q 44.96875 68.015625 50.6875 51.5625 
L 43.109375 49.3125 
Q 41.796875 55.171875 36.90625 58.171875 
Q 32.03125 61.1875 26.515625 61.1875 
Q 21.046875 61.1875 16.765625 58.296875 
Q 12.5 55.421875 12.5 50.140625 
Q 12.5 42.78125 23.34375 40.1875 
L 35.796875 37.203125 
Q 52.875 33.109375 52.875 18.796875 
Q 52.875 10.15625 46.453125 4.421875 
Q 40.046875 -1.3125 28.375 -1.3125 
Q 7.671875 -1.3125 1.03125 17.71875 
z
" id="FranklinGothic-Book-83"/>
       <path d="M 28.125 49.3125 
L 28.125 43.3125 
L 16.40625 43.3125 
L 16.40625 0 
L 8.734375 0 
L 8.734375 43.3125 
L 0.34375 43.3125 
L 0.34375 49.3125 
L 8.734375 49.3125 
Q 8.9375 61.1875 13.296875 64.59375 
Q 17.671875 68.015625 23.96875 68.015625 
Q 27.046875 68.015625 31 67.328125 
L 31 61.234375 
Q 28.515625 61.859375 26.265625 61.859375 
Q 21.234375 61.859375 18.8125 59.640625 
Q 16.40625 57.421875 16.40625 51.3125 
L 16.40625 49.3125 
z
" id="FranklinGothic-Book-102"/>
       <path d="M 64.5 49.3125 
L 50.296875 0 
L 44.09375 0 
L 33.0625 36.625 
L 22.953125 0 
L 16.65625 0 
L 1.859375 49.3125 
L 9.578125 49.3125 
L 20.265625 12.546875 
L 30.515625 49.3125 
L 36.140625 49.3125 
L 47.21875 12.40625 
L 58.296875 49.3125 
z
" id="FranklinGothic-Book-119"/>
       <path d="M 15.328125 0 
L 7.671875 0 
L 7.671875 49.3125 
L 14.40625 49.3125 
L 14.40625 37.796875 
Q 17.96875 45.953125 21.546875 48.359375 
Q 25.140625 50.78125 28.90625 50.78125 
Q 30.078125 50.78125 31.9375 50.59375 
L 31.9375 43.265625 
L 30.375 43.265625 
Q 24.03125 43.265625 19.828125 38.53125 
Q 15.625 33.796875 15.328125 26.078125 
z
" id="FranklinGothic-Book-114"/>
       <path id="FranklinGothic-Book-32"/>
       <path d="M 55.953125 0 
L 47.609375 0 
L 47.609375 31.734375 
L 16.703125 31.734375 
L 16.703125 0 
L 8.34375 0 
L 8.34375 66.65625 
L 16.703125 66.65625 
L 16.703125 39.0625 
L 47.609375 39.0625 
L 47.609375 66.65625 
L 55.953125 66.65625 
z
" id="FranklinGothic-Book-72"/>
       <path d="M 47.953125 57.03125 
L 47.953125 50.921875 
Q 42.671875 50.921875 40.890625 49.703125 
Q 39.109375 48.484375 38.53125 45.3125 
Q 43.265625 39.84375 43.265625 33.40625 
Q 43.265625 26.65625 38.109375 21.828125 
Q 32.953125 17 24.265625 17 
Q 22.3125 17 20.90625 17.28125 
Q 18.21875 17.828125 17.53125 17.828125 
Q 16.21875 17.828125 14.359375 16.53125 
Q 12.5 15.234375 12.5 13.1875 
Q 12.5 10.25 15.1875 9.375 
Q 17.875 8.5 27.828125 8.25 
Q 36.28125 8.015625 40.3125 7.109375 
Q 44.34375 6.203125 47.125 3.09375 
Q 49.90625 0 49.90625 -4.5 
Q 49.90625 -18.609375 25.09375 -18.609375 
Q 13.328125 -18.609375 7.9375 -15.0625 
Q 2.546875 -11.53125 2.546875 -5.609375 
Q 2.546875 1.5625 10.0625 4.25 
Q 5.21875 7.421875 5.21875 12.203125 
Q 5.21875 17.921875 12.0625 20.953125 
Q 5.671875 26.125 5.671875 33.984375 
Q 5.671875 41.3125 11.140625 46 
Q 16.609375 50.6875 24.46875 50.6875 
Q 30.03125 50.6875 34.578125 48.578125 
Q 35.296875 53.421875 37.953125 55.265625 
Q 40.625 57.125 46.046875 57.125 
Q 46.578125 57.125 47.953125 57.03125 
z
M 24.515625 22.859375 
Q 29.390625 22.859375 32.46875 25.859375 
Q 35.546875 28.859375 35.546875 33.640625 
Q 35.546875 38.53125 32.34375 41.625 
Q 29.15625 44.734375 24.609375 44.734375 
Q 20.265625 44.734375 16.890625 41.828125 
Q 13.53125 38.921875 13.53125 33.546875 
Q 13.53125 28.765625 16.546875 25.8125 
Q 19.578125 22.859375 24.515625 22.859375 
z
M 15.328125 2 
Q 9.96875 -0.34375 9.96875 -4.78125 
Q 9.96875 -8.546875 14.375 -10.625 
Q 18.796875 -12.703125 25.640625 -12.703125 
Q 31.984375 -12.703125 37.25 -10.90625 
Q 42.53125 -9.125 42.53125 -4.890625 
Q 42.53125 -2.59375 40.96875 -1.125 
Q 39.40625 0.34375 36.6875 0.734375 
Q 33.984375 1.125 27.25 1.3125 
Q 19.1875 1.515625 15.328125 2 
z
" id="FranklinGothic-Book-103"/>
      </defs>
      <g style="fill:#696969;" transform="translate(193.642266 393.563288)rotate(-90)scale(0.16 -0.16)">
       <use xlink:href="#FranklinGothic-Book-83"/>
       <use x="56.933594" xlink:href="#FranklinGothic-Book-111"/>
       <use x="108.886719" xlink:href="#FranklinGothic-Book-102"/>
       <use x="138.898438" xlink:href="#FranklinGothic-Book-116"/>
       <use x="169.660156" xlink:href="#FranklinGothic-Book-119"/>
       <use x="236.050781" xlink:href="#FranklinGothic-Book-97"/>
       <use x="288.931641" xlink:href="#FranklinGothic-Book-114"/>
       <use x="321.890625" xlink:href="#FranklinGothic-Book-101"/>
       <use x="373.941406" xlink:href="#FranklinGothic-Book-32"/>
       <use x="398.941406" xlink:href="#FranklinGothic-Book-72"/>
       <use x="463.199219" xlink:href="#FranklinGothic-Book-101"/>
       <use x="515.25" xlink:href="#FranklinGothic-Book-114"/>
       <use x="548.208984" xlink:href="#FranklinGothic-Book-105"/>
       <use x="571.158203" xlink:href="#FranklinGothic-Book-116"/>
       <use x="601.919922" xlink:href="#FranklinGothic-Book-97"/>
       <use x="654.800781" xlink:href="#FranklinGothic-Book-103"/>
       <use x="703.921875" xlink:href="#FranklinGothic-Book-101"/>
      </g>
     </g>
    </g>
    <g id="xtick_5">
     <g id="text_5">
      <!-- CRAN -->
      <defs>
       <path d="M 48.296875 22.40625 
L 55.90625 20.703125 
Q 50.4375 -1.3125 31.203125 -1.3125 
Q 18.5625 -1.3125 11.359375 8.890625 
Q 4.15625 19.09375 4.15625 33.984375 
Q 4.15625 49.359375 11.671875 58.6875 
Q 19.1875 68.015625 31.84375 68.015625 
Q 50.59375 68.015625 55.90625 46.578125 
L 48.046875 45.015625 
Q 43.75 60.9375 31.78125 60.9375 
Q 22.953125 60.9375 18.09375 53.53125 
Q 13.234375 46.140625 13.234375 32.765625 
Q 13.234375 20.515625 18.203125 13.109375 
Q 23.1875 5.71875 31.390625 5.71875 
Q 44.140625 5.71875 48.296875 22.40625 
z
" id="FranklinGothic-Book-67"/>
       <path d="M 56.296875 0 
L 47.5625 0 
L 35.25 28.859375 
L 16.15625 28.859375 
L 16.15625 0 
L 8.34375 0 
L 8.34375 66.65625 
L 34.625 66.65625 
Q 45.3125 66.65625 50.453125 60.8125 
Q 55.609375 54.984375 55.609375 48.046875 
Q 55.609375 42.71875 52.734375 37.828125 
Q 49.859375 32.953125 43.21875 30.859375 
z
M 16.15625 35.640625 
L 33.59375 35.640625 
Q 40.484375 35.640625 43.875 39.28125 
Q 47.265625 42.921875 47.265625 48.1875 
Q 47.265625 53.46875 43.671875 56.390625 
Q 40.09375 59.328125 34.625 59.328125 
L 16.15625 59.328125 
z
" id="FranklinGothic-Book-82"/>
       <path d="M 53.21875 0 
L 44.671875 0 
L 37.9375 19.484375 
L 13.28125 19.484375 
L 7.328125 0 
L 0.34375 0 
L 21.96875 66.65625 
L 31.5 66.65625 
z
M 36.1875 25.734375 
L 25.921875 57.765625 
L 15.578125 25.734375 
z
" id="FranklinGothic-Book-65"/>
       <path d="M 57.421875 0 
L 49.3125 0 
L 14.84375 58.109375 
L 14.9375 53.71875 
Q 15.09375 51.21875 15.09375 49.515625 
L 15.09375 0 
L 8.34375 0 
L 8.34375 66.65625 
L 18.796875 66.65625 
L 51.03125 12.3125 
L 50.921875 16.9375 
Q 50.828125 19.671875 50.828125 21.78125 
L 50.828125 66.65625 
L 57.421875 66.65625 
z
" id="FranklinGothic-Book-78"/>
      </defs>
      <g style="fill:#696969;" transform="translate(229.030813 310.763288)rotate(-90)scale(0.16 -0.16)">
       <use xlink:href="#FranklinGothic-Book-67"/>
       <use x="57.910156" xlink:href="#FranklinGothic-Book-82"/>
       <use x="119.189453" xlink:href="#FranklinGothic-Book-65"/>
       <use x="172.753906" xlink:href="#FranklinGothic-Book-78"/>
      </g>
     </g>
    </g>
    <g id="xtick_6">
     <g id="text_6">
      <!-- PyPI -->
      <defs>
       <path d="M 16.703125 0 
L 8.34375 0 
L 8.34375 66.65625 
L 31.984375 66.65625 
Q 43.0625 66.65625 48.328125 60.625 
Q 53.609375 54.59375 53.609375 46.875 
Q 53.609375 38.28125 47.875 32.65625 
Q 42.140625 27.046875 32.859375 27.046875 
L 16.703125 27.046875 
z
M 16.703125 33.984375 
L 32.03125 33.984375 
Q 37.9375 33.984375 41.546875 37.515625 
Q 45.171875 41.0625 45.171875 46.875 
Q 45.171875 51.859375 41.9375 55.765625 
Q 38.71875 59.671875 32.625 59.671875 
L 16.703125 59.671875 
z
" id="FranklinGothic-Book-80"/>
       <path d="M 41.5 49.3125 
L 21.734375 -5.765625 
Q 17.4375 -17.671875 8.015625 -17.671875 
Q 5.03125 -17.671875 1.421875 -16.65625 
L 1.421875 -10.640625 
Q 4.390625 -11.328125 6.546875 -11.328125 
Q 10.203125 -11.328125 12.671875 -9.21875 
Q 15.140625 -7.125 17.578125 0.921875 
L 0.53125 49.3125 
L 8.34375 49.3125 
L 21.53125 12.25 
L 35.0625 49.3125 
z
" id="FranklinGothic-Book-121"/>
       <path d="M 16.703125 0 
L 8.34375 0 
L 8.34375 66.65625 
L 16.703125 66.65625 
z
" id="FranklinGothic-Book-73"/>
      </defs>
      <g style="fill:#696969;" transform="translate(264.29061 301.138288)rotate(-90)scale(0.16 -0.16)">
       <use xlink:href="#FranklinGothic-Book-80"/>
       <use x="55.908203" xlink:href="#FranklinGothic-Book-121"/>
       <use x="97.412109" xlink:href="#FranklinGothic-Book-80"/>
       <use x="153.320312" xlink:href="#FranklinGothic-Book-73"/>
      </g>
     </g>
    </g>
    <g id="xtick_7">
     <g id="text_7">
      <!-- Figshare -->
      <defs>
       <path d="M 16.703125 0 
L 8.34375 0 
L 8.34375 66.65625 
L 49.171875 66.65625 
L 49.171875 59.328125 
L 16.703125 59.328125 
L 16.703125 38.28125 
L 43.609375 38.28125 
L 43.609375 31.546875 
L 16.703125 31.546875 
z
" id="FranklinGothic-Book-70"/>
       <path d="M 46.34375 0 
L 38.671875 0 
L 38.671875 29.9375 
Q 38.671875 35.203125 38.015625 37.84375 
Q 37.359375 40.484375 34.890625 42.40625 
Q 32.421875 44.34375 29.203125 44.34375 
Q 23.296875 44.34375 19.3125 39.5 
Q 15.328125 34.671875 15.328125 26.5625 
L 15.328125 0 
L 7.671875 0 
L 7.671875 66.65625 
L 15.328125 66.65625 
L 15.328125 40.234375 
Q 20.5625 50.6875 30.28125 50.6875 
Q 34.625 50.6875 38.015625 48.96875 
Q 41.40625 47.265625 43.203125 44.484375 
Q 45.015625 41.703125 45.671875 38.984375 
Q 46.34375 36.28125 46.34375 29.9375 
z
" id="FranklinGothic-Book-104"/>
      </defs>
      <g style="fill:#696969;" transform="translate(299.556656 330.388288)rotate(-90)scale(0.16 -0.16)">
       <use xlink:href="#FranklinGothic-Book-70"/>
       <use x="50.78125" xlink:href="#FranklinGothic-Book-105"/>
       <use x="73.730469" xlink:href="#FranklinGothic-Book-103"/>
       <use x="122.851562" xlink:href="#FranklinGothic-Book-115"/>
       <use x="169.238281" xlink:href="#FranklinGothic-Book-104"/>
       <use x="223.242188" xlink:href="#FranklinGothic-Book-97"/>
       <use x="276.123047" xlink:href="#FranklinGothic-Book-114"/>
       <use x="309.082031" xlink:href="#FranklinGothic-Book-101"/>
      </g>
     </g>
    </g>
    <g id="xtick_8">
     <g id="text_8">
      <!-- BioConductor -->
      <defs>
       <path d="M 8.34375 0 
L 8.34375 66.65625 
L 34.71875 66.65625 
Q 44.671875 66.65625 49.484375 61.765625 
Q 54.296875 56.890625 54.296875 50.4375 
Q 54.296875 39.109375 42.484375 35.40625 
Q 49.515625 33.59375 52.921875 28.953125 
Q 56.34375 24.3125 56.34375 18.453125 
Q 56.34375 10.59375 51.046875 5.296875 
Q 45.75 0 34.71875 0 
z
M 16.40625 38.09375 
L 30.90625 38.09375 
Q 39.9375 38.09375 42.96875 41.53125 
Q 46 44.96875 46 49.609375 
Q 46 54.203125 42.75 57.03125 
Q 39.5 59.859375 33.0625 59.859375 
L 16.40625 59.859375 
z
M 16.40625 7.328125 
L 34.28125 7.328125 
Q 40.828125 7.328125 44.390625 10.5 
Q 47.953125 13.671875 47.953125 18.75 
Q 47.953125 22.3125 46.34375 25.359375 
Q 44.734375 28.421875 41.796875 30.078125 
Q 38.875 31.734375 33.0625 31.734375 
L 16.40625 31.734375 
z
" id="FranklinGothic-Book-66"/>
       <path d="M 46.484375 0 
L 39.59375 0 
L 39.59375 9.421875 
Q 34.328125 -1.3125 23.875 -1.3125 
Q 16.3125 -1.3125 11.984375 3.65625 
Q 7.671875 8.640625 7.671875 17.828125 
L 7.671875 49.3125 
L 15.328125 49.3125 
L 15.328125 17.828125 
Q 15.328125 10.5 18.375 7.734375 
Q 21.4375 4.984375 25.09375 4.984375 
Q 28.8125 4.984375 31.8125 7.078125 
Q 34.8125 9.1875 36.8125 13.0625 
Q 38.8125 16.9375 38.8125 21.53125 
L 38.8125 49.3125 
L 46.484375 49.3125 
z
" id="FranklinGothic-Book-117"/>
       <path d="M 36.8125 17.28125 
L 43.75 16.0625 
Q 42.28125 7.90625 37.25 3.296875 
Q 32.234375 -1.3125 24.703125 -1.3125 
Q 14.5 -1.3125 9.15625 6.203125 
Q 3.8125 13.71875 3.8125 24.5625 
Q 3.8125 35.796875 9.453125 43.234375 
Q 15.09375 50.6875 24.8125 50.6875 
Q 32.859375 50.6875 37.71875 45.875 
Q 42.578125 41.0625 43.75 33.453125 
L 36.8125 32.125 
Q 34.859375 44.34375 25 44.34375 
Q 18.65625 44.34375 15.234375 38.9375 
Q 11.8125 33.546875 11.8125 24.953125 
Q 11.8125 15.484375 15.203125 10.234375 
Q 18.609375 4.984375 24.75 4.984375 
Q 34.28125 4.984375 36.8125 17.28125 
z
" id="FranklinGothic-Book-99"/>
      </defs>
      <g style="fill:#696969;" transform="translate(335.053953 363.755788)rotate(-90)scale(0.16 -0.16)">
       <use xlink:href="#FranklinGothic-Book-66"/>
       <use x="60.449219" xlink:href="#FranklinGothic-Book-105"/>
       <use x="83.398438" xlink:href="#FranklinGothic-Book-111"/>
       <use x="135.351562" xlink:href="#FranklinGothic-Book-67"/>
       <use x="193.261719" xlink:href="#FranklinGothic-Book-111"/>
       <use x="245.214844" xlink:href="#FranklinGothic-Book-110"/>
       <use x="299.414062" xlink:href="#FranklinGothic-Book-100"/>
       <use x="353.271484" xlink:href="#FranklinGothic-Book-117"/>
       <use x="407.421875" xlink:href="#FranklinGothic-Book-99"/>
       <use x="454.003906" xlink:href="#FranklinGothic-Book-116"/>
       <use x="484.75" xlink:href="#FranklinGothic-Book-111"/>
       <use x="536.703125" xlink:href="#FranklinGothic-Book-114"/>
      </g>
     </g>
    </g>
    <g id="xtick_9">
     <g id="text_9">
      <!-- Conda -->
      <g style="fill:#696969;" transform="translate(370.395 315.935788)rotate(-90)scale(0.16 -0.16)">
       <use xlink:href="#FranklinGothic-Book-67"/>
       <use x="57.910156" xlink:href="#FranklinGothic-Book-111"/>
       <use x="109.863281" xlink:href="#FranklinGothic-Book-110"/>
       <use x="164.0625" xlink:href="#FranklinGothic-Book-100"/>
       <use x="217.919922" xlink:href="#FranklinGothic-Book-97"/>
      </g>
     </g>
    </g>
    <g id="xtick_10">
     <g id="text_10">
      <!-- BioContainers -->
      <g style="fill:#696969;" transform="translate(405.736047 367.265788)rotate(-90)scale(0.16 -0.16)">
       <use xlink:href="#FranklinGothic-Book-66"/>
       <use x="60.449219" xlink:href="#FranklinGothic-Book-105"/>
       <use x="83.398438" xlink:href="#FranklinGothic-Book-111"/>
       <use x="135.351562" xlink:href="#FranklinGothic-Book-67"/>
       <use x="193.261719" xlink:href="#FranklinGothic-Book-111"/>
       <use x="245.214844" xlink:href="#FranklinGothic-Book-110"/>
       <use x="299.414062" xlink:href="#FranklinGothic-Book-116"/>
       <use x="330.175781" xlink:href="#FranklinGothic-Book-97"/>
       <use x="383.056641" xlink:href="#FranklinGothic-Book-105"/>
       <use x="406.005859" xlink:href="#FranklinGothic-Book-110"/>
       <use x="460.205078" xlink:href="#FranklinGothic-Book-101"/>
       <use x="512.255859" xlink:href="#FranklinGothic-Book-114"/>
       <use x="545.214844" xlink:href="#FranklinGothic-Book-115"/>
      </g>
     </g>
    </g>
    <g id="xtick_11">
     <g id="text_11">
      <!-- HAL -->
      <defs>
       <path d="M 47.703125 7.328125 
L 47.703125 0 
L 8.34375 0 
L 8.34375 66.65625 
L 16.890625 66.65625 
L 16.890625 7.328125 
z
" id="FranklinGothic-Book-76"/>
      </defs>
      <g style="fill:#696969;" transform="translate(441.077094 299.295788)rotate(-90)scale(0.16 -0.16)">
       <use xlink:href="#FranklinGothic-Book-72"/>
       <use x="64.257812" xlink:href="#FranklinGothic-Book-65"/>
       <use x="117.822266" xlink:href="#FranklinGothic-Book-76"/>
      </g>
     </g>
    </g>
    <g id="xtick_12">
     <g id="text_12">
      <!-- biojs.io -->
      <defs>
       <path d="M 15.71875 66.65625 
L 15.71875 58.15625 
L 7.03125 58.15625 
L 7.03125 66.65625 
z
M 15.328125 49.859375 
L 15.328125 -1.515625 
Q 15.328125 -10.203125 11.203125 -13.625 
Q 7.078125 -17.046875 1.125 -17.046875 
Q -1.8125 -17.046875 -6.0625 -16.015625 
L -6.0625 -9.96875 
Q -2.875 -10.75 -0.4375 -10.75 
Q 3.90625 -10.75 5.78125 -8.671875 
Q 7.671875 -6.59375 7.671875 -1.515625 
L 7.671875 49.859375 
z
" id="FranklinGothic-Book-106"/>
      </defs>
      <g style="fill:#696969;" transform="translate(476.38689 320.260788)rotate(-90)scale(0.16 -0.16)">
       <use xlink:href="#FranklinGothic-Book-98"/>
       <use x="53.710938" xlink:href="#FranklinGothic-Book-105"/>
       <use x="76.660156" xlink:href="#FranklinGothic-Book-111"/>
       <use x="128.613281" xlink:href="#FranklinGothic-Book-106"/>
       <use x="151.513672" xlink:href="#FranklinGothic-Book-115"/>
       <use x="197.900391" xlink:href="#FranklinGothic-Book-46"/>
       <use x="222.900391" xlink:href="#FranklinGothic-Book-105"/>
       <use x="245.849609" xlink:href="#FranklinGothic-Book-111"/>
      </g>
     </g>
    </g>
    <g id="xtick_13">
     <g id="text_13">
      <!-- Omic Tools -->
      <defs>
       <path d="M 31.34375 -1.3125 
Q 18.5 -1.3125 11.328125 8.671875 
Q 4.15625 18.65625 4.15625 33.15625 
Q 4.15625 48.296875 11.671875 58.15625 
Q 19.1875 68.015625 31.59375 68.015625 
Q 43.953125 68.015625 51.421875 58.328125 
Q 58.890625 48.640625 58.890625 33.890625 
Q 58.890625 19.734375 51.640625 9.203125 
Q 44.390625 -1.3125 31.34375 -1.3125 
z
M 31.546875 5.46875 
Q 40.28125 5.46875 45.203125 13.421875 
Q 50.140625 21.390625 50.140625 33.9375 
Q 50.140625 46.828125 45.03125 54 
Q 39.9375 61.1875 31.5 61.1875 
Q 22.953125 61.1875 17.921875 53.421875 
Q 12.890625 45.65625 12.890625 33.109375 
Q 12.890625 20.84375 17.96875 13.15625 
Q 23.046875 5.46875 31.546875 5.46875 
z
" id="FranklinGothic-Book-79"/>
       <path d="M 73.734375 0 
L 66.265625 0 
L 66.265625 30.671875 
Q 66.265625 35.40625 65.59375 37.765625 
Q 64.9375 40.140625 62.390625 42.109375 
Q 59.859375 44.09375 56.6875 44.09375 
Q 52.296875 44.09375 48.21875 40.0625 
Q 44.140625 36.03125 44.140625 27.78125 
L 44.140625 0 
L 36.71875 0 
L 36.71875 32.46875 
Q 36.71875 38.96875 33.609375 41.65625 
Q 30.515625 44.34375 27.09375 44.34375 
Q 22.21875 44.34375 18.59375 40.140625 
Q 14.984375 35.9375 14.984375 29.5 
L 14.984375 0 
L 7.671875 0 
L 7.671875 49.3125 
L 14.265625 49.3125 
L 14.265625 39.84375 
Q 19.78125 50.6875 29.4375 50.6875 
Q 34.765625 50.6875 38.46875 47.21875 
Q 42.1875 43.75 43.265625 38.875 
Q 48.34375 50.6875 58.84375 50.6875 
Q 63.875 50.6875 67.65625 47.796875 
Q 71.4375 44.921875 72.578125 41.1875 
Q 73.734375 37.453125 73.734375 30.671875 
z
" id="FranklinGothic-Book-109"/>
      </defs>
      <g style="fill:#696969;" transform="translate(511.759187 346.328288)rotate(-90)scale(0.16 -0.16)">
       <use xlink:href="#FranklinGothic-Book-79"/>
       <use x="63.085938" xlink:href="#FranklinGothic-Book-109"/>
       <use x="144.482422" xlink:href="#FranklinGothic-Book-105"/>
       <use x="167.431641" xlink:href="#FranklinGothic-Book-99"/>
       <use x="214.013672" xlink:href="#FranklinGothic-Book-32"/>
       <use x="239.013672" xlink:href="#FranklinGothic-Book-84"/>
       <use x="287.455078" xlink:href="#FranklinGothic-Book-111"/>
       <use x="339.408203" xlink:href="#FranklinGothic-Book-111"/>
       <use x="391.361328" xlink:href="#FranklinGothic-Book-108"/>
       <use x="414.359375" xlink:href="#FranklinGothic-Book-115"/>
      </g>
     </g>
    </g>
    <g id="xtick_14">
     <g id="text_14">
      <!-- DataCite -->
      <defs>
       <path d="M 8.34375 0 
L 8.34375 66.65625 
L 30.71875 66.65625 
Q 44.828125 66.65625 52.6875 57.03125 
Q 60.546875 47.40625 60.546875 33.5 
Q 60.546875 19.390625 52.875 9.6875 
Q 45.21875 0 33.453125 0 
z
M 16.703125 7.078125 
L 30.21875 7.078125 
Q 40.96875 7.078125 46.53125 14.5 
Q 52.09375 21.921875 52.09375 34.078125 
Q 52.09375 43.953125 46.796875 51.8125 
Q 41.5 59.671875 30.21875 59.671875 
L 16.703125 59.671875 
z
" id="FranklinGothic-Book-68"/>
      </defs>
      <g style="fill:#696969;" transform="translate(547.100234 330.988288)rotate(-90)scale(0.16 -0.16)">
       <use xlink:href="#FranklinGothic-Book-68"/>
       <use x="64.697266" xlink:href="#FranklinGothic-Book-97"/>
       <use x="117.578125" xlink:href="#FranklinGothic-Book-116"/>
       <use x="148.339844" xlink:href="#FranklinGothic-Book-97"/>
       <use x="201.220703" xlink:href="#FranklinGothic-Book-67"/>
       <use x="259.130859" xlink:href="#FranklinGothic-Book-105"/>
       <use x="282.080078" xlink:href="#FranklinGothic-Book-116"/>
       <use x="312.826172" xlink:href="#FranklinGothic-Book-101"/>
      </g>
     </g>
    </g>
    <g id="xtick_15">
     <g id="text_15">
      <!-- BioCatalogue -->
      <g style="fill:#696969;" transform="translate(582.393781 362.218288)rotate(-90)scale(0.16 -0.16)">
       <use xlink:href="#FranklinGothic-Book-66"/>
       <use x="60.449219" xlink:href="#FranklinGothic-Book-105"/>
       <use x="83.398438" xlink:href="#FranklinGothic-Book-111"/>
       <use x="135.351562" xlink:href="#FranklinGothic-Book-67"/>
       <use x="193.261719" xlink:href="#FranklinGothic-Book-97"/>
       <use x="246.142578" xlink:href="#FranklinGothic-Book-116"/>
       <use x="276.904297" xlink:href="#FranklinGothic-Book-97"/>
       <use x="329.785156" xlink:href="#FranklinGothic-Book-108"/>
       <use x="352.783203" xlink:href="#FranklinGothic-Book-111"/>
       <use x="404.736328" xlink:href="#FranklinGothic-Book-103"/>
       <use x="453.857422" xlink:href="#FranklinGothic-Book-117"/>
       <use x="508.007812" xlink:href="#FranklinGothic-Book-101"/>
      </g>
     </g>
    </g>
    <g id="xtick_16">
     <g id="text_16">
      <!-- Research Software -->
      <g style="fill:#696969;" transform="translate(609.888328 400.140788)rotate(-90)scale(0.16 -0.16)">
       <use xlink:href="#FranklinGothic-Book-82"/>
       <use x="61.263672" xlink:href="#FranklinGothic-Book-101"/>
       <use x="113.314453" xlink:href="#FranklinGothic-Book-115"/>
       <use x="159.701172" xlink:href="#FranklinGothic-Book-101"/>
       <use x="211.751953" xlink:href="#FranklinGothic-Book-97"/>
       <use x="264.632812" xlink:href="#FranklinGothic-Book-114"/>
       <use x="297.576172" xlink:href="#FranklinGothic-Book-99"/>
       <use x="344.158203" xlink:href="#FranklinGothic-Book-104"/>
       <use x="398.162109" xlink:href="#FranklinGothic-Book-32"/>
       <use x="423.162109" xlink:href="#FranklinGothic-Book-83"/>
       <use x="480.095703" xlink:href="#FranklinGothic-Book-111"/>
       <use x="532.048828" xlink:href="#FranklinGothic-Book-102"/>
       <use x="562.060547" xlink:href="#FranklinGothic-Book-116"/>
       <use x="592.822266" xlink:href="#FranklinGothic-Book-119"/>
       <use x="659.212891" xlink:href="#FranklinGothic-Book-97"/>
       <use x="712.09375" xlink:href="#FranklinGothic-Book-114"/>
       <use x="745.052734" xlink:href="#FranklinGothic-Book-101"/>
      </g>
      <!-- Directory -->
      <g style="fill:#696969;" transform="translate(625.351328 366.489538)rotate(-90)scale(0.16 -0.16)">
       <use xlink:href="#FranklinGothic-Book-68"/>
       <use x="64.697266" xlink:href="#FranklinGothic-Book-105"/>
       <use x="87.646484" xlink:href="#FranklinGothic-Book-114"/>
       <use x="120.605469" xlink:href="#FranklinGothic-Book-101"/>
       <use x="172.65625" xlink:href="#FranklinGothic-Book-99"/>
       <use x="219.238281" xlink:href="#FranklinGothic-Book-116"/>
       <use x="249.984375" xlink:href="#FranklinGothic-Book-111"/>
       <use x="301.9375" xlink:href="#FranklinGothic-Book-114"/>
       <use x="334.943359" xlink:href="#FranklinGothic-Book-121"/>
      </g>
     </g>
    </g>
    <g id="xtick_17">
     <g id="text_17">
      <!-- rOpenSci Project -->
      <defs>
       <path d="M 15.328125 -16.65625 
L 7.671875 -16.65625 
L 7.671875 49.3125 
L 14.546875 49.3125 
L 14.546875 39.75 
Q 19.78125 50.6875 30.125 50.6875 
Q 38.875 50.6875 44.234375 43.375 
Q 49.609375 36.078125 49.609375 24.90625 
Q 49.609375 12.84375 44.09375 5.765625 
Q 38.578125 -1.3125 29.9375 -1.3125 
Q 20.65625 -1.3125 15.328125 7.515625 
z
M 15.328125 31.78125 
L 15.328125 17.921875 
Q 16.0625 12.3125 20.0625 8.640625 
Q 24.078125 4.984375 28.421875 4.984375 
Q 33.453125 4.984375 37.328125 9.375 
Q 41.21875 13.765625 41.21875 24.5625 
Q 41.21875 33.890625 37.703125 38.9375 
Q 34.1875 44 28.375 44 
Q 23.78125 44 20.140625 40.421875 
Q 16.5 36.859375 15.328125 31.78125 
z
" id="FranklinGothic-Book-112"/>
      </defs>
      <g style="fill:#696969;" transform="translate(653.200875 384.653288)rotate(-90)scale(0.16 -0.16)">
       <use xlink:href="#FranklinGothic-Book-114"/>
       <use x="32.958984" xlink:href="#FranklinGothic-Book-79"/>
       <use x="96.044922" xlink:href="#FranklinGothic-Book-112"/>
       <use x="149.462891" xlink:href="#FranklinGothic-Book-101"/>
       <use x="201.513672" xlink:href="#FranklinGothic-Book-110"/>
       <use x="255.712891" xlink:href="#FranklinGothic-Book-83"/>
       <use x="312.646484" xlink:href="#FranklinGothic-Book-99"/>
       <use x="359.228516" xlink:href="#FranklinGothic-Book-105"/>
       <use x="382.177734" xlink:href="#FranklinGothic-Book-32"/>
       <use x="407.177734" xlink:href="#FranklinGothic-Book-80"/>
       <use x="463.085938" xlink:href="#FranklinGothic-Book-114"/>
       <use x="496.029297" xlink:href="#FranklinGothic-Book-111"/>
       <use x="547.982422" xlink:href="#FranklinGothic-Book-106"/>
       <use x="570.882812" xlink:href="#FranklinGothic-Book-101"/>
       <use x="622.933594" xlink:href="#FranklinGothic-Book-99"/>
       <use x="669.515625" xlink:href="#FranklinGothic-Book-116"/>
      </g>
     </g>
    </g>
   </g>
   <g id="matplotlib.axis_2">
    <g id="ytick_1">
     <g id="line2d_1">
      <path clip-path="url(#p3a5855c9a8)" d="M 45.675 263.108288 
L 687.115 263.108288 
" style="fill:none;stroke:#eeeeee;stroke-linecap:round;"/>
     </g>
     <g id="text_18">
      <!-- 0 -->
      <defs>
       <path d="M 29.390625 -1.3125 
Q 17.875 -1.3125 10.984375 8.671875 
Q 4.109375 18.65625 4.109375 33.453125 
Q 4.109375 48 10.640625 58 
Q 17.1875 68.015625 29.15625 68.015625 
Q 41.65625 68.015625 48.125 57.5625 
Q 54.59375 47.125 54.59375 33.0625 
Q 54.59375 19.28125 47.953125 8.984375 
Q 41.3125 -1.3125 29.390625 -1.3125 
z
M 29.4375 5.21875 
Q 37.890625 5.21875 41.9375 12.859375 
Q 46 20.515625 46 32.078125 
Q 46 44.734375 41.84375 53.125 
Q 37.703125 61.53125 29.046875 61.53125 
Q 20.703125 61.53125 16.625 53.859375 
Q 12.546875 46.1875 12.546875 33.6875 
Q 12.546875 20.703125 16.84375 12.953125 
Q 21.140625 5.21875 29.4375 5.21875 
z
" id="FranklinGothic-Book-48"/>
      </defs>
      <g style="fill:#696969;" transform="translate(26.7925 268.440788)scale(0.16 -0.16)">
       <use xlink:href="#FranklinGothic-Book-48"/>
      </g>
     </g>
    </g>
    <g id="ytick_2">
     <g id="line2d_2">
      <path clip-path="url(#p3a5855c9a8)" d="M 45.675 220.487907 
L 687.115 220.487907 
" style="fill:none;stroke:#eeeeee;stroke-linecap:round;"/>
     </g>
     <g id="text_19">
      <!-- 1 -->
      <defs>
       <path d="M 55.859375 6.203125 
L 55.859375 0 
L 9.1875 0 
L 9.1875 6.203125 
L 29.203125 6.203125 
L 29.203125 57.671875 
Q 20.359375 48.4375 10.84375 43.265625 
L 10.84375 51.65625 
Q 23.96875 58.546875 31.203125 68.015625 
L 37.15625 68.015625 
L 37.15625 6.203125 
z
" id="FranklinGothic-Book-49"/>
      </defs>
      <g style="fill:#696969;" transform="translate(26.7925 225.820407)scale(0.16 -0.16)">
       <use xlink:href="#FranklinGothic-Book-49"/>
      </g>
     </g>
    </g>
    <g id="ytick_3">
     <g id="line2d_3">
      <path clip-path="url(#p3a5855c9a8)" d="M 45.675 177.867526 
L 687.115 177.867526 
" style="fill:none;stroke:#eeeeee;stroke-linecap:round;"/>
     </g>
     <g id="text_20">
      <!-- 2 -->
      <defs>
       <path d="M 52.484375 6.9375 
L 52.484375 0 
L 5.171875 0 
L 5.171875 6.9375 
Q 33.203125 27.9375 38.59375 34.59375 
Q 44 41.265625 44 47.796875 
Q 44 53.90625 39.453125 57.65625 
Q 34.90625 61.421875 29 61.421875 
Q 22.90625 61.421875 18.21875 57.296875 
Q 13.53125 53.171875 12.9375 46.09375 
L 5.171875 48.4375 
Q 10.0625 68.015625 29.109375 68.015625 
Q 39.40625 68.015625 45.84375 62.15625 
Q 52.296875 56.296875 52.296875 47.859375 
Q 52.296875 42.046875 49.234375 36.671875 
Q 46.1875 31.296875 37.6875 23.828125 
Q 29.203125 16.359375 15.71875 6.9375 
z
" id="FranklinGothic-Book-50"/>
      </defs>
      <g style="fill:#696969;" transform="translate(26.7925 183.200026)scale(0.16 -0.16)">
       <use xlink:href="#FranklinGothic-Book-50"/>
      </g>
     </g>
    </g>
    <g id="ytick_4">
     <g id="line2d_4">
      <path clip-path="url(#p3a5855c9a8)" d="M 45.675 135.247145 
L 687.115 135.247145 
" style="fill:none;stroke:#eeeeee;stroke-linecap:round;"/>
     </g>
     <g id="text_21">
      <!-- 3 -->
      <defs>
       <path d="M 19.34375 31.34375 
L 19.34375 37.984375 
L 26.953125 37.984375 
Q 35.296875 37.984375 38.890625 41.40625 
Q 42.484375 44.828125 42.484375 49.703125 
Q 42.484375 55.078125 38.46875 58.21875 
Q 34.46875 61.375 28.421875 61.375 
Q 17.1875 61.375 12.890625 50.53125 
L 5.375 52.6875 
Q 11.8125 68.015625 29.203125 68.015625 
Q 38.96875 68.015625 44.96875 62.8125 
Q 50.984375 57.625 50.984375 50.296875 
Q 50.984375 44.625 47.359375 40.40625 
Q 43.75 36.1875 38.09375 35.109375 
Q 44.4375 34.1875 49 29.78125 
Q 53.5625 25.390625 53.5625 18.40625 
Q 53.5625 10.0625 46.765625 4.375 
Q 39.984375 -1.3125 28.171875 -1.3125 
Q 18.796875 -1.3125 12.125 3.125 
Q 5.46875 7.5625 2.9375 14.9375 
L 10.6875 17.53125 
Q 14.203125 5.46875 28.03125 5.46875 
Q 37.015625 5.46875 40.9375 9.296875 
Q 44.875 13.140625 44.875 18.453125 
Q 44.875 24.21875 40.15625 27.78125 
Q 35.453125 31.34375 26.953125 31.34375 
z
" id="FranklinGothic-Book-51"/>
      </defs>
      <g style="fill:#696969;" transform="translate(26.7925 140.579645)scale(0.16 -0.16)">
       <use xlink:href="#FranklinGothic-Book-51"/>
      </g>
     </g>
    </g>
    <g id="ytick_5">
     <g id="line2d_5">
      <path clip-path="url(#p3a5855c9a8)" d="M 45.675 92.626764 
L 687.115 92.626764 
" style="fill:none;stroke:#eeeeee;stroke-linecap:round;"/>
     </g>
     <g id="text_22">
      <!-- 4 -->
      <defs>
       <path d="M 44.09375 0 
L 36.03125 0 
L 36.03125 15.875 
L 3.078125 15.875 
L 3.078125 21.484375 
L 33.640625 68.0625 
L 44.09375 68.0625 
L 44.09375 22.46875 
L 54.890625 22.46875 
L 54.890625 15.875 
L 44.09375 15.875 
z
M 36.03125 22.46875 
L 36.03125 54 
Q 36.03125 57.421875 36.1875 61.375 
Q 34.078125 57.515625 32.5625 55.125 
L 11.765625 22.46875 
z
" id="FranklinGothic-Book-52"/>
      </defs>
      <g style="fill:#696969;" transform="translate(26.7925 97.959264)scale(0.16 -0.16)">
       <use xlink:href="#FranklinGothic-Book-52"/>
      </g>
     </g>
    </g>
    <g id="ytick_6">
     <g id="line2d_6">
      <path clip-path="url(#p3a5855c9a8)" d="M 45.675 50.006383 
L 687.115 50.006383 
" style="fill:none;stroke:#eeeeee;stroke-linecap:round;"/>
     </g>
     <g id="text_23">
      <!-- 5 -->
      <defs>
       <path d="M 48.875 66.65625 
L 48.1875 59.46875 
L 15.4375 59.46875 
L 14.015625 37.84375 
Q 21.4375 45.125 30.328125 45.125 
Q 39.703125 45.125 46.515625 38.625 
Q 53.328125 32.125 53.328125 22.015625 
Q 53.328125 11.765625 45.921875 5.21875 
Q 38.53125 -1.3125 27.828125 -1.3125 
Q 19.4375 -1.3125 12.890625 3.078125 
Q 6.34375 7.46875 4.296875 14.453125 
L 11.421875 16.890625 
Q 15.828125 5.28125 27.9375 5.28125 
Q 35.890625 5.28125 40.578125 9.984375 
Q 45.265625 14.703125 45.265625 22.015625 
Q 45.265625 29.6875 40.625 33.984375 
Q 35.984375 38.28125 29.5 38.28125 
Q 20.015625 38.28125 13.8125 29.203125 
L 7.234375 30.609375 
L 9.375 66.65625 
z
" id="FranklinGothic-Book-53"/>
      </defs>
      <g style="fill:#696969;" transform="translate(26.7925 55.338883)scale(0.16 -0.16)">
       <use xlink:href="#FranklinGothic-Book-53"/>
      </g>
     </g>
    </g>
    <g id="text_24">
     <!-- Number of studies suggesting -->
     <g style="fill:#696969;" transform="translate(19.442813 264.428694)rotate(-90)scale(0.18 -0.18)">
      <use xlink:href="#FranklinGothic-Book-78"/>
      <use x="65.722656" xlink:href="#FranklinGothic-Book-117"/>
      <use x="119.873047" xlink:href="#FranklinGothic-Book-109"/>
      <use x="201.269531" xlink:href="#FranklinGothic-Book-98"/>
      <use x="254.980469" xlink:href="#FranklinGothic-Book-101"/>
      <use x="307.03125" xlink:href="#FranklinGothic-Book-114"/>
      <use x="339.990234" xlink:href="#FranklinGothic-Book-32"/>
      <use x="364.990234" xlink:href="#FranklinGothic-Book-111"/>
      <use x="416.943359" xlink:href="#FranklinGothic-Book-102"/>
      <use x="446.923828" xlink:href="#FranklinGothic-Book-32"/>
      <use x="471.923828" xlink:href="#FranklinGothic-Book-115"/>
      <use x="518.310547" xlink:href="#FranklinGothic-Book-116"/>
      <use x="549.072266" xlink:href="#FranklinGothic-Book-117"/>
      <use x="603.222656" xlink:href="#FranklinGothic-Book-100"/>
      <use x="657.080078" xlink:href="#FranklinGothic-Book-105"/>
      <use x="680.029297" xlink:href="#FranklinGothic-Book-101"/>
      <use x="732.080078" xlink:href="#FranklinGothic-Book-115"/>
      <use x="778.466797" xlink:href="#FranklinGothic-Book-32"/>
      <use x="803.466797" xlink:href="#FranklinGothic-Book-115"/>
      <use x="849.853516" xlink:href="#FranklinGothic-Book-117"/>
      <use x="904.003906" xlink:href="#FranklinGothic-Book-103"/>
      <use x="953.125" xlink:href="#FranklinGothic-Book-103"/>
      <use x="1002.246094" xlink:href="#FranklinGothic-Book-101"/>
      <use x="1054.296875" xlink:href="#FranklinGothic-Book-115"/>
      <use x="1100.683594" xlink:href="#FranklinGothic-Book-116"/>
      <use x="1131.445312" xlink:href="#FranklinGothic-Book-105"/>
      <use x="1154.394531" xlink:href="#FranklinGothic-Book-110"/>
      <use x="1208.59375" xlink:href="#FranklinGothic-Book-103"/>
     </g>
    </g>
   </g>
   <g id="patch_3">
    <path clip-path="url(#p3a5855c9a8)" d="M 74.831364 263.108288 
L 92.501887 263.108288 
L 92.501887 50.006383 
L 74.831364 50.006383 
z
" style="fill:#2563eb;stroke:#ffffff;stroke-linejoin:miter;"/>
   </g>
   <g id="patch_4">
    <path clip-path="url(#p3a5855c9a8)" d="M 110.17241 263.108288 
L 127.842934 263.108288 
L 127.842934 92.626764 
L 110.17241 92.626764 
z
" style="fill:#2563eb;stroke:#ffffff;stroke-linejoin:miter;"/>
   </g>
   <g id="patch_5">
    <path clip-path="url(#p3a5855c9a8)" d="M 145.513457 263.108288 
L 163.183981 263.108288 
L 163.183981 135.247145 
L 145.513457 135.247145 
z
" style="fill:#2563eb;stroke:#ffffff;stroke-linejoin:miter;"/>
   </g>
   <g id="patch_6">
    <path clip-path="url(#p3a5855c9a8)" d="M 180.854504 263.108288 
L 198.525028 263.108288 
L 198.525028 177.867526 
L 180.854504 177.867526 
z
" style="fill:#2563eb;stroke:#ffffff;stroke-linejoin:miter;"/>
   </g>
   <g id="patch_7">
    <path clip-path="url(#p3a5855c9a8)" d="M 216.195551 263.108288 
L 233.866074 263.108288 
L 233.866074 177.867526 
L 216.195551 177.867526 
z
" style="fill:#2563eb;stroke:#ffffff;stroke-linejoin:miter;"/>
   </g>
   <g id="patch_8">
    <path clip-path="url(#p3a5855c9a8)" d="M 251.536598 263.108288 
L 269.207121 263.108288 
L 269.207121 177.867526 
L 251.536598 177.867526 
z
" style="fill:#2563eb;stroke:#ffffff;stroke-linejoin:miter;"/>
   </g>
   <g id="patch_9">
    <path clip-path="url(#p3a5855c9a8)" d="M 286.877645 263.108288 
L 304.548168 263.108288 
L 304.548168 220.487907 
L 286.877645 220.487907 
z
" style="fill:#2563eb;stroke:#ffffff;stroke-linejoin:miter;"/>
   </g>
   <g id="patch_10">
    <path clip-path="url(#p3a5855c9a8)" d="M 322.218691 263.108288 
L 339.889215 263.108288 
L 339.889215 220.487907 
L 322.218691 220.487907 
z
" style="fill:#2563eb;stroke:#ffffff;stroke-linejoin:miter;"/>
   </g>
   <g id="patch_11">
    <path clip-path="url(#p3a5855c9a8)" d="M 357.559738 263.108288 
L 375.230262 263.108288 
L 375.230262 220.487907 
L 357.559738 220.487907 
z
" style="fill:#2563eb;stroke:#ffffff;stroke-linejoin:miter;"/>
   </g>
   <g id="patch_12">
    <path clip-path="url(#p3a5855c9a8)" d="M 392.900785 263.108288 
L 410.571309 263.108288 
L 410.571309 220.487907 
L 392.900785 220.487907 
z
" style="fill:#2563eb;stroke:#ffffff;stroke-linejoin:miter;"/>
   </g>
   <g id="patch_13">
    <path clip-path="url(#p3a5855c9a8)" d="M 428.241832 263.108288 
L 445.912355 263.108288 
L 445.912355 220.487907 
L 428.241832 220.487907 
z
" style="fill:#2563eb;stroke:#ffffff;stroke-linejoin:miter;"/>
   </g>
   <g id="patch_14">
    <path clip-path="url(#p3a5855c9a8)" d="M 463.582879 263.108288 
L 481.253402 263.108288 
L 481.253402 220.487907 
L 463.582879 220.487907 
z
" style="fill:#2563eb;stroke:#ffffff;stroke-linejoin:miter;"/>
   </g>
   <g id="patch_15">
    <path clip-path="url(#p3a5855c9a8)" d="M 498.923926 263.108288 
L 516.594449 263.108288 
L 516.594449 220.487907 
L 498.923926 220.487907 
z
" style="fill:#2563eb;stroke:#ffffff;stroke-linejoin:miter;"/>
   </g>
   <g id="patch_16">
    <path clip-path="url(#p3a5855c9a8)" d="M 534.264972 263.108288 
L 551.935496 263.108288 
L 551.935496 220.487907 
L 534.264972 220.487907 
z
" style="fill:#2563eb;stroke:#ffffff;stroke-linejoin:miter;"/>
   </g>
   <g id="patch_17">
    <path clip-path="url(#p3a5855c9a8)" d="M 569.606019 263.108288 
L 587.276543 263.108288 
L 587.276543 220.487907 
L 569.606019 220.487907 
z
" style="fill:#2563eb;stroke:#ffffff;stroke-linejoin:miter;"/>
   </g>
   <g id="patch_18">
    <path clip-path="url(#p3a5855c9a8)" d="M 604.947066 263.108288 
L 622.61759 263.108288 
L 622.61759 220.487907 
L 604.947066 220.487907 
z
" style="fill:#2563eb;stroke:#ffffff;stroke-linejoin:miter;"/>
   </g>
   <g id="patch_19">
    <path clip-path="url(#p3a5855c9a8)" d="M 640.288113 263.108288 
L 657.958636 263.108288 
L 657.958636 220.487907 
L 640.288113 220.487907 
z
" style="fill:#2563eb;stroke:#ffffff;stroke-linejoin:miter;"/>
   </g>
   <g id="patch_20">
    <path d="M 45.675 263.108288 
L 687.115 263.108288 
" style="fill:none;stroke:#d3d3d3;stroke-linecap:square;stroke-linejoin:miter;stroke-width:1.25;"/>
   </g>
   <g id="text_25">
    <!-- 5 -->
    <g style="fill:#696969;" transform="translate(78.975375 45.744345)scale(0.16 -0.16)">
     <use xlink:href="#FranklinGothic-Book-53"/>
    </g>
   </g>
   <g id="text_26">
    <!-- 4 -->
    <g style="fill:#696969;" transform="translate(114.316422 88.364726)scale(0.16 -0.16)">
     <use xlink:href="#FranklinGothic-Book-52"/>
    </g>
   </g>
   <g id="text_27">
    <!-- 3 -->
    <g style="fill:#696969;" transform="translate(149.657469 130.985107)scale(0.16 -0.16)">
     <use xlink:href="#FranklinGothic-Book-51"/>
    </g>
   </g>
   <g id="text_28">
    <!-- 2 -->
    <g style="fill:#696969;" transform="translate(184.998516 173.605488)scale(0.16 -0.16)">
     <use xlink:href="#FranklinGothic-Book-50"/>
    </g>
   </g>
   <g id="text_29">
    <!-- 2 -->
    <g style="fill:#696969;" transform="translate(220.339563 173.605488)scale(0.16 -0.16)">
     <use xlink:href="#FranklinGothic-Book-50"/>
    </g>
   </g>
   <g id="text_30">
    <!-- 2 -->
    <g style="fill:#696969;" transform="translate(255.68061 173.605488)scale(0.16 -0.16)">
     <use xlink:href="#FranklinGothic-Book-50"/>
    </g>
   </g>
   <g id="text_31">
    <!-- 1 -->
    <g style="fill:#696969;" transform="translate(291.021656 216.225868)scale(0.16 -0.16)">
     <use xlink:href="#FranklinGothic-Book-49"/>
    </g>
   </g>
   <g id="text_32">
    <!-- 1 -->
    <g style="fill:#696969;" transform="translate(326.362703 216.225868)scale(0.16 -0.16)">
     <use xlink:href="#FranklinGothic-Book-49"/>
    </g>
   </g>
   <g id="text_33">
    <!-- 1 -->
    <g style="fill:#696969;" transform="translate(361.70375 216.225868)scale(0.16 -0.16)">
     <use xlink:href="#FranklinGothic-Book-49"/>
    </g>
   </g>
   <g id="text_34">
    <!-- 1 -->
    <g style="fill:#696969;" transform="translate(397.044797 216.225868)scale(0.16 -0.16)">
     <use xlink:href="#FranklinGothic-Book-49"/>
    </g>
   </g>
   <g id="text_35">
    <!-- 1 -->
    <g style="fill:#696969;" transform="translate(432.385844 216.225868)scale(0.16 -0.16)">
     <use xlink:href="#FranklinGothic-Book-49"/>
    </g>
   </g>
   <g id="text_36">
    <!-- 1 -->
    <g style="fill:#696969;" transform="translate(467.72689 216.225868)scale(0.16 -0.16)">
     <use xlink:href="#FranklinGothic-Book-49"/>
    </g>
   </g>
   <g id="text_37">
    <!-- 1 -->
    <g style="fill:#696969;" transform="translate(503.067937 216.225868)scale(0.16 -0.16)">
     <use xlink:href="#FranklinGothic-Book-49"/>
    </g>
   </g>
   <g id="text_38">
    <!-- 1 -->
    <g style="fill:#696969;" transform="translate(538.408984 216.225868)scale(0.16 -0.16)">
     <use xlink:href="#FranklinGothic-Book-49"/>
    </g>
   </g>
   <g id="text_39">
    <!-- 1 -->
    <g style="fill:#696969;" transform="translate(573.750031 216.225868)scale(0.16 -0.16)">
     <use xlink:href="#FranklinGothic-Book-49"/>
    </g>
   </g>
   <g id="text_40">
    <!-- 1 -->
    <g style="fill:#696969;" transform="translate(609.091078 216.225868)scale(0.16 -0.16)">
     <use xlink:href="#FranklinGothic-Book-49"/>
    </g>
   </g>
   <g id="text_41">
    <!-- 1 -->
    <g style="fill:#696969;" transform="translate(644.432125 216.225868)scale(0.16 -0.16)">
     <use xlink:href="#FranklinGothic-Book-49"/>
    </g>
   </g>
   <g id="text_42">
    <!-- Registeries suggested for a research software -->
    <g style="fill:#696969;" transform="translate(154.230781 22.163437)scale(0.22 -0.22)">
     <use xlink:href="#FranklinGothic-Book-82"/>
     <use x="61.263672" xlink:href="#FranklinGothic-Book-101"/>
     <use x="113.314453" xlink:href="#FranklinGothic-Book-103"/>
     <use x="162.435547" xlink:href="#FranklinGothic-Book-105"/>
     <use x="185.384766" xlink:href="#FranklinGothic-Book-115"/>
     <use x="231.771484" xlink:href="#FranklinGothic-Book-116"/>
     <use x="262.517578" xlink:href="#FranklinGothic-Book-101"/>
     <use x="314.568359" xlink:href="#FranklinGothic-Book-114"/>
     <use x="347.527344" xlink:href="#FranklinGothic-Book-105"/>
     <use x="370.476562" xlink:href="#FranklinGothic-Book-101"/>
     <use x="422.527344" xlink:href="#FranklinGothic-Book-115"/>
     <use x="468.914062" xlink:href="#FranklinGothic-Book-32"/>
     <use x="493.914062" xlink:href="#FranklinGothic-Book-115"/>
     <use x="540.300781" xlink:href="#FranklinGothic-Book-117"/>
     <use x="594.451172" xlink:href="#FranklinGothic-Book-103"/>
     <use x="643.572266" xlink:href="#FranklinGothic-Book-103"/>
     <use x="692.693359" xlink:href="#FranklinGothic-Book-101"/>
     <use x="744.744141" xlink:href="#FranklinGothic-Book-115"/>
     <use x="791.130859" xlink:href="#FranklinGothic-Book-116"/>
     <use x="821.876953" xlink:href="#FranklinGothic-Book-101"/>
     <use x="873.927734" xlink:href="#FranklinGothic-Book-100"/>
     <use x="927.785156" xlink:href="#FranklinGothic-Book-32"/>
     <use x="952.785156" xlink:href="#FranklinGothic-Book-102"/>
     <use x="982.734375" xlink:href="#FranklinGothic-Book-111"/>
     <use x="1034.6875" xlink:href="#FranklinGothic-Book-114"/>
     <use x="1067.646484" xlink:href="#FranklinGothic-Book-32"/>
     <use x="1092.646484" xlink:href="#FranklinGothic-Book-97"/>
     <use x="1145.527344" xlink:href="#FranklinGothic-Book-32"/>
     <use x="1170.527344" xlink:href="#FranklinGothic-Book-114"/>
     <use x="1203.486328" xlink:href="#FranklinGothic-Book-101"/>
     <use x="1255.537109" xlink:href="#FranklinGothic-Book-115"/>
     <use x="1301.923828" xlink:href="#FranklinGothic-Book-101"/>
     <use x="1353.974609" xlink:href="#FranklinGothic-Book-97"/>
     <use x="1406.855469" xlink:href="#FranklinGothic-Book-114"/>
     <use x="1439.798828" xlink:href="#FranklinGothic-Book-99"/>
     <use x="1486.380859" xlink:href="#FranklinGothic-Book-104"/>
     <use x="1540.384766" xlink:href="#FranklinGothic-Book-32"/>
     <use x="1565.384766" xlink:href="#FranklinGothic-Book-115"/>
     <use x="1611.771484" xlink:href="#FranklinGothic-Book-111"/>
     <use x="1663.724609" xlink:href="#FranklinGothic-Book-102"/>
     <use x="1693.736328" xlink:href="#FranklinGothic-Book-116"/>
     <use x="1724.498047" xlink:href="#FranklinGothic-Book-119"/>
     <use x="1790.888672" xlink:href="#FranklinGothic-Book-97"/>
     <use x="1843.769531" xlink:href="#FranklinGothic-Book-114"/>
     <use x="1876.728516" xlink:href="#FranklinGothic-Book-101"/>
    </g>
   </g>
  </g>
 </g>
 <defs>
  <clipPath id="p3a5855c9a8">
   <rect height="223.757" width="641.44" x="45.675" y="39.351287"/>
  </clipPath>
 </defs>
</svg>
